%TF.GenerationSoftware,KiCad,Pcbnew,7.0.10*%
%TF.CreationDate,2024-02-19T12:28:25+05:30*%
%TF.ProjectId,ArduinoNano _Rudra_2021eeb1208,41726475-696e-46f4-9e61-6e6f205f5275,rev?*%
%TF.SameCoordinates,Original*%
%TF.FileFunction,Copper,L4,Bot*%
%TF.FilePolarity,Positive*%
%FSLAX46Y46*%
G04 Gerber Fmt 4.6, Leading zero omitted, Abs format (unit mm)*
G04 Created by KiCad (PCBNEW 7.0.10) date 2024-02-19 12:28:25*
%MOMM*%
%LPD*%
G01*
G04 APERTURE LIST*
G04 Aperture macros list*
%AMRoundRect*
0 Rectangle with rounded corners*
0 $1 Rounding radius*
0 $2 $3 $4 $5 $6 $7 $8 $9 X,Y pos of 4 corners*
0 Add a 4 corners polygon primitive as box body*
4,1,4,$2,$3,$4,$5,$6,$7,$8,$9,$2,$3,0*
0 Add four circle primitives for the rounded corners*
1,1,$1+$1,$2,$3*
1,1,$1+$1,$4,$5*
1,1,$1+$1,$6,$7*
1,1,$1+$1,$8,$9*
0 Add four rect primitives between the rounded corners*
20,1,$1+$1,$2,$3,$4,$5,0*
20,1,$1+$1,$4,$5,$6,$7,0*
20,1,$1+$1,$6,$7,$8,$9,0*
20,1,$1+$1,$8,$9,$2,$3,0*%
G04 Aperture macros list end*
%TA.AperFunction,ComponentPad*%
%ADD10R,1.700000X1.700000*%
%TD*%
%TA.AperFunction,ComponentPad*%
%ADD11O,1.700000X1.700000*%
%TD*%
%TA.AperFunction,ComponentPad*%
%ADD12C,1.500000*%
%TD*%
%TA.AperFunction,SMDPad,CuDef*%
%ADD13R,1.500000X2.000000*%
%TD*%
%TA.AperFunction,SMDPad,CuDef*%
%ADD14R,3.800000X2.000000*%
%TD*%
%TA.AperFunction,SMDPad,CuDef*%
%ADD15RoundRect,0.250000X-0.275000X0.312500X-0.275000X-0.312500X0.275000X-0.312500X0.275000X0.312500X0*%
%TD*%
%TA.AperFunction,SMDPad,CuDef*%
%ADD16RoundRect,0.250000X0.312500X0.275000X-0.312500X0.275000X-0.312500X-0.275000X0.312500X-0.275000X0*%
%TD*%
%TA.AperFunction,SMDPad,CuDef*%
%ADD17RoundRect,0.250000X-0.312500X-0.275000X0.312500X-0.275000X0.312500X0.275000X-0.312500X0.275000X0*%
%TD*%
%TA.AperFunction,SMDPad,CuDef*%
%ADD18RoundRect,0.243750X0.456250X-0.243750X0.456250X0.243750X-0.456250X0.243750X-0.456250X-0.243750X0*%
%TD*%
%TA.AperFunction,SMDPad,CuDef*%
%ADD19RoundRect,0.250000X-0.450000X0.262500X-0.450000X-0.262500X0.450000X-0.262500X0.450000X0.262500X0*%
%TD*%
%TA.AperFunction,SMDPad,CuDef*%
%ADD20RoundRect,0.225000X0.225000X0.375000X-0.225000X0.375000X-0.225000X-0.375000X0.225000X-0.375000X0*%
%TD*%
%TA.AperFunction,SMDPad,CuDef*%
%ADD21R,1.750000X0.450000*%
%TD*%
%TA.AperFunction,SMDPad,CuDef*%
%ADD22R,1.000000X1.500000*%
%TD*%
%TA.AperFunction,SMDPad,CuDef*%
%ADD23RoundRect,0.250000X-0.262500X-0.450000X0.262500X-0.450000X0.262500X0.450000X-0.262500X0.450000X0*%
%TD*%
%TA.AperFunction,SMDPad,CuDef*%
%ADD24RoundRect,0.250000X0.262500X0.450000X-0.262500X0.450000X-0.262500X-0.450000X0.262500X-0.450000X0*%
%TD*%
%TA.AperFunction,ViaPad*%
%ADD25C,0.800000*%
%TD*%
%TA.AperFunction,Conductor*%
%ADD26C,0.250000*%
%TD*%
G04 APERTURE END LIST*
D10*
%TO.P,ICSP1,1,MISO*%
%TO.N,/D12{slash}MISO*%
X103632000Y-108458000D03*
D11*
%TO.P,ICSP1,2,VCC*%
%TO.N,+5V*%
X101092000Y-108458000D03*
%TO.P,ICSP1,3,SCK*%
%TO.N,/D13{slash}SCK*%
X103632000Y-105918000D03*
%TO.P,ICSP1,4,MOSI*%
%TO.N,/D11{slash}MOSI*%
X101092000Y-105918000D03*
%TO.P,ICSP1,5,~{RST}*%
%TO.N,/RST*%
X103632000Y-103378000D03*
%TO.P,ICSP1,6,GND*%
%TO.N,GND*%
X101092000Y-103378000D03*
%TD*%
D12*
%TO.P,Y1,1,1*%
%TO.N,Net-(U1-(PCINT6{slash}XTAL1{slash}TOSC1)_PB6)*%
X83820000Y-108258000D03*
%TO.P,Y1,2,2*%
%TO.N,Net-(U1-(PCINT7{slash}XTAL2{slash}TOSC2)_PB7)*%
X83820000Y-103378000D03*
%TD*%
D13*
%TO.P,REG1,1,IN*%
%TO.N,VIN*%
X91352000Y-110694000D03*
%TO.P,REG1,2,GND*%
%TO.N,GND*%
X89052000Y-110694000D03*
D14*
X89052000Y-104394000D03*
D13*
%TO.P,REG1,3,OUT*%
%TO.N,+5V*%
X86752000Y-110694000D03*
%TD*%
D15*
%TO.P,C9,1*%
%TO.N,VUSB*%
X98090000Y-107145000D03*
%TO.P,C9,2*%
%TO.N,GND*%
X98090000Y-108920000D03*
%TD*%
D16*
%TO.P,C3,1*%
%TO.N,+5C*%
X70229500Y-101030000D03*
%TO.P,C3,2*%
%TO.N,GND*%
X68454500Y-101030000D03*
%TD*%
%TO.P,C7,1*%
%TO.N,+3V3*%
X74705000Y-111810000D03*
%TO.P,C7,2*%
%TO.N,GND*%
X72930000Y-111810000D03*
%TD*%
D17*
%TO.P,C2,1*%
%TO.N,+5C*%
X68437500Y-103800000D03*
%TO.P,C2,2*%
%TO.N,GND*%
X70212500Y-103800000D03*
%TD*%
D16*
%TO.P,C4,2*%
%TO.N,/RST*%
X94180000Y-110970000D03*
%TO.P,C4,1*%
%TO.N,Net-(USB1-DTR)*%
X95955000Y-110970000D03*
%TD*%
%TO.P,C10,1*%
%TO.N,+5C*%
X78615000Y-111750000D03*
%TO.P,C10,2*%
%TO.N,GND*%
X76840000Y-111750000D03*
%TD*%
D18*
%TO.P,VREG1,1,K*%
%TO.N,GND*%
X62484000Y-106855500D03*
%TO.P,VREG1,2,A*%
%TO.N,Net-(VREG1-A)*%
X62484000Y-104980500D03*
%TD*%
D19*
%TO.P,RP1D1,1*%
%TO.N,unconnected-(RP1D1-Pad1)*%
X86868000Y-100179500D03*
%TO.P,RP1D1,2*%
%TO.N,unconnected-(RP1D1-Pad2)*%
X86868000Y-102004500D03*
%TD*%
D16*
%TO.P,C5,1*%
%TO.N,GND*%
X70137500Y-109100000D03*
%TO.P,C5,2*%
%TO.N,Net-(U1-(PCINT6{slash}XTAL1{slash}TOSC1)_PB6)*%
X68362500Y-109100000D03*
%TD*%
D19*
%TO.P,RP2C1,1*%
%TO.N,Net-(USB1-CBUS1)*%
X95250000Y-100179500D03*
%TO.P,RP2C1,2*%
%TO.N,Net-(TX1-K)*%
X95250000Y-102004500D03*
%TD*%
%TO.P,RP2A1,1*%
%TO.N,+5V*%
X89662000Y-100179500D03*
%TO.P,RP2A1,2*%
%TO.N,Net-(VREG1-A)*%
X89662000Y-102004500D03*
%TD*%
D20*
%TO.P,D1,1,K*%
%TO.N,+5V*%
X65530000Y-101092000D03*
%TO.P,D1,2,A*%
%TO.N,VUSB*%
X62230000Y-101092000D03*
%TD*%
D19*
%TO.P,RP2B1,1*%
%TO.N,Net-(L1-A)*%
X92456000Y-100179500D03*
%TO.P,RP2B1,2*%
%TO.N,/D13{slash}SCK*%
X92456000Y-102004500D03*
%TD*%
D16*
%TO.P,C1,1*%
%TO.N,/AREF*%
X96350000Y-104830000D03*
%TO.P,C1,2*%
%TO.N,GND*%
X94575000Y-104830000D03*
%TD*%
D21*
%TO.P,USB1,1,TXD*%
%TO.N,/RX*%
X73310000Y-109030000D03*
%TO.P,USB1,2,DTR*%
%TO.N,Net-(USB1-DTR)*%
X73310000Y-108380000D03*
%TO.P,USB1,3,RTS*%
%TO.N,unconnected-(USB1-RTS-Pad3)*%
X73310000Y-107730000D03*
%TO.P,USB1,4,VCCIO*%
%TO.N,+5V*%
X73310000Y-107080000D03*
%TO.P,USB1,5,RXD*%
%TO.N,/TX*%
X73310000Y-106430000D03*
%TO.P,USB1,6,RI*%
%TO.N,unconnected-(USB1-RI-Pad6)*%
X73310000Y-105780000D03*
%TO.P,USB1,7,GND*%
%TO.N,GND*%
X73310000Y-105130000D03*
%TO.P,USB1,8*%
%TO.N,N/C*%
X73310000Y-104480000D03*
%TO.P,USB1,9,DCR*%
%TO.N,unconnected-(USB1-DCR-Pad9)*%
X73310000Y-103830000D03*
%TO.P,USB1,10,DCD*%
%TO.N,unconnected-(USB1-DCD-Pad10)*%
X73310000Y-103180000D03*
%TO.P,USB1,11,CTS*%
%TO.N,unconnected-(USB1-CTS-Pad11)*%
X73310000Y-102530000D03*
%TO.P,USB1,12,CBUS4*%
%TO.N,unconnected-(USB1-CBUS4-Pad12)*%
X73310000Y-101880000D03*
%TO.P,USB1,13,CBUS2*%
%TO.N,unconnected-(USB1-CBUS2-Pad13)*%
X73310000Y-101230000D03*
%TO.P,USB1,14,CBUS3*%
%TO.N,unconnected-(USB1-CBUS3-Pad14)*%
X73310000Y-100580000D03*
%TO.P,USB1,15,USBD+*%
%TO.N,Net-(J7-D+)*%
X80510000Y-100580000D03*
%TO.P,USB1,16,USBD-*%
%TO.N,Net-(J7-D-)*%
X80510000Y-101230000D03*
%TO.P,USB1,17,3V3OUT*%
%TO.N,+3V3*%
X80510000Y-101880000D03*
%TO.P,USB1,18,GND*%
%TO.N,GND*%
X80510000Y-102530000D03*
%TO.P,USB1,19,~{RESET}*%
%TO.N,unconnected-(USB1-~{RESET}-Pad19)*%
X80510000Y-103180000D03*
%TO.P,USB1,20,VCC*%
%TO.N,+5V*%
X80510000Y-103830000D03*
%TO.P,USB1,21,GND*%
%TO.N,GND*%
X80510000Y-104480000D03*
%TO.P,USB1,22,CBUS1*%
%TO.N,Net-(USB1-CBUS1)*%
X80510000Y-105130000D03*
%TO.P,USB1,23,CBUS0*%
%TO.N,Net-(USB1-CBUS0)*%
X80510000Y-105780000D03*
%TO.P,USB1,24*%
%TO.N,N/C*%
X80510000Y-106430000D03*
%TO.P,USB1,25,AGND*%
%TO.N,GND*%
X80510000Y-107080000D03*
%TO.P,USB1,26,TEST*%
%TO.N,unconnected-(USB1-TEST-Pad26)*%
X80510000Y-107730000D03*
%TO.P,USB1,27,OSCI*%
%TO.N,unconnected-(USB1-OSCI-Pad27)*%
X80510000Y-108380000D03*
%TO.P,USB1,28,OSCO*%
%TO.N,unconnected-(USB1-OSCO-Pad28)*%
X80510000Y-109030000D03*
%TD*%
D16*
%TO.P,C8,2*%
%TO.N,GND*%
X80700000Y-111750000D03*
%TO.P,C8,1*%
%TO.N,VUSB*%
X82475000Y-111750000D03*
%TD*%
D22*
%TO.P,JP1,1,A*%
%TO.N,/AREF*%
X64650000Y-111030000D03*
%TO.P,JP1,2,B*%
%TO.N,+5V*%
X65950000Y-111030000D03*
%TD*%
D16*
%TO.P,C6,1*%
%TO.N,GND*%
X70162500Y-106500000D03*
%TO.P,C6,2*%
%TO.N,Net-(U1-(PCINT7{slash}XTAL2{slash}TOSC2)_PB7)*%
X68387500Y-106500000D03*
%TD*%
D11*
%TO.P,J2,15,Pin_15*%
%TO.N,/D13{slash}SCK*%
X64516000Y-114935000D03*
%TO.P,J2,14,Pin_14*%
%TO.N,+3V3*%
X67056000Y-114935000D03*
%TO.P,J2,13,Pin_13*%
%TO.N,/AREF*%
X69596000Y-114935000D03*
%TO.P,J2,12,Pin_12*%
%TO.N,/A7*%
X72136000Y-114935000D03*
%TO.P,J2,11,Pin_11*%
%TO.N,/A6*%
X74676000Y-114935000D03*
%TO.P,J2,10,Pin_10*%
%TO.N,/A5*%
X77216000Y-114935000D03*
%TO.P,J2,9,Pin_9*%
%TO.N,/A4*%
X79756000Y-114935000D03*
%TO.P,J2,8,Pin_8*%
%TO.N,/A3*%
X82296000Y-114935000D03*
%TO.P,J2,7,Pin_7*%
%TO.N,/A2*%
X84836000Y-114935000D03*
%TO.P,J2,6,Pin_6*%
%TO.N,/A1*%
X87376000Y-114935000D03*
%TO.P,J2,5,Pin_5*%
%TO.N,/A0*%
X89916000Y-114935000D03*
%TO.P,J2,4,Pin_4*%
%TO.N,+5V*%
X92456000Y-114935000D03*
%TO.P,J2,3,Pin_3*%
%TO.N,/RST*%
X94996000Y-114935000D03*
%TO.P,J2,2,Pin_2*%
%TO.N,GND*%
X97536000Y-114935000D03*
D10*
%TO.P,J2,1,Pin_1*%
%TO.N,VIN*%
X100076000Y-114935000D03*
%TD*%
D19*
%TO.P,RP1C1,1*%
%TO.N,/TX*%
X98044000Y-100179500D03*
%TO.P,RP1C1,2*%
%TO.N,/D1{slash}TX*%
X98044000Y-102004500D03*
%TD*%
D23*
%TO.P,RP2D1,1*%
%TO.N,Net-(USB1-CBUS0)*%
X100791000Y-111252000D03*
%TO.P,RP2D1,2*%
%TO.N,Net-(RX1-K)*%
X102616000Y-111252000D03*
%TD*%
D24*
%TO.P,RP1B1,1*%
%TO.N,/RX*%
X84732500Y-100838000D03*
%TO.P,RP1B1,2*%
%TO.N,/D0{slash}RX*%
X82907500Y-100838000D03*
%TD*%
D23*
%TO.P,RP1A1,1*%
%TO.N,+5V*%
X100687500Y-100838000D03*
%TO.P,RP1A1,2*%
%TO.N,/RST*%
X102512500Y-100838000D03*
%TD*%
D11*
%TO.P,J4,15,Pin_15*%
%TO.N,/D12{slash}MISO*%
X64516000Y-97155000D03*
%TO.P,J4,14,Pin_14*%
%TO.N,/D11{slash}MOSI*%
X67056000Y-97155000D03*
%TO.P,J4,13,Pin_13*%
%TO.N,/D10*%
X69596000Y-97155000D03*
%TO.P,J4,12,Pin_12*%
%TO.N,/D9*%
X72136000Y-97155000D03*
%TO.P,J4,11,Pin_11*%
%TO.N,/D8*%
X74676000Y-97155000D03*
%TO.P,J4,10,Pin_10*%
%TO.N,/D7*%
X77216000Y-97155000D03*
%TO.P,J4,9,Pin_9*%
%TO.N,/D6*%
X79756000Y-97155000D03*
%TO.P,J4,8,Pin_8*%
%TO.N,/D5*%
X82296000Y-97155000D03*
%TO.P,J4,7,Pin_7*%
%TO.N,/D4*%
X84836000Y-97155000D03*
%TO.P,J4,6,Pin_6*%
%TO.N,/D3*%
X87376000Y-97155000D03*
%TO.P,J4,5,Pin_5*%
%TO.N,/D2*%
X89916000Y-97155000D03*
%TO.P,J4,4,Pin_4*%
%TO.N,GND*%
X92456000Y-97155000D03*
%TO.P,J4,3,Pin_3*%
%TO.N,/RST*%
X94996000Y-97155000D03*
%TO.P,J4,2,Pin_2*%
%TO.N,/D0{slash}RX*%
X97536000Y-97155000D03*
D10*
%TO.P,J4,1,Pin_1*%
%TO.N,/D1{slash}TX*%
X100076000Y-97155000D03*
%TD*%
D25*
%TO.N,Net-(RX1-K)*%
X99406400Y-107099600D03*
%TO.N,Net-(TX1-K)*%
X93926900Y-102144400D03*
%TO.N,Net-(L1-A)*%
X92419200Y-104071500D03*
%TO.N,Net-(J7-D+)*%
X61028900Y-108637600D03*
%TO.N,Net-(J7-D-)*%
X67131400Y-103268000D03*
%TO.N,Net-(VREG1-A)*%
X88347500Y-101841400D03*
X63807700Y-105281700D03*
%TO.N,VUSB*%
X96102400Y-106436700D03*
X84082800Y-110059300D03*
X63480200Y-102573400D03*
%TO.N,Net-(USB1-CBUS0)*%
X85767100Y-106205600D03*
X97730600Y-110154400D03*
%TO.N,/TX*%
X77080300Y-103702300D03*
X98044000Y-99026800D03*
%TO.N,+3V3*%
X72257600Y-112937400D03*
X82004900Y-102431300D03*
%TO.N,Net-(USB1-DTR)*%
X71777800Y-109420700D03*
X91564700Y-107150300D03*
%TO.N,/RX*%
X76959000Y-105855300D03*
X88146600Y-100823300D03*
%TO.N,/D0{slash}RX*%
X75556700Y-104102100D03*
%TO.N,/A5*%
X75618900Y-103064900D03*
%TO.N,/A4*%
X78095800Y-104798600D03*
%TO.N,/A2*%
X86070700Y-108467000D03*
%TO.N,/A1*%
X82999900Y-105411200D03*
%TO.N,/D13{slash}SCK*%
X79765500Y-110228100D03*
%TO.N,/D12{slash}MISO*%
X77311200Y-107894500D03*
%TO.N,/D11{slash}MOSI*%
X75966700Y-107021100D03*
%TO.N,/D10*%
X75789500Y-112560500D03*
%TO.N,/AREF*%
X97544600Y-105169500D03*
%TO.N,/D9*%
X75352800Y-108072400D03*
%TO.N,/D7*%
X71684200Y-111006800D03*
%TO.N,/D6*%
X74804900Y-107169100D03*
%TO.N,/D5*%
X75255200Y-106194500D03*
%TO.N,/D3*%
X73422600Y-99391200D03*
%TO.N,Net-(U1-(PCINT7{slash}XTAL2{slash}TOSC2)_PB7)*%
X69246100Y-110011900D03*
%TO.N,+5C*%
X78047900Y-107072400D03*
X71674800Y-102083500D03*
%TO.N,Net-(U1-(PCINT6{slash}XTAL1{slash}TOSC1)_PB6)*%
X67187200Y-108581900D03*
%TO.N,GND*%
X69477600Y-102544500D03*
%TD*%
D26*
%TO.N,Net-(RX1-K)*%
X99406400Y-108502400D02*
X99406400Y-107099600D01*
X101128100Y-110224100D02*
X99406400Y-108502400D01*
X101588100Y-110224100D02*
X101128100Y-110224100D01*
X102616000Y-111252000D02*
X101588100Y-110224100D01*
%TO.N,Net-(TX1-K)*%
X95110100Y-102144400D02*
X93926900Y-102144400D01*
X95250000Y-102004500D02*
X95110100Y-102144400D01*
%TO.N,Net-(L1-A)*%
X91428100Y-103080400D02*
X92419200Y-104071500D01*
X91428100Y-101207400D02*
X91428100Y-103080400D01*
X92456000Y-100179500D02*
X91428100Y-101207400D01*
%TO.N,/RST*%
X94996000Y-111786000D02*
X94180000Y-110970000D01*
X94996000Y-114935000D02*
X94996000Y-111786000D01*
X102512500Y-101081600D02*
X102512500Y-100838000D01*
X103632000Y-102201100D02*
X102512500Y-101081600D01*
X103632000Y-103378000D02*
X103632000Y-102201100D01*
%TO.N,Net-(J7-D+)*%
X80510000Y-100580000D02*
X79308100Y-100580000D01*
X60436000Y-108044700D02*
X61028900Y-108637600D01*
X60436000Y-100237500D02*
X60436000Y-108044700D01*
X63339100Y-97334400D02*
X60436000Y-100237500D01*
X63339100Y-96662100D02*
X63339100Y-97334400D01*
X64093400Y-95907800D02*
X63339100Y-96662100D01*
X77689600Y-95907800D02*
X64093400Y-95907800D01*
X78486000Y-96704200D02*
X77689600Y-95907800D01*
X78486000Y-99757900D02*
X78486000Y-96704200D01*
X79308100Y-100580000D02*
X78486000Y-99757900D01*
%TO.N,Net-(J7-D-)*%
X67060700Y-103197300D02*
X67131400Y-103268000D01*
X67060700Y-100313600D02*
X67060700Y-103197300D01*
X68720800Y-98653500D02*
X67060700Y-100313600D01*
X73882800Y-98653500D02*
X68720800Y-98653500D01*
X76459300Y-101230000D02*
X73882800Y-98653500D01*
X80510000Y-101230000D02*
X76459300Y-101230000D01*
%TO.N,Net-(VREG1-A)*%
X62785200Y-105281700D02*
X63807700Y-105281700D01*
X62484000Y-104980500D02*
X62785200Y-105281700D01*
X89498900Y-101841400D02*
X88347500Y-101841400D01*
X89662000Y-102004500D02*
X89498900Y-101841400D01*
%TO.N,VIN*%
X93726000Y-111991100D02*
X92428900Y-110694000D01*
X93726000Y-115373300D02*
X93726000Y-111991100D01*
X94509100Y-116156400D02*
X93726000Y-115373300D01*
X98045500Y-116156400D02*
X94509100Y-116156400D01*
X98899100Y-115302800D02*
X98045500Y-116156400D01*
X98899100Y-114935000D02*
X98899100Y-115302800D01*
X100076000Y-114935000D02*
X98899100Y-114935000D01*
X91352000Y-110694000D02*
X92428900Y-110694000D01*
%TO.N,VUSB*%
X97381700Y-106436700D02*
X98090000Y-107145000D01*
X96102400Y-106436700D02*
X97381700Y-106436700D01*
X84082800Y-110142200D02*
X84082800Y-110059300D01*
X82475000Y-111750000D02*
X84082800Y-110142200D01*
X63480200Y-102342200D02*
X63480200Y-102573400D01*
X62230000Y-101092000D02*
X63480200Y-102342200D01*
%TO.N,Net-(USB1-CBUS0)*%
X80510000Y-105780000D02*
X81711900Y-105780000D01*
X82137500Y-106205600D02*
X85767100Y-106205600D01*
X81711900Y-105780000D02*
X82137500Y-106205600D01*
X98828200Y-111252000D02*
X97730600Y-110154400D01*
X100791000Y-111252000D02*
X98828200Y-111252000D01*
%TO.N,/TX*%
X73310000Y-106430000D02*
X74511900Y-106430000D01*
X98044000Y-100179500D02*
X98044000Y-99026800D01*
X77080300Y-104272900D02*
X77080300Y-103702300D01*
X76069000Y-105284200D02*
X77080300Y-104272900D01*
X75133400Y-105284200D02*
X76069000Y-105284200D01*
X74511900Y-105905700D02*
X75133400Y-105284200D01*
X74511900Y-106430000D02*
X74511900Y-105905700D01*
%TO.N,+3V3*%
X73577600Y-112937400D02*
X74705000Y-111810000D01*
X72257600Y-112937400D02*
X73577600Y-112937400D01*
X81711900Y-102138300D02*
X82004900Y-102431300D01*
X81711900Y-101880000D02*
X81711900Y-102138300D01*
X80510000Y-101880000D02*
X81711900Y-101880000D01*
%TO.N,Net-(USB1-CBUS1)*%
X94399800Y-99329300D02*
X95250000Y-100179500D01*
X91700600Y-99329300D02*
X94399800Y-99329300D01*
X90760600Y-100269300D02*
X91700600Y-99329300D01*
X90760600Y-102456500D02*
X90760600Y-100269300D01*
X90293200Y-102923900D02*
X90760600Y-102456500D01*
X86005700Y-102923900D02*
X90293200Y-102923900D01*
X84279900Y-104649700D02*
X86005700Y-102923900D01*
X82192200Y-104649700D02*
X84279900Y-104649700D01*
X81711900Y-105130000D02*
X82192200Y-104649700D01*
X80510000Y-105130000D02*
X81711900Y-105130000D01*
%TO.N,Net-(USB1-DTR)*%
X73310000Y-108380000D02*
X72108100Y-108380000D01*
X92135300Y-107150300D02*
X91564700Y-107150300D01*
X95955000Y-110970000D02*
X92135300Y-107150300D01*
X72108100Y-109090400D02*
X71777800Y-109420700D01*
X72108100Y-108380000D02*
X72108100Y-109090400D01*
%TO.N,/RX*%
X84923000Y-101028500D02*
X84732500Y-100838000D01*
X87941400Y-101028500D02*
X84923000Y-101028500D01*
X88146600Y-100823300D02*
X87941400Y-101028500D01*
X76959000Y-107177900D02*
X76959000Y-105855300D01*
X76475500Y-107661400D02*
X76959000Y-107177900D01*
X76475500Y-107989900D02*
X76475500Y-107661400D01*
X75435400Y-109030000D02*
X76475500Y-107989900D01*
X73310000Y-109030000D02*
X75435400Y-109030000D01*
%TO.N,/D1{slash}TX*%
X100076000Y-97155000D02*
X100076000Y-98331900D01*
X99847100Y-98560800D02*
X100076000Y-98331900D01*
X99847100Y-100201400D02*
X99847100Y-98560800D01*
X98044000Y-102004500D02*
X99847100Y-100201400D01*
%TO.N,/D0{slash}RX*%
X97536000Y-97155000D02*
X96359100Y-97155000D01*
X96359100Y-97522900D02*
X96359100Y-97155000D01*
X95550100Y-98331900D02*
X96359100Y-97522900D01*
X85001000Y-98331900D02*
X95550100Y-98331900D01*
X82907500Y-100425400D02*
X85001000Y-98331900D01*
X82907500Y-100838000D02*
X82907500Y-100425400D01*
%TO.N,/D13{slash}SCK*%
X103632000Y-105918000D02*
X102455100Y-105918000D01*
X102455100Y-105552200D02*
X102455100Y-105918000D01*
X101604200Y-104701300D02*
X102455100Y-105552200D01*
X98948200Y-104701300D02*
X101604200Y-104701300D01*
X97616800Y-103369900D02*
X98948200Y-104701300D01*
X93821400Y-103369900D02*
X97616800Y-103369900D01*
X92456000Y-102004500D02*
X93821400Y-103369900D01*
%TO.N,/AREF*%
X69596000Y-114935000D02*
X68419100Y-114935000D01*
X64650000Y-111030000D02*
X64650000Y-112106900D01*
X68419100Y-114633700D02*
X68419100Y-114935000D01*
X67018300Y-113232900D02*
X68419100Y-114633700D01*
X65776000Y-113232900D02*
X67018300Y-113232900D01*
X64650000Y-112106900D02*
X65776000Y-113232900D01*
X96689500Y-105169500D02*
X96350000Y-104830000D01*
X97544600Y-105169500D02*
X96689500Y-105169500D01*
%TO.N,Net-(U1-(PCINT7{slash}XTAL2{slash}TOSC2)_PB7)*%
X67927600Y-106040100D02*
X68387500Y-106500000D01*
X61729100Y-106040100D02*
X67927600Y-106040100D01*
X61414100Y-106355100D02*
X61729100Y-106040100D01*
X61414100Y-107300200D02*
X61414100Y-106355100D01*
X63608700Y-109494800D02*
X61414100Y-107300200D01*
X67100000Y-109494800D02*
X63608700Y-109494800D01*
X67617100Y-110011900D02*
X67100000Y-109494800D01*
X69246100Y-110011900D02*
X67617100Y-110011900D01*
%TO.N,+5C*%
X78047900Y-111182900D02*
X78047900Y-107072400D01*
X78615000Y-111750000D02*
X78047900Y-111182900D01*
X69341200Y-100141700D02*
X70229500Y-101030000D01*
X67916600Y-100141700D02*
X69341200Y-100141700D01*
X67554500Y-100503800D02*
X67916600Y-100141700D01*
X67554500Y-102663100D02*
X67554500Y-100503800D01*
X68437500Y-103546100D02*
X67554500Y-102663100D01*
X68437500Y-103800000D02*
X68437500Y-103546100D01*
X70621300Y-101030000D02*
X71674800Y-102083500D01*
X70229500Y-101030000D02*
X70621300Y-101030000D01*
%TO.N,+5V*%
X80510000Y-103830000D02*
X81711900Y-103830000D01*
X101092000Y-108458000D02*
X102268900Y-108458000D01*
X100687500Y-100976200D02*
X100527200Y-101136500D01*
X100687500Y-100838000D02*
X100687500Y-100976200D01*
X102454900Y-103064200D02*
X100527200Y-101136500D01*
X102454900Y-103879900D02*
X102454900Y-103064200D01*
X103223000Y-104648000D02*
X102454900Y-103879900D01*
X104119600Y-104648000D02*
X103223000Y-104648000D01*
X104822900Y-105351300D02*
X104119600Y-104648000D01*
X104822900Y-106461800D02*
X104822900Y-105351300D01*
X104106600Y-107178100D02*
X104822900Y-106461800D01*
X102739700Y-107178100D02*
X104106600Y-107178100D01*
X102268900Y-107648900D02*
X102739700Y-107178100D01*
X102268900Y-108458000D02*
X102268900Y-107648900D01*
X87828900Y-111689200D02*
X87828900Y-110694000D01*
X89897800Y-113758100D02*
X87828900Y-111689200D01*
X90470100Y-113758100D02*
X89897800Y-113758100D01*
X91279100Y-114567100D02*
X90470100Y-113758100D01*
X91279100Y-114935000D02*
X91279100Y-114567100D01*
X92456000Y-114935000D02*
X91279100Y-114935000D01*
X86752000Y-110694000D02*
X87828900Y-110694000D01*
X86752000Y-110694000D02*
X85675100Y-110694000D01*
X88775500Y-99293000D02*
X89662000Y-100179500D01*
X84691200Y-99293000D02*
X88775500Y-99293000D01*
X83819900Y-100164300D02*
X84691200Y-99293000D01*
X83819900Y-101722000D02*
X83819900Y-100164300D01*
X81711900Y-103830000D02*
X83819900Y-101722000D01*
X90973900Y-98867600D02*
X89662000Y-100179500D01*
X95552100Y-98867600D02*
X90973900Y-98867600D01*
X96710800Y-100026300D02*
X95552100Y-98867600D01*
X96710800Y-102251000D02*
X96710800Y-100026300D01*
X97357700Y-102897900D02*
X96710800Y-102251000D01*
X98765800Y-102897900D02*
X97357700Y-102897900D01*
X100527200Y-101136500D02*
X98765800Y-102897900D01*
X82704800Y-113664300D02*
X85675100Y-110694000D01*
X69411200Y-113664300D02*
X82704800Y-113664300D01*
X66776900Y-111030000D02*
X69411200Y-113664300D01*
X65950000Y-111030000D02*
X65950000Y-109953100D01*
X65950000Y-111030000D02*
X66776900Y-111030000D01*
X73310000Y-107080000D02*
X72108100Y-107080000D01*
X64573700Y-100135700D02*
X65530000Y-101092000D01*
X61800200Y-100135700D02*
X64573700Y-100135700D01*
X60927800Y-101008100D02*
X61800200Y-100135700D01*
X60927800Y-107481000D02*
X60927800Y-101008100D01*
X63399900Y-109953100D02*
X60927800Y-107481000D01*
X65950000Y-109953100D02*
X63399900Y-109953100D01*
X72108100Y-106966700D02*
X72108100Y-107080000D01*
X70780900Y-105639500D02*
X72108100Y-106966700D01*
X68437300Y-105639500D02*
X70780900Y-105639500D01*
X65530000Y-102732200D02*
X68437300Y-105639500D01*
X65530000Y-101092000D02*
X65530000Y-102732200D01*
%TO.N,Net-(U1-(PCINT6{slash}XTAL1{slash}TOSC1)_PB6)*%
X67844400Y-108581900D02*
X67187200Y-108581900D01*
X68362500Y-109100000D02*
X67844400Y-108581900D01*
%TO.N,GND*%
X80510000Y-104480000D02*
X79308100Y-104480000D01*
X71542500Y-105130000D02*
X70212500Y-103800000D01*
X73310000Y-105130000D02*
X71542500Y-105130000D01*
X80510000Y-107080000D02*
X79308100Y-107080000D01*
X80510000Y-107080000D02*
X81711900Y-107080000D01*
X81809900Y-107177900D02*
X81711900Y-107080000D01*
X89052000Y-104394000D02*
X86825100Y-104394000D01*
X89052000Y-110694000D02*
X89052000Y-109367100D01*
X69144300Y-108106800D02*
X70137500Y-109100000D01*
X69144300Y-107518200D02*
X69144300Y-108106800D01*
X70162500Y-106500000D02*
X69144300Y-107518200D01*
X67978900Y-107518200D02*
X69144300Y-107518200D01*
X67316200Y-106855500D02*
X67978900Y-107518200D01*
X62484000Y-106855500D02*
X67316200Y-106855500D01*
X79308100Y-107080000D02*
X79308100Y-104480000D01*
X80510000Y-102530000D02*
X79308100Y-102530000D01*
X73310000Y-105130000D02*
X74511900Y-105130000D01*
X74809600Y-104832300D02*
X74511900Y-105130000D01*
X75869500Y-104832300D02*
X74809600Y-104832300D01*
X76288900Y-104412900D02*
X75869500Y-104832300D01*
X76288900Y-103423100D02*
X76288900Y-104412900D01*
X76763500Y-102948500D02*
X76288900Y-103423100D01*
X79308100Y-102948500D02*
X76763500Y-102948500D01*
X79308100Y-104480000D02*
X79308100Y-102948500D01*
X79308100Y-102948500D02*
X79308100Y-102530000D01*
X81808000Y-110642000D02*
X80700000Y-111750000D01*
X81808000Y-107179800D02*
X81808000Y-110642000D01*
X81809900Y-107177900D02*
X81808000Y-107179800D01*
X81809900Y-107177900D02*
X86825100Y-107177900D01*
X86862800Y-107177900D02*
X86825100Y-107177900D01*
X89052000Y-109367100D02*
X86862800Y-107177900D01*
X86825100Y-107177900D02*
X86825100Y-104394000D01*
X77701600Y-112611600D02*
X76840000Y-111750000D01*
X79838400Y-112611600D02*
X77701600Y-112611600D01*
X80700000Y-111750000D02*
X79838400Y-112611600D01*
X89052000Y-104394000D02*
X91278900Y-104394000D01*
X91714900Y-104830000D02*
X91278900Y-104394000D01*
X94575000Y-104830000D02*
X91714900Y-104830000D01*
X96994700Y-109483100D02*
X97557800Y-108920000D01*
X96994700Y-113216800D02*
X96994700Y-109483100D01*
X97536000Y-113758100D02*
X96994700Y-113216800D01*
X94575000Y-105937200D02*
X97557800Y-108920000D01*
X94575000Y-104830000D02*
X94575000Y-105937200D01*
X97557800Y-108920000D02*
X98090000Y-108920000D01*
X97536000Y-114935000D02*
X97536000Y-113758100D01*
X69477600Y-103065100D02*
X69477600Y-102544500D01*
X70212500Y-103800000D02*
X69477600Y-103065100D01*
X69477600Y-102053100D02*
X69477600Y-102544500D01*
X68454500Y-101030000D02*
X69477600Y-102053100D01*
X73204900Y-110949700D02*
X72930000Y-111224600D01*
X76039700Y-110949700D02*
X73204900Y-110949700D01*
X76840000Y-111750000D02*
X76039700Y-110949700D01*
X72930000Y-111810000D02*
X72930000Y-111224600D01*
X71288800Y-110251300D02*
X70137500Y-109100000D01*
X71956700Y-110251300D02*
X71288800Y-110251300D01*
X72930000Y-111224600D02*
X71956700Y-110251300D01*
%TD*%
M02*
