%TF.GenerationSoftware,KiCad,Pcbnew,7.0.10*%
%TF.CreationDate,2024-02-19T12:28:25+05:30*%
%TF.ProjectId,ArduinoNano _Rudra_2021eeb1208,41726475-696e-46f4-9e61-6e6f205f5275,rev?*%
%TF.SameCoordinates,Original*%
%TF.FileFunction,Copper,L1,Top*%
%TF.FilePolarity,Positive*%
%FSLAX46Y46*%
G04 Gerber Fmt 4.6, Leading zero omitted, Abs format (unit mm)*
G04 Created by KiCad (PCBNEW 7.0.10) date 2024-02-19 12:28:25*
%MOMM*%
%LPD*%
G01*
G04 APERTURE LIST*
G04 Aperture macros list*
%AMRoundRect*
0 Rectangle with rounded corners*
0 $1 Rounding radius*
0 $2 $3 $4 $5 $6 $7 $8 $9 X,Y pos of 4 corners*
0 Add a 4 corners polygon primitive as box body*
4,1,4,$2,$3,$4,$5,$6,$7,$8,$9,$2,$3,0*
0 Add four circle primitives for the rounded corners*
1,1,$1+$1,$2,$3*
1,1,$1+$1,$4,$5*
1,1,$1+$1,$6,$7*
1,1,$1+$1,$8,$9*
0 Add four rect primitives between the rounded corners*
20,1,$1+$1,$2,$3,$4,$5,0*
20,1,$1+$1,$4,$5,$6,$7,0*
20,1,$1+$1,$6,$7,$8,$9,0*
20,1,$1+$1,$8,$9,$2,$3,0*%
G04 Aperture macros list end*
%TA.AperFunction,SMDPad,CuDef*%
%ADD10R,0.900000X1.700000*%
%TD*%
%TA.AperFunction,ComponentPad*%
%ADD11R,1.700000X1.700000*%
%TD*%
%TA.AperFunction,ComponentPad*%
%ADD12O,1.700000X1.700000*%
%TD*%
%TA.AperFunction,SMDPad,CuDef*%
%ADD13RoundRect,0.243750X-0.243750X-0.456250X0.243750X-0.456250X0.243750X0.456250X-0.243750X0.456250X0*%
%TD*%
%TA.AperFunction,SMDPad,CuDef*%
%ADD14R,2.250000X0.500000*%
%TD*%
%TA.AperFunction,SMDPad,CuDef*%
%ADD15R,2.500000X2.000000*%
%TD*%
%TA.AperFunction,ComponentPad*%
%ADD16C,1.500000*%
%TD*%
%TA.AperFunction,SMDPad,CuDef*%
%ADD17R,1.473200X0.508000*%
%TD*%
%TA.AperFunction,SMDPad,CuDef*%
%ADD18R,0.508000X1.473200*%
%TD*%
%TA.AperFunction,ViaPad*%
%ADD19C,0.800000*%
%TD*%
%TA.AperFunction,Conductor*%
%ADD20C,0.250000*%
%TD*%
G04 APERTURE END LIST*
D10*
%TO.P,RST1,1,1*%
%TO.N,/RST*%
X93120500Y-107950000D03*
%TO.P,RST1,2,2*%
%TO.N,GND*%
X96520500Y-107950000D03*
%TD*%
D11*
%TO.P,ICSP1,1,MISO*%
%TO.N,/D12{slash}MISO*%
X103632000Y-108458000D03*
D12*
%TO.P,ICSP1,2,VCC*%
%TO.N,+5V*%
X101092000Y-108458000D03*
%TO.P,ICSP1,3,SCK*%
%TO.N,/D13{slash}SCK*%
X103632000Y-105918000D03*
%TO.P,ICSP1,4,MOSI*%
%TO.N,/D11{slash}MOSI*%
X101092000Y-105918000D03*
%TO.P,ICSP1,5,~{RST}*%
%TO.N,/RST*%
X103632000Y-103378000D03*
%TO.P,ICSP1,6,GND*%
%TO.N,GND*%
X101092000Y-103378000D03*
%TD*%
D13*
%TO.P,L1,1,K*%
%TO.N,GND*%
X93707500Y-111760000D03*
%TO.P,L1,2,A*%
%TO.N,Net-(L1-A)*%
X95582500Y-111760000D03*
%TD*%
%TO.P,RX1,1,K*%
%TO.N,Net-(RX1-K)*%
X93804500Y-104140000D03*
%TO.P,RX1,2,A*%
%TO.N,+5V*%
X95679500Y-104140000D03*
%TD*%
D14*
%TO.P,J7,1,VBUS*%
%TO.N,VUSB*%
X67043000Y-104318000D03*
%TO.P,J7,2,D-*%
%TO.N,Net-(J7-D-)*%
X67043000Y-105118000D03*
%TO.P,J7,3,D+*%
%TO.N,Net-(J7-D+)*%
X67043000Y-105918000D03*
%TO.P,J7,4,ID*%
%TO.N,unconnected-(J7-ID-Pad4)*%
X67043000Y-106718000D03*
%TO.P,J7,5,GND*%
%TO.N,GND*%
X67043000Y-107518000D03*
D15*
%TO.P,J7,SH1,SHIELD*%
X66918000Y-101468000D03*
%TO.P,J7,SH2,SHIELD*%
X66918000Y-110368000D03*
%TO.P,J7,SH3,SHIELD*%
X61468000Y-101468000D03*
%TO.P,J7,SH4,SHIELD*%
X61468000Y-110368000D03*
%TD*%
D13*
%TO.P,TX1,1,K*%
%TO.N,Net-(TX1-K)*%
X93804500Y-100838000D03*
%TO.P,TX1,2,A*%
%TO.N,+5V*%
X95679500Y-100838000D03*
%TD*%
D16*
%TO.P,Y1,1,1*%
%TO.N,Net-(U1-(PCINT6{slash}XTAL1{slash}TOSC1)_PB6)*%
X83820000Y-108258000D03*
%TO.P,Y1,2,2*%
%TO.N,Net-(U1-(PCINT7{slash}XTAL2{slash}TOSC2)_PB7)*%
X83820000Y-103378000D03*
%TD*%
D17*
%TO.P,U1,1,(PCINT19/OC2B/INT1)_PD3*%
%TO.N,/D3*%
X71323200Y-102971600D03*
%TO.P,U1,2,(PCINT20/XCK/T0)_PD4*%
%TO.N,/D4*%
X71323200Y-103759000D03*
%TO.P,U1,3,GND_3*%
%TO.N,GND*%
X71323200Y-104571800D03*
%TO.P,U1,4,VCC_2*%
%TO.N,+5C*%
X71323200Y-105359200D03*
%TO.P,U1,5,GND*%
%TO.N,GND*%
X71323200Y-106172000D03*
%TO.P,U1,6,VCC*%
%TO.N,+5C*%
X71323200Y-106959400D03*
%TO.P,U1,7,(PCINT6/XTAL1/TOSC1)_PB6*%
%TO.N,Net-(U1-(PCINT6{slash}XTAL1{slash}TOSC1)_PB6)*%
X71323200Y-107772200D03*
%TO.P,U1,8,(PCINT7/XTAL2/TOSC2)_PB7*%
%TO.N,Net-(U1-(PCINT7{slash}XTAL2{slash}TOSC2)_PB7)*%
X71323200Y-108559600D03*
D18*
%TO.P,U1,9,(PCINT21/OC0B/T1)_PD5*%
%TO.N,/D5*%
X72644000Y-109880400D03*
%TO.P,U1,10,(PCINT22/OC0A/AIN0)_PD6*%
%TO.N,/D6*%
X73431400Y-109880400D03*
%TO.P,U1,11,(PCINT23/AIN1)_PD7*%
%TO.N,/D7*%
X74244200Y-109880400D03*
%TO.P,U1,12,(PCINT0/CLKO/ICP1)_PB0*%
%TO.N,/D8*%
X75031600Y-109880400D03*
%TO.P,U1,13,(PCINT1/OC1A)_PB1*%
%TO.N,/D9*%
X75844400Y-109880400D03*
%TO.P,U1,14,(PCINT2/SS/OC1B)_PB2*%
%TO.N,/D10*%
X76631800Y-109880400D03*
%TO.P,U1,15,(PCINT3/OC2A/MOSI)_PB3*%
%TO.N,/D11{slash}MOSI*%
X77444600Y-109880400D03*
%TO.P,U1,16,(PCINT4/MISO)_PB4*%
%TO.N,/D12{slash}MISO*%
X78232000Y-109880400D03*
D17*
%TO.P,U1,17,PB5_(SCK/PCINT5)*%
%TO.N,/D13{slash}SCK*%
X79552800Y-108559600D03*
%TO.P,U1,18,AVCC*%
%TO.N,+5C*%
X79552800Y-107772200D03*
%TO.P,U1,19,ADC6*%
%TO.N,/A6*%
X79552800Y-106959400D03*
%TO.P,U1,20,AREF*%
%TO.N,/AREF*%
X79552800Y-106172000D03*
%TO.P,U1,21,GND_2*%
%TO.N,GND*%
X79552800Y-105359200D03*
%TO.P,U1,22,ADC7*%
%TO.N,/A7*%
X79552800Y-104571800D03*
%TO.P,U1,23,PC0_(ADC0/PCINT8)*%
%TO.N,/A0*%
X79552800Y-103759000D03*
%TO.P,U1,24,PC1_(ADC1/PCINT9)*%
%TO.N,/A1*%
X79552800Y-102971600D03*
D18*
%TO.P,U1,25,PC2_(ADC2/PCINT10)*%
%TO.N,/A2*%
X78232000Y-101650800D03*
%TO.P,U1,26,PC3_(ADC3/PCINT11)*%
%TO.N,/A3*%
X77444600Y-101650800D03*
%TO.P,U1,27,PC4_(ADC4/SDA/PCINT12)*%
%TO.N,/A4*%
X76631800Y-101650800D03*
%TO.P,U1,28,PC5_(ADC5/SCL/PCINT13)*%
%TO.N,/A5*%
X75844400Y-101650800D03*
%TO.P,U1,29,PC6_(RESET/PCINT14)*%
%TO.N,/RST*%
X75031600Y-101650800D03*
%TO.P,U1,30,PD0_(RXD/PCINT16)*%
%TO.N,/D0{slash}RX*%
X74244200Y-101650800D03*
%TO.P,U1,31,PD1_(TXD/PCINT17)*%
%TO.N,/D1{slash}TX*%
X73431400Y-101650800D03*
%TO.P,U1,32,PD2_(INT0/PCINT18)*%
%TO.N,/D2*%
X72644000Y-101650800D03*
%TD*%
D12*
%TO.P,J2,15,Pin_15*%
%TO.N,/D13{slash}SCK*%
X64516000Y-114935000D03*
%TO.P,J2,14,Pin_14*%
%TO.N,+3V3*%
X67056000Y-114935000D03*
%TO.P,J2,13,Pin_13*%
%TO.N,/AREF*%
X69596000Y-114935000D03*
%TO.P,J2,12,Pin_12*%
%TO.N,/A7*%
X72136000Y-114935000D03*
%TO.P,J2,11,Pin_11*%
%TO.N,/A6*%
X74676000Y-114935000D03*
%TO.P,J2,10,Pin_10*%
%TO.N,/A5*%
X77216000Y-114935000D03*
%TO.P,J2,9,Pin_9*%
%TO.N,/A4*%
X79756000Y-114935000D03*
%TO.P,J2,8,Pin_8*%
%TO.N,/A3*%
X82296000Y-114935000D03*
%TO.P,J2,7,Pin_7*%
%TO.N,/A2*%
X84836000Y-114935000D03*
%TO.P,J2,6,Pin_6*%
%TO.N,/A1*%
X87376000Y-114935000D03*
%TO.P,J2,5,Pin_5*%
%TO.N,/A0*%
X89916000Y-114935000D03*
%TO.P,J2,4,Pin_4*%
%TO.N,+5V*%
X92456000Y-114935000D03*
%TO.P,J2,3,Pin_3*%
%TO.N,/RST*%
X94996000Y-114935000D03*
%TO.P,J2,2,Pin_2*%
%TO.N,GND*%
X97536000Y-114935000D03*
D11*
%TO.P,J2,1,Pin_1*%
%TO.N,VIN*%
X100076000Y-114935000D03*
%TD*%
D12*
%TO.P,J4,15,Pin_15*%
%TO.N,/D12{slash}MISO*%
X64516000Y-97155000D03*
%TO.P,J4,14,Pin_14*%
%TO.N,/D11{slash}MOSI*%
X67056000Y-97155000D03*
%TO.P,J4,13,Pin_13*%
%TO.N,/D10*%
X69596000Y-97155000D03*
%TO.P,J4,12,Pin_12*%
%TO.N,/D9*%
X72136000Y-97155000D03*
%TO.P,J4,11,Pin_11*%
%TO.N,/D8*%
X74676000Y-97155000D03*
%TO.P,J4,10,Pin_10*%
%TO.N,/D7*%
X77216000Y-97155000D03*
%TO.P,J4,9,Pin_9*%
%TO.N,/D6*%
X79756000Y-97155000D03*
%TO.P,J4,8,Pin_8*%
%TO.N,/D5*%
X82296000Y-97155000D03*
%TO.P,J4,7,Pin_7*%
%TO.N,/D4*%
X84836000Y-97155000D03*
%TO.P,J4,6,Pin_6*%
%TO.N,/D3*%
X87376000Y-97155000D03*
%TO.P,J4,5,Pin_5*%
%TO.N,/D2*%
X89916000Y-97155000D03*
%TO.P,J4,4,Pin_4*%
%TO.N,GND*%
X92456000Y-97155000D03*
%TO.P,J4,3,Pin_3*%
%TO.N,/RST*%
X94996000Y-97155000D03*
%TO.P,J4,2,Pin_2*%
%TO.N,/D0{slash}RX*%
X97536000Y-97155000D03*
D11*
%TO.P,J4,1,Pin_1*%
%TO.N,/D1{slash}TX*%
X100076000Y-97155000D03*
%TD*%
D19*
%TO.N,Net-(RX1-K)*%
X99406400Y-107099600D03*
%TO.N,Net-(TX1-K)*%
X93926900Y-102144400D03*
%TO.N,Net-(L1-A)*%
X92419200Y-104071500D03*
%TO.N,Net-(J7-D+)*%
X61028900Y-108637600D03*
%TO.N,Net-(J7-D-)*%
X67131400Y-103268000D03*
%TO.N,Net-(VREG1-A)*%
X88347500Y-101841400D03*
X63807700Y-105281700D03*
%TO.N,VUSB*%
X96102400Y-106436700D03*
X84082800Y-110059300D03*
X63480200Y-102573400D03*
%TO.N,Net-(USB1-CBUS0)*%
X85767100Y-106205600D03*
X97730600Y-110154400D03*
%TO.N,/TX*%
X77080300Y-103702300D03*
X98044000Y-99026800D03*
%TO.N,+3V3*%
X72257600Y-112937400D03*
X82004900Y-102431300D03*
%TO.N,Net-(USB1-DTR)*%
X71777800Y-109420700D03*
X91564700Y-107150300D03*
%TO.N,/RX*%
X76959000Y-105855300D03*
X88146600Y-100823300D03*
%TO.N,/D0{slash}RX*%
X75556700Y-104102100D03*
%TO.N,/A5*%
X75618900Y-103064900D03*
%TO.N,/A4*%
X78095800Y-104798600D03*
%TO.N,/A2*%
X86070700Y-108467000D03*
%TO.N,/A1*%
X82999900Y-105411200D03*
%TO.N,/D13{slash}SCK*%
X79765500Y-110228100D03*
%TO.N,/D12{slash}MISO*%
X77311200Y-107894500D03*
%TO.N,/D11{slash}MOSI*%
X75966700Y-107021100D03*
%TO.N,/D10*%
X75789500Y-112560500D03*
%TO.N,/AREF*%
X97544600Y-105169500D03*
%TO.N,/D9*%
X75352800Y-108072400D03*
%TO.N,/D7*%
X71684200Y-111006800D03*
%TO.N,/D6*%
X74804900Y-107169100D03*
%TO.N,/D5*%
X75255200Y-106194500D03*
%TO.N,/D3*%
X73422600Y-99391200D03*
%TO.N,Net-(U1-(PCINT7{slash}XTAL2{slash}TOSC2)_PB7)*%
X69246100Y-110011900D03*
%TO.N,+5C*%
X78047900Y-107072400D03*
X71674800Y-102083500D03*
%TO.N,Net-(U1-(PCINT6{slash}XTAL1{slash}TOSC1)_PB6)*%
X67187200Y-108581900D03*
%TO.N,GND*%
X69477600Y-102544500D03*
%TD*%
D20*
%TO.N,/D8*%
X75031600Y-109880400D02*
X75031600Y-110943900D01*
X59837800Y-111462500D02*
X59837800Y-100364900D01*
X74238200Y-111737300D02*
X60112600Y-111737300D01*
X75031600Y-110943900D02*
X74238200Y-111737300D01*
X73499100Y-97155000D02*
X74676000Y-97155000D01*
X60112600Y-111737300D02*
X59837800Y-111462500D01*
X59837800Y-100364900D02*
X61564500Y-98638200D01*
X72317200Y-98638200D02*
X73499100Y-97456300D01*
X61564500Y-98638200D02*
X72317200Y-98638200D01*
X73499100Y-97456300D02*
X73499100Y-97155000D01*
%TO.N,Net-(RX1-K)*%
X94877300Y-105212800D02*
X93804500Y-104140000D01*
X96557000Y-105212800D02*
X94877300Y-105212800D01*
X98443800Y-107099600D02*
X96557000Y-105212800D01*
X99406400Y-107099600D02*
X98443800Y-107099600D01*
%TO.N,Net-(TX1-K)*%
X93804500Y-102022000D02*
X93926900Y-102144400D01*
X93804500Y-100838000D02*
X93804500Y-102022000D01*
%TO.N,Net-(L1-A)*%
X95582500Y-111274600D02*
X95582500Y-111760000D01*
X97297400Y-109559700D02*
X95582500Y-111274600D01*
X97297400Y-106595400D02*
X97297400Y-109559700D01*
X96411800Y-105709800D02*
X97297400Y-106595400D01*
X93865400Y-105709800D02*
X96411800Y-105709800D01*
X92419200Y-104263600D02*
X93865400Y-105709800D01*
X92419200Y-104071500D02*
X92419200Y-104263600D01*
%TO.N,/RST*%
X94996000Y-97155000D02*
X93819100Y-97155000D01*
X93120500Y-107950000D02*
X92343600Y-107950000D01*
X94996000Y-114935000D02*
X94996000Y-113758100D01*
X93120500Y-107950000D02*
X93120500Y-109126900D01*
X75031600Y-101650800D02*
X75031600Y-100587300D01*
X94186900Y-113758100D02*
X94996000Y-113758100D01*
X92887600Y-112458800D02*
X94186900Y-113758100D01*
X92887600Y-109359800D02*
X92887600Y-112458800D01*
X93120500Y-109126900D02*
X92887600Y-109359800D01*
X93819100Y-97694700D02*
X91447400Y-100066400D01*
X93819100Y-97155000D02*
X93819100Y-97694700D01*
X92343600Y-105355000D02*
X92343600Y-107950000D01*
X91447400Y-104458800D02*
X92343600Y-105355000D01*
X91447400Y-100066400D02*
X91447400Y-104458800D01*
X75552500Y-100066400D02*
X91447400Y-100066400D01*
X75031600Y-100587300D02*
X75552500Y-100066400D01*
%TO.N,Net-(J7-D+)*%
X62600400Y-107066100D02*
X61028900Y-108637600D01*
X64158400Y-107066100D02*
X62600400Y-107066100D01*
X65306500Y-105918000D02*
X64158400Y-107066100D01*
X67043000Y-105918000D02*
X65306500Y-105918000D01*
%TO.N,Net-(J7-D-)*%
X67830300Y-103268000D02*
X67131400Y-103268000D01*
X68494900Y-103932600D02*
X67830300Y-103268000D01*
X68494900Y-105118000D02*
X68494900Y-103932600D01*
X67043000Y-105118000D02*
X68494900Y-105118000D01*
%TO.N,/D2*%
X89916000Y-97155000D02*
X88739100Y-97155000D01*
X72644000Y-101650800D02*
X72644000Y-100587300D01*
X88739100Y-97522800D02*
X88739100Y-97155000D01*
X87342200Y-98919700D02*
X88739100Y-97522800D01*
X75318300Y-98919700D02*
X87342200Y-98919700D01*
X74119900Y-100118100D02*
X75318300Y-98919700D01*
X73113200Y-100118100D02*
X74119900Y-100118100D01*
X72644000Y-100587300D02*
X73113200Y-100118100D01*
%TO.N,VUSB*%
X65591100Y-103410200D02*
X65591100Y-104318000D01*
X64754300Y-102573400D02*
X65591100Y-103410200D01*
X63480200Y-102573400D02*
X64754300Y-102573400D01*
X67043000Y-104318000D02*
X65591100Y-104318000D01*
%TO.N,/D1{slash}TX*%
X100076000Y-97155000D02*
X98899100Y-97155000D01*
X73431400Y-101650800D02*
X73431400Y-100587300D01*
X98899100Y-96787200D02*
X98899100Y-97155000D01*
X98079300Y-95967400D02*
X98899100Y-96787200D01*
X91972300Y-95967400D02*
X98079300Y-95967400D01*
X91186000Y-96753700D02*
X91972300Y-95967400D01*
X91186000Y-97561400D02*
X91186000Y-96753700D01*
X89201800Y-99545600D02*
X91186000Y-97561400D01*
X75331600Y-99545600D02*
X89201800Y-99545600D01*
X74289900Y-100587300D02*
X75331600Y-99545600D01*
X73431400Y-100587300D02*
X74289900Y-100587300D01*
%TO.N,/D0{slash}RX*%
X74244200Y-102789600D02*
X75556700Y-104102100D01*
X74244200Y-101650800D02*
X74244200Y-102789600D01*
%TO.N,/A5*%
X75844400Y-101650800D02*
X75844400Y-102714300D01*
X75618900Y-102939800D02*
X75618900Y-103064900D01*
X75844400Y-102714300D02*
X75618900Y-102939800D01*
%TO.N,/A4*%
X76631800Y-101650800D02*
X76631800Y-102714300D01*
X78095800Y-103658300D02*
X78095800Y-104798600D01*
X77151800Y-102714300D02*
X78095800Y-103658300D01*
X76631800Y-102714300D02*
X77151800Y-102714300D01*
%TO.N,/A3*%
X82296000Y-114935000D02*
X83472900Y-114935000D01*
X77444600Y-101650800D02*
X77444600Y-100587300D01*
X83472900Y-115302800D02*
X83472900Y-114935000D01*
X84326500Y-116156400D02*
X83472900Y-115302800D01*
X90402900Y-116156400D02*
X84326500Y-116156400D01*
X91115600Y-115443700D02*
X90402900Y-116156400D01*
X91115600Y-109146100D02*
X91115600Y-115443700D01*
X82556800Y-100587300D02*
X91115600Y-109146100D01*
X77444600Y-100587300D02*
X82556800Y-100587300D01*
%TO.N,/A2*%
X86070700Y-107539200D02*
X86070700Y-108467000D01*
X83765400Y-105233900D02*
X86070700Y-107539200D01*
X83765400Y-105143900D02*
X83765400Y-105233900D01*
X81816500Y-103195000D02*
X83765400Y-105143900D01*
X81740700Y-103195000D02*
X81816500Y-103195000D01*
X80196500Y-101650800D02*
X81740700Y-103195000D01*
X78232000Y-101650800D02*
X80196500Y-101650800D01*
%TO.N,/A1*%
X79552800Y-102971600D02*
X80616300Y-102971600D01*
X80616300Y-103027600D02*
X82999900Y-105411200D01*
X80616300Y-102971600D02*
X80616300Y-103027600D01*
%TO.N,/A0*%
X89916000Y-114935000D02*
X89916000Y-113758100D01*
X79552800Y-103759000D02*
X80616300Y-103759000D01*
X85006000Y-108848100D02*
X89916000Y-113758100D01*
X85006000Y-107920700D02*
X85006000Y-108848100D01*
X83544300Y-106459000D02*
X85006000Y-107920700D01*
X83019400Y-106459000D02*
X83544300Y-106459000D01*
X82119700Y-105559300D02*
X83019400Y-106459000D01*
X82119700Y-105262400D02*
X82119700Y-105559300D01*
X80616300Y-103759000D02*
X82119700Y-105262400D01*
%TO.N,/A7*%
X79552800Y-104571800D02*
X80616300Y-104571800D01*
X70959100Y-113758100D02*
X72136000Y-114935000D01*
X69032400Y-113758100D02*
X70959100Y-113758100D01*
X68414300Y-114376200D02*
X69032400Y-113758100D01*
X68414300Y-115496600D02*
X68414300Y-114376200D01*
X69543900Y-116626200D02*
X68414300Y-115496600D01*
X77233100Y-116626200D02*
X69543900Y-116626200D01*
X78486000Y-115373300D02*
X77233100Y-116626200D01*
X78486000Y-114464900D02*
X78486000Y-115373300D01*
X81553000Y-111397900D02*
X78486000Y-114464900D01*
X81553000Y-105508500D02*
X81553000Y-111397900D01*
X80616300Y-104571800D02*
X81553000Y-105508500D01*
%TO.N,/A6*%
X79552800Y-106959400D02*
X80616300Y-106959400D01*
X80616300Y-110405300D02*
X80616300Y-106959400D01*
X80066600Y-110955000D02*
X80616300Y-110405300D01*
X78656000Y-110955000D02*
X80066600Y-110955000D01*
X74676000Y-114935000D02*
X78656000Y-110955000D01*
%TO.N,/D13{slash}SCK*%
X79552800Y-110015400D02*
X79765500Y-110228100D01*
X79552800Y-108559600D02*
X79552800Y-110015400D01*
%TO.N,/D12{slash}MISO*%
X78232000Y-109880400D02*
X78232000Y-108816900D01*
X77311200Y-107896100D02*
X77311200Y-107894500D01*
X78232000Y-108816900D02*
X77311200Y-107896100D01*
%TO.N,/D11{slash}MOSI*%
X75966700Y-107578300D02*
X75966700Y-107021100D01*
X77205300Y-108816900D02*
X75966700Y-107578300D01*
X77444600Y-108816900D02*
X77205300Y-108816900D01*
X77444600Y-109880400D02*
X77444600Y-108816900D01*
%TO.N,/D10*%
X76631800Y-111718200D02*
X76631800Y-109880400D01*
X75789500Y-112560500D02*
X76631800Y-111718200D01*
%TO.N,/AREF*%
X79552800Y-106172000D02*
X80616300Y-106172000D01*
X69596000Y-114935000D02*
X70772900Y-114935000D01*
X81085500Y-106641200D02*
X80616300Y-106172000D01*
X81085500Y-110632700D02*
X81085500Y-106641200D01*
X79981600Y-111736600D02*
X81085500Y-110632700D01*
X78717900Y-111736600D02*
X79981600Y-111736600D01*
X75946000Y-114508500D02*
X78717900Y-111736600D01*
X75946000Y-115412900D02*
X75946000Y-114508500D01*
X75187700Y-116171200D02*
X75946000Y-115412900D01*
X71643300Y-116171200D02*
X75187700Y-116171200D01*
X70772900Y-115300800D02*
X71643300Y-116171200D01*
X70772900Y-114935000D02*
X70772900Y-115300800D01*
%TO.N,/D9*%
X75844400Y-109880400D02*
X75844400Y-108816900D01*
X75352800Y-108325300D02*
X75352800Y-108072400D01*
X75844400Y-108816900D02*
X75352800Y-108325300D01*
%TO.N,/D7*%
X74244200Y-109880400D02*
X74244200Y-110943900D01*
X71747100Y-110943900D02*
X71684200Y-111006800D01*
X74244200Y-110943900D02*
X71747100Y-110943900D01*
%TO.N,/D6*%
X73431400Y-108542600D02*
X73431400Y-109880400D01*
X74804900Y-107169100D02*
X73431400Y-108542600D01*
%TO.N,/D5*%
X74703200Y-106194500D02*
X75255200Y-106194500D01*
X72644000Y-108253700D02*
X74703200Y-106194500D01*
X72644000Y-109880400D02*
X72644000Y-108253700D01*
%TO.N,/D4*%
X83659100Y-97520800D02*
X83659100Y-97155000D01*
X82741800Y-98438100D02*
X83659100Y-97520800D01*
X73347800Y-98438100D02*
X82741800Y-98438100D01*
X70259700Y-101526200D02*
X73347800Y-98438100D01*
X70259700Y-103759000D02*
X70259700Y-101526200D01*
X71323200Y-103759000D02*
X70259700Y-103759000D01*
X84836000Y-97155000D02*
X83659100Y-97155000D01*
%TO.N,/D3*%
X73184300Y-99391200D02*
X73422600Y-99391200D01*
X70935200Y-101640300D02*
X73184300Y-99391200D01*
X70935200Y-102583600D02*
X70935200Y-101640300D01*
X71323200Y-102971600D02*
X70935200Y-102583600D01*
%TO.N,Net-(U1-(PCINT7{slash}XTAL2{slash}TOSC2)_PB7)*%
X71323200Y-108559600D02*
X70259700Y-108559600D01*
X70259700Y-108998300D02*
X69246100Y-110011900D01*
X70259700Y-108559600D02*
X70259700Y-108998300D01*
%TO.N,+5C*%
X71323200Y-105359200D02*
X72386700Y-105359200D01*
X71323200Y-106959400D02*
X72386700Y-106959400D01*
X79552800Y-107772200D02*
X78489300Y-107772200D01*
X72386700Y-106959400D02*
X72386700Y-105465100D01*
X72386700Y-105465100D02*
X72386700Y-105359200D01*
X78047900Y-107330800D02*
X78489300Y-107772200D01*
X78047900Y-107072400D02*
X78047900Y-107330800D01*
X77148200Y-107072400D02*
X78047900Y-107072400D01*
X76232100Y-106156300D02*
X77148200Y-107072400D01*
X76232100Y-106081300D02*
X76232100Y-106156300D01*
X75615900Y-105465100D02*
X76232100Y-106081300D01*
X72386700Y-105465100D02*
X75615900Y-105465100D01*
%TO.N,+5V*%
X101092000Y-108458000D02*
X101092000Y-107281100D01*
X95679500Y-103479200D02*
X96009900Y-103809600D01*
X95679500Y-100838000D02*
X95679500Y-103479200D01*
X96009900Y-103809600D02*
X95679500Y-104140000D01*
X97296300Y-103809600D02*
X96009900Y-103809600D01*
X100767800Y-107281100D02*
X97296300Y-103809600D01*
X101092000Y-107281100D02*
X100767800Y-107281100D01*
%TO.N,Net-(U1-(PCINT6{slash}XTAL1{slash}TOSC1)_PB6)*%
X71323200Y-107772200D02*
X70259700Y-107772200D01*
X69450000Y-108581900D02*
X67187200Y-108581900D01*
X70259700Y-107772200D02*
X69450000Y-108581900D01*
%TO.N,GND*%
X67043000Y-107518000D02*
X65591100Y-107518000D01*
X66918000Y-101468000D02*
X68494900Y-101468000D01*
X61468000Y-101468000D02*
X63044900Y-101468000D01*
X66918000Y-101468000D02*
X65341100Y-101468000D01*
X61468000Y-110368000D02*
X63044900Y-110368000D01*
X65591100Y-107518000D02*
X65591100Y-110315400D01*
X65643700Y-110368000D02*
X66918000Y-110368000D01*
X65591100Y-110315400D02*
X65643700Y-110368000D01*
X63097500Y-110315400D02*
X63044900Y-110368000D01*
X65591100Y-110315400D02*
X63097500Y-110315400D01*
X67043000Y-107518000D02*
X68494900Y-107518000D01*
X71323200Y-106172000D02*
X70259700Y-106172000D01*
X68913700Y-107518000D02*
X68494900Y-107518000D01*
X70259700Y-106172000D02*
X68913700Y-107518000D01*
X97536000Y-114935000D02*
X96359100Y-114935000D01*
X93734200Y-111760000D02*
X93707500Y-111760000D01*
X96359100Y-114384900D02*
X93734200Y-111760000D01*
X96359100Y-114935000D02*
X96359100Y-114384900D01*
X93734200Y-110736300D02*
X96520500Y-107950000D01*
X93734200Y-111760000D02*
X93734200Y-110736300D01*
X71323200Y-104571800D02*
X72386700Y-104571800D01*
X71323200Y-104571800D02*
X70259700Y-104571800D01*
X70259700Y-106172000D02*
X70259700Y-104571800D01*
X65341100Y-101468000D02*
X63044900Y-101468000D01*
X69477600Y-103789700D02*
X69477600Y-102544500D01*
X70259700Y-104571800D02*
X69477600Y-103789700D01*
X69477600Y-102450700D02*
X69477600Y-102544500D01*
X68494900Y-101468000D02*
X69477600Y-102450700D01*
X72675300Y-104860400D02*
X72386700Y-104571800D01*
X76993700Y-104860400D02*
X72675300Y-104860400D01*
X77677700Y-105544400D02*
X76993700Y-104860400D01*
X79367600Y-105544400D02*
X77677700Y-105544400D01*
X79552800Y-105359200D02*
X79367600Y-105544400D01*
%TD*%
M02*
