%TF.GenerationSoftware,KiCad,Pcbnew,7.0.10*%
%TF.CreationDate,2024-02-19T12:28:38+05:30*%
%TF.ProjectId,ArduinoNano _Rudra_2021eeb1208,41726475-696e-46f4-9e61-6e6f205f5275,rev?*%
%TF.SameCoordinates,Original*%
%TF.FileFunction,Drillmap*%
%TF.FilePolarity,Positive*%
%FSLAX45Y45*%
G04 Gerber Fmt 4.5, Leading zero omitted, Abs format (unit mm)*
G04 Created by KiCad (PCBNEW 7.0.10) date 2024-02-19 12:28:38*
%MOMM*%
%LPD*%
G01*
G04 APERTURE LIST*
%ADD10C,0.100000*%
%ADD11C,0.200000*%
G04 APERTURE END LIST*
D10*
X6261100Y-9715500D02*
G75*
G03*
X6057900Y-9715500I-101600J0D01*
G01*
X6057900Y-9715500D02*
G75*
G03*
X6261100Y-9715500I101600J0D01*
G01*
X10414000Y-11486000D02*
G75*
G03*
X10210800Y-11486000I-101600J0D01*
G01*
X10210800Y-11486000D02*
G75*
G03*
X10414000Y-11486000I101600J0D01*
G01*
X6258600Y-11486000D02*
G75*
G03*
X6055400Y-11486000I-101600J0D01*
G01*
X6055400Y-11486000D02*
G75*
G03*
X6258600Y-11486000I101600J0D01*
G01*
X5943600Y-9474200D02*
X10566400Y-9474200D01*
X10566400Y-11709400D01*
X5943600Y-11709400D01*
X5943600Y-9474200D01*
X10414000Y-9715500D02*
G75*
G03*
X10210800Y-9715500I-101600J0D01*
G01*
X10210800Y-9715500D02*
G75*
G03*
X10414000Y-9715500I101600J0D01*
G01*
D11*
D10*
X9442050Y-10755000D02*
X9522050Y-10835000D01*
X9522050Y-10755000D02*
X9442050Y-10835000D01*
X6484300Y-10371800D02*
G75*
G03*
X6389300Y-10371800I-47500J0D01*
G01*
X6389300Y-10371800D02*
G75*
G03*
X6484300Y-10371800I47500J0D01*
G01*
X6484300Y-10811800D02*
G75*
G03*
X6389300Y-10811800I-47500J0D01*
G01*
X6389300Y-10811800D02*
G75*
G03*
X6484300Y-10811800I47500J0D01*
G01*
D11*
X6199377Y-12025884D02*
X6199377Y-11825884D01*
X6199377Y-11825884D02*
X6246996Y-11825884D01*
X6246996Y-11825884D02*
X6275567Y-11835408D01*
X6275567Y-11835408D02*
X6294615Y-11854455D01*
X6294615Y-11854455D02*
X6304139Y-11873503D01*
X6304139Y-11873503D02*
X6313662Y-11911598D01*
X6313662Y-11911598D02*
X6313662Y-11940169D01*
X6313662Y-11940169D02*
X6304139Y-11978265D01*
X6304139Y-11978265D02*
X6294615Y-11997312D01*
X6294615Y-11997312D02*
X6275567Y-12016360D01*
X6275567Y-12016360D02*
X6246996Y-12025884D01*
X6246996Y-12025884D02*
X6199377Y-12025884D01*
X6399377Y-12025884D02*
X6399377Y-11892550D01*
X6399377Y-11930646D02*
X6408901Y-11911598D01*
X6408901Y-11911598D02*
X6418424Y-11902074D01*
X6418424Y-11902074D02*
X6437472Y-11892550D01*
X6437472Y-11892550D02*
X6456520Y-11892550D01*
X6523186Y-12025884D02*
X6523186Y-11892550D01*
X6523186Y-11825884D02*
X6513662Y-11835408D01*
X6513662Y-11835408D02*
X6523186Y-11844931D01*
X6523186Y-11844931D02*
X6532710Y-11835408D01*
X6532710Y-11835408D02*
X6523186Y-11825884D01*
X6523186Y-11825884D02*
X6523186Y-11844931D01*
X6646996Y-12025884D02*
X6627948Y-12016360D01*
X6627948Y-12016360D02*
X6618424Y-11997312D01*
X6618424Y-11997312D02*
X6618424Y-11825884D01*
X6751758Y-12025884D02*
X6732710Y-12016360D01*
X6732710Y-12016360D02*
X6723186Y-11997312D01*
X6723186Y-11997312D02*
X6723186Y-11825884D01*
X6980329Y-12025884D02*
X6980329Y-11825884D01*
X6980329Y-11825884D02*
X7046996Y-11968741D01*
X7046996Y-11968741D02*
X7113662Y-11825884D01*
X7113662Y-11825884D02*
X7113662Y-12025884D01*
X7294615Y-12025884D02*
X7294615Y-11921122D01*
X7294615Y-11921122D02*
X7285091Y-11902074D01*
X7285091Y-11902074D02*
X7266043Y-11892550D01*
X7266043Y-11892550D02*
X7227948Y-11892550D01*
X7227948Y-11892550D02*
X7208901Y-11902074D01*
X7294615Y-12016360D02*
X7275567Y-12025884D01*
X7275567Y-12025884D02*
X7227948Y-12025884D01*
X7227948Y-12025884D02*
X7208901Y-12016360D01*
X7208901Y-12016360D02*
X7199377Y-11997312D01*
X7199377Y-11997312D02*
X7199377Y-11978265D01*
X7199377Y-11978265D02*
X7208901Y-11959217D01*
X7208901Y-11959217D02*
X7227948Y-11949693D01*
X7227948Y-11949693D02*
X7275567Y-11949693D01*
X7275567Y-11949693D02*
X7294615Y-11940169D01*
X7389853Y-11892550D02*
X7389853Y-12092550D01*
X7389853Y-11902074D02*
X7408901Y-11892550D01*
X7408901Y-11892550D02*
X7446996Y-11892550D01*
X7446996Y-11892550D02*
X7466043Y-11902074D01*
X7466043Y-11902074D02*
X7475567Y-11911598D01*
X7475567Y-11911598D02*
X7485091Y-11930646D01*
X7485091Y-11930646D02*
X7485091Y-11987788D01*
X7485091Y-11987788D02*
X7475567Y-12006836D01*
X7475567Y-12006836D02*
X7466043Y-12016360D01*
X7466043Y-12016360D02*
X7446996Y-12025884D01*
X7446996Y-12025884D02*
X7408901Y-12025884D01*
X7408901Y-12025884D02*
X7389853Y-12016360D01*
X7570805Y-12006836D02*
X7580329Y-12016360D01*
X7580329Y-12016360D02*
X7570805Y-12025884D01*
X7570805Y-12025884D02*
X7561282Y-12016360D01*
X7561282Y-12016360D02*
X7570805Y-12006836D01*
X7570805Y-12006836D02*
X7570805Y-12025884D01*
X7570805Y-11902074D02*
X7580329Y-11911598D01*
X7580329Y-11911598D02*
X7570805Y-11921122D01*
X7570805Y-11921122D02*
X7561282Y-11911598D01*
X7561282Y-11911598D02*
X7570805Y-11902074D01*
X7570805Y-11902074D02*
X7570805Y-11921122D01*
D10*
X5858600Y-12314400D02*
X5938600Y-12394400D01*
X5938600Y-12314400D02*
X5858600Y-12394400D01*
D11*
X6237472Y-12245884D02*
X6256520Y-12245884D01*
X6256520Y-12245884D02*
X6275567Y-12255408D01*
X6275567Y-12255408D02*
X6285091Y-12264931D01*
X6285091Y-12264931D02*
X6294615Y-12283979D01*
X6294615Y-12283979D02*
X6304139Y-12322074D01*
X6304139Y-12322074D02*
X6304139Y-12369693D01*
X6304139Y-12369693D02*
X6294615Y-12407788D01*
X6294615Y-12407788D02*
X6285091Y-12426836D01*
X6285091Y-12426836D02*
X6275567Y-12436360D01*
X6275567Y-12436360D02*
X6256520Y-12445884D01*
X6256520Y-12445884D02*
X6237472Y-12445884D01*
X6237472Y-12445884D02*
X6218424Y-12436360D01*
X6218424Y-12436360D02*
X6208901Y-12426836D01*
X6208901Y-12426836D02*
X6199377Y-12407788D01*
X6199377Y-12407788D02*
X6189853Y-12369693D01*
X6189853Y-12369693D02*
X6189853Y-12322074D01*
X6189853Y-12322074D02*
X6199377Y-12283979D01*
X6199377Y-12283979D02*
X6208901Y-12264931D01*
X6208901Y-12264931D02*
X6218424Y-12255408D01*
X6218424Y-12255408D02*
X6237472Y-12245884D01*
X6389853Y-12426836D02*
X6399377Y-12436360D01*
X6399377Y-12436360D02*
X6389853Y-12445884D01*
X6389853Y-12445884D02*
X6380329Y-12436360D01*
X6380329Y-12436360D02*
X6389853Y-12426836D01*
X6389853Y-12426836D02*
X6389853Y-12445884D01*
X6513662Y-12331598D02*
X6494615Y-12322074D01*
X6494615Y-12322074D02*
X6485091Y-12312550D01*
X6485091Y-12312550D02*
X6475567Y-12293503D01*
X6475567Y-12293503D02*
X6475567Y-12283979D01*
X6475567Y-12283979D02*
X6485091Y-12264931D01*
X6485091Y-12264931D02*
X6494615Y-12255408D01*
X6494615Y-12255408D02*
X6513662Y-12245884D01*
X6513662Y-12245884D02*
X6551758Y-12245884D01*
X6551758Y-12245884D02*
X6570805Y-12255408D01*
X6570805Y-12255408D02*
X6580329Y-12264931D01*
X6580329Y-12264931D02*
X6589853Y-12283979D01*
X6589853Y-12283979D02*
X6589853Y-12293503D01*
X6589853Y-12293503D02*
X6580329Y-12312550D01*
X6580329Y-12312550D02*
X6570805Y-12322074D01*
X6570805Y-12322074D02*
X6551758Y-12331598D01*
X6551758Y-12331598D02*
X6513662Y-12331598D01*
X6513662Y-12331598D02*
X6494615Y-12341122D01*
X6494615Y-12341122D02*
X6485091Y-12350646D01*
X6485091Y-12350646D02*
X6475567Y-12369693D01*
X6475567Y-12369693D02*
X6475567Y-12407788D01*
X6475567Y-12407788D02*
X6485091Y-12426836D01*
X6485091Y-12426836D02*
X6494615Y-12436360D01*
X6494615Y-12436360D02*
X6513662Y-12445884D01*
X6513662Y-12445884D02*
X6551758Y-12445884D01*
X6551758Y-12445884D02*
X6570805Y-12436360D01*
X6570805Y-12436360D02*
X6580329Y-12426836D01*
X6580329Y-12426836D02*
X6589853Y-12407788D01*
X6589853Y-12407788D02*
X6589853Y-12369693D01*
X6589853Y-12369693D02*
X6580329Y-12350646D01*
X6580329Y-12350646D02*
X6570805Y-12341122D01*
X6570805Y-12341122D02*
X6551758Y-12331598D01*
X6713662Y-12245884D02*
X6732710Y-12245884D01*
X6732710Y-12245884D02*
X6751758Y-12255408D01*
X6751758Y-12255408D02*
X6761282Y-12264931D01*
X6761282Y-12264931D02*
X6770805Y-12283979D01*
X6770805Y-12283979D02*
X6780329Y-12322074D01*
X6780329Y-12322074D02*
X6780329Y-12369693D01*
X6780329Y-12369693D02*
X6770805Y-12407788D01*
X6770805Y-12407788D02*
X6761282Y-12426836D01*
X6761282Y-12426836D02*
X6751758Y-12436360D01*
X6751758Y-12436360D02*
X6732710Y-12445884D01*
X6732710Y-12445884D02*
X6713662Y-12445884D01*
X6713662Y-12445884D02*
X6694615Y-12436360D01*
X6694615Y-12436360D02*
X6685091Y-12426836D01*
X6685091Y-12426836D02*
X6675567Y-12407788D01*
X6675567Y-12407788D02*
X6666043Y-12369693D01*
X6666043Y-12369693D02*
X6666043Y-12322074D01*
X6666043Y-12322074D02*
X6675567Y-12283979D01*
X6675567Y-12283979D02*
X6685091Y-12264931D01*
X6685091Y-12264931D02*
X6694615Y-12255408D01*
X6694615Y-12255408D02*
X6713662Y-12245884D01*
X6904139Y-12245884D02*
X6923186Y-12245884D01*
X6923186Y-12245884D02*
X6942234Y-12255408D01*
X6942234Y-12255408D02*
X6951758Y-12264931D01*
X6951758Y-12264931D02*
X6961282Y-12283979D01*
X6961282Y-12283979D02*
X6970805Y-12322074D01*
X6970805Y-12322074D02*
X6970805Y-12369693D01*
X6970805Y-12369693D02*
X6961282Y-12407788D01*
X6961282Y-12407788D02*
X6951758Y-12426836D01*
X6951758Y-12426836D02*
X6942234Y-12436360D01*
X6942234Y-12436360D02*
X6923186Y-12445884D01*
X6923186Y-12445884D02*
X6904139Y-12445884D01*
X6904139Y-12445884D02*
X6885091Y-12436360D01*
X6885091Y-12436360D02*
X6875567Y-12426836D01*
X6875567Y-12426836D02*
X6866043Y-12407788D01*
X6866043Y-12407788D02*
X6856520Y-12369693D01*
X6856520Y-12369693D02*
X6856520Y-12322074D01*
X6856520Y-12322074D02*
X6866043Y-12283979D01*
X6866043Y-12283979D02*
X6875567Y-12264931D01*
X6875567Y-12264931D02*
X6885091Y-12255408D01*
X6885091Y-12255408D02*
X6904139Y-12245884D01*
X7056520Y-12445884D02*
X7056520Y-12312550D01*
X7056520Y-12331598D02*
X7066043Y-12322074D01*
X7066043Y-12322074D02*
X7085091Y-12312550D01*
X7085091Y-12312550D02*
X7113663Y-12312550D01*
X7113663Y-12312550D02*
X7132710Y-12322074D01*
X7132710Y-12322074D02*
X7142234Y-12341122D01*
X7142234Y-12341122D02*
X7142234Y-12445884D01*
X7142234Y-12341122D02*
X7151758Y-12322074D01*
X7151758Y-12322074D02*
X7170805Y-12312550D01*
X7170805Y-12312550D02*
X7199377Y-12312550D01*
X7199377Y-12312550D02*
X7218424Y-12322074D01*
X7218424Y-12322074D02*
X7227948Y-12341122D01*
X7227948Y-12341122D02*
X7227948Y-12445884D01*
X7323186Y-12445884D02*
X7323186Y-12312550D01*
X7323186Y-12331598D02*
X7332710Y-12322074D01*
X7332710Y-12322074D02*
X7351758Y-12312550D01*
X7351758Y-12312550D02*
X7380329Y-12312550D01*
X7380329Y-12312550D02*
X7399377Y-12322074D01*
X7399377Y-12322074D02*
X7408901Y-12341122D01*
X7408901Y-12341122D02*
X7408901Y-12445884D01*
X7408901Y-12341122D02*
X7418424Y-12322074D01*
X7418424Y-12322074D02*
X7437472Y-12312550D01*
X7437472Y-12312550D02*
X7466043Y-12312550D01*
X7466043Y-12312550D02*
X7485091Y-12322074D01*
X7485091Y-12322074D02*
X7494615Y-12341122D01*
X7494615Y-12341122D02*
X7494615Y-12445884D01*
X7885091Y-12236360D02*
X7713663Y-12493503D01*
X8142234Y-12245884D02*
X8161282Y-12245884D01*
X8161282Y-12245884D02*
X8180329Y-12255408D01*
X8180329Y-12255408D02*
X8189853Y-12264931D01*
X8189853Y-12264931D02*
X8199377Y-12283979D01*
X8199377Y-12283979D02*
X8208901Y-12322074D01*
X8208901Y-12322074D02*
X8208901Y-12369693D01*
X8208901Y-12369693D02*
X8199377Y-12407788D01*
X8199377Y-12407788D02*
X8189853Y-12426836D01*
X8189853Y-12426836D02*
X8180329Y-12436360D01*
X8180329Y-12436360D02*
X8161282Y-12445884D01*
X8161282Y-12445884D02*
X8142234Y-12445884D01*
X8142234Y-12445884D02*
X8123186Y-12436360D01*
X8123186Y-12436360D02*
X8113663Y-12426836D01*
X8113663Y-12426836D02*
X8104139Y-12407788D01*
X8104139Y-12407788D02*
X8094615Y-12369693D01*
X8094615Y-12369693D02*
X8094615Y-12322074D01*
X8094615Y-12322074D02*
X8104139Y-12283979D01*
X8104139Y-12283979D02*
X8113663Y-12264931D01*
X8113663Y-12264931D02*
X8123186Y-12255408D01*
X8123186Y-12255408D02*
X8142234Y-12245884D01*
X8294615Y-12426836D02*
X8304139Y-12436360D01*
X8304139Y-12436360D02*
X8294615Y-12445884D01*
X8294615Y-12445884D02*
X8285091Y-12436360D01*
X8285091Y-12436360D02*
X8294615Y-12426836D01*
X8294615Y-12426836D02*
X8294615Y-12445884D01*
X8427948Y-12245884D02*
X8446996Y-12245884D01*
X8446996Y-12245884D02*
X8466044Y-12255408D01*
X8466044Y-12255408D02*
X8475568Y-12264931D01*
X8475568Y-12264931D02*
X8485091Y-12283979D01*
X8485091Y-12283979D02*
X8494615Y-12322074D01*
X8494615Y-12322074D02*
X8494615Y-12369693D01*
X8494615Y-12369693D02*
X8485091Y-12407788D01*
X8485091Y-12407788D02*
X8475568Y-12426836D01*
X8475568Y-12426836D02*
X8466044Y-12436360D01*
X8466044Y-12436360D02*
X8446996Y-12445884D01*
X8446996Y-12445884D02*
X8427948Y-12445884D01*
X8427948Y-12445884D02*
X8408901Y-12436360D01*
X8408901Y-12436360D02*
X8399377Y-12426836D01*
X8399377Y-12426836D02*
X8389853Y-12407788D01*
X8389853Y-12407788D02*
X8380329Y-12369693D01*
X8380329Y-12369693D02*
X8380329Y-12322074D01*
X8380329Y-12322074D02*
X8389853Y-12283979D01*
X8389853Y-12283979D02*
X8399377Y-12264931D01*
X8399377Y-12264931D02*
X8408901Y-12255408D01*
X8408901Y-12255408D02*
X8427948Y-12245884D01*
X8561282Y-12245884D02*
X8685091Y-12245884D01*
X8685091Y-12245884D02*
X8618425Y-12322074D01*
X8618425Y-12322074D02*
X8646996Y-12322074D01*
X8646996Y-12322074D02*
X8666044Y-12331598D01*
X8666044Y-12331598D02*
X8675568Y-12341122D01*
X8675568Y-12341122D02*
X8685091Y-12360169D01*
X8685091Y-12360169D02*
X8685091Y-12407788D01*
X8685091Y-12407788D02*
X8675568Y-12426836D01*
X8675568Y-12426836D02*
X8666044Y-12436360D01*
X8666044Y-12436360D02*
X8646996Y-12445884D01*
X8646996Y-12445884D02*
X8589853Y-12445884D01*
X8589853Y-12445884D02*
X8570806Y-12436360D01*
X8570806Y-12436360D02*
X8561282Y-12426836D01*
X8875568Y-12445884D02*
X8761282Y-12445884D01*
X8818425Y-12445884D02*
X8818425Y-12245884D01*
X8818425Y-12245884D02*
X8799377Y-12274455D01*
X8799377Y-12274455D02*
X8780329Y-12293503D01*
X8780329Y-12293503D02*
X8761282Y-12303027D01*
X9056520Y-12245884D02*
X8961282Y-12245884D01*
X8961282Y-12245884D02*
X8951758Y-12341122D01*
X8951758Y-12341122D02*
X8961282Y-12331598D01*
X8961282Y-12331598D02*
X8980329Y-12322074D01*
X8980329Y-12322074D02*
X9027949Y-12322074D01*
X9027949Y-12322074D02*
X9046996Y-12331598D01*
X9046996Y-12331598D02*
X9056520Y-12341122D01*
X9056520Y-12341122D02*
X9066044Y-12360169D01*
X9066044Y-12360169D02*
X9066044Y-12407788D01*
X9066044Y-12407788D02*
X9056520Y-12426836D01*
X9056520Y-12426836D02*
X9046996Y-12436360D01*
X9046996Y-12436360D02*
X9027949Y-12445884D01*
X9027949Y-12445884D02*
X8980329Y-12445884D01*
X8980329Y-12445884D02*
X8961282Y-12436360D01*
X8961282Y-12436360D02*
X8951758Y-12426836D01*
X9142234Y-12245884D02*
X9142234Y-12283979D01*
X9218425Y-12245884D02*
X9218425Y-12283979D01*
X9513663Y-12522074D02*
X9504139Y-12512550D01*
X9504139Y-12512550D02*
X9485091Y-12483979D01*
X9485091Y-12483979D02*
X9475568Y-12464931D01*
X9475568Y-12464931D02*
X9466044Y-12436360D01*
X9466044Y-12436360D02*
X9456520Y-12388741D01*
X9456520Y-12388741D02*
X9456520Y-12350646D01*
X9456520Y-12350646D02*
X9466044Y-12303027D01*
X9466044Y-12303027D02*
X9475568Y-12274455D01*
X9475568Y-12274455D02*
X9485091Y-12255408D01*
X9485091Y-12255408D02*
X9504139Y-12226836D01*
X9504139Y-12226836D02*
X9513663Y-12217312D01*
X9694615Y-12445884D02*
X9580330Y-12445884D01*
X9637472Y-12445884D02*
X9637472Y-12245884D01*
X9637472Y-12245884D02*
X9618425Y-12274455D01*
X9618425Y-12274455D02*
X9599377Y-12293503D01*
X9599377Y-12293503D02*
X9580330Y-12303027D01*
X9932711Y-12445884D02*
X9932711Y-12245884D01*
X10018425Y-12445884D02*
X10018425Y-12341122D01*
X10018425Y-12341122D02*
X10008901Y-12322074D01*
X10008901Y-12322074D02*
X9989853Y-12312550D01*
X9989853Y-12312550D02*
X9961282Y-12312550D01*
X9961282Y-12312550D02*
X9942234Y-12322074D01*
X9942234Y-12322074D02*
X9932711Y-12331598D01*
X10142234Y-12445884D02*
X10123187Y-12436360D01*
X10123187Y-12436360D02*
X10113663Y-12426836D01*
X10113663Y-12426836D02*
X10104139Y-12407788D01*
X10104139Y-12407788D02*
X10104139Y-12350646D01*
X10104139Y-12350646D02*
X10113663Y-12331598D01*
X10113663Y-12331598D02*
X10123187Y-12322074D01*
X10123187Y-12322074D02*
X10142234Y-12312550D01*
X10142234Y-12312550D02*
X10170806Y-12312550D01*
X10170806Y-12312550D02*
X10189853Y-12322074D01*
X10189853Y-12322074D02*
X10199377Y-12331598D01*
X10199377Y-12331598D02*
X10208901Y-12350646D01*
X10208901Y-12350646D02*
X10208901Y-12407788D01*
X10208901Y-12407788D02*
X10199377Y-12426836D01*
X10199377Y-12426836D02*
X10189853Y-12436360D01*
X10189853Y-12436360D02*
X10170806Y-12445884D01*
X10170806Y-12445884D02*
X10142234Y-12445884D01*
X10323187Y-12445884D02*
X10304139Y-12436360D01*
X10304139Y-12436360D02*
X10294615Y-12417312D01*
X10294615Y-12417312D02*
X10294615Y-12245884D01*
X10475568Y-12436360D02*
X10456520Y-12445884D01*
X10456520Y-12445884D02*
X10418425Y-12445884D01*
X10418425Y-12445884D02*
X10399377Y-12436360D01*
X10399377Y-12436360D02*
X10389853Y-12417312D01*
X10389853Y-12417312D02*
X10389853Y-12341122D01*
X10389853Y-12341122D02*
X10399377Y-12322074D01*
X10399377Y-12322074D02*
X10418425Y-12312550D01*
X10418425Y-12312550D02*
X10456520Y-12312550D01*
X10456520Y-12312550D02*
X10475568Y-12322074D01*
X10475568Y-12322074D02*
X10485092Y-12341122D01*
X10485092Y-12341122D02*
X10485092Y-12360169D01*
X10485092Y-12360169D02*
X10389853Y-12379217D01*
X10551758Y-12522074D02*
X10561282Y-12512550D01*
X10561282Y-12512550D02*
X10580330Y-12483979D01*
X10580330Y-12483979D02*
X10589853Y-12464931D01*
X10589853Y-12464931D02*
X10599377Y-12436360D01*
X10599377Y-12436360D02*
X10608901Y-12388741D01*
X10608901Y-12388741D02*
X10608901Y-12350646D01*
X10608901Y-12350646D02*
X10599377Y-12303027D01*
X10599377Y-12303027D02*
X10589853Y-12274455D01*
X10589853Y-12274455D02*
X10580330Y-12255408D01*
X10580330Y-12255408D02*
X10561282Y-12226836D01*
X10561282Y-12226836D02*
X10551758Y-12217312D01*
X10913663Y-12522074D02*
X10904139Y-12512550D01*
X10904139Y-12512550D02*
X10885092Y-12483979D01*
X10885092Y-12483979D02*
X10875568Y-12464931D01*
X10875568Y-12464931D02*
X10866044Y-12436360D01*
X10866044Y-12436360D02*
X10856520Y-12388741D01*
X10856520Y-12388741D02*
X10856520Y-12350646D01*
X10856520Y-12350646D02*
X10866044Y-12303027D01*
X10866044Y-12303027D02*
X10875568Y-12274455D01*
X10875568Y-12274455D02*
X10885092Y-12255408D01*
X10885092Y-12255408D02*
X10904139Y-12226836D01*
X10904139Y-12226836D02*
X10913663Y-12217312D01*
X10989853Y-12312550D02*
X10989853Y-12445884D01*
X10989853Y-12331598D02*
X10999377Y-12322074D01*
X10999377Y-12322074D02*
X11018425Y-12312550D01*
X11018425Y-12312550D02*
X11046996Y-12312550D01*
X11046996Y-12312550D02*
X11066044Y-12322074D01*
X11066044Y-12322074D02*
X11075568Y-12341122D01*
X11075568Y-12341122D02*
X11075568Y-12445884D01*
X11199377Y-12445884D02*
X11180330Y-12436360D01*
X11180330Y-12436360D02*
X11170806Y-12426836D01*
X11170806Y-12426836D02*
X11161282Y-12407788D01*
X11161282Y-12407788D02*
X11161282Y-12350646D01*
X11161282Y-12350646D02*
X11170806Y-12331598D01*
X11170806Y-12331598D02*
X11180330Y-12322074D01*
X11180330Y-12322074D02*
X11199377Y-12312550D01*
X11199377Y-12312550D02*
X11227949Y-12312550D01*
X11227949Y-12312550D02*
X11246996Y-12322074D01*
X11246996Y-12322074D02*
X11256520Y-12331598D01*
X11256520Y-12331598D02*
X11266044Y-12350646D01*
X11266044Y-12350646D02*
X11266044Y-12407788D01*
X11266044Y-12407788D02*
X11256520Y-12426836D01*
X11256520Y-12426836D02*
X11246996Y-12436360D01*
X11246996Y-12436360D02*
X11227949Y-12445884D01*
X11227949Y-12445884D02*
X11199377Y-12445884D01*
X11323187Y-12312550D02*
X11399377Y-12312550D01*
X11351758Y-12245884D02*
X11351758Y-12417312D01*
X11351758Y-12417312D02*
X11361282Y-12436360D01*
X11361282Y-12436360D02*
X11380330Y-12445884D01*
X11380330Y-12445884D02*
X11399377Y-12445884D01*
X11618425Y-12312550D02*
X11618425Y-12512550D01*
X11618425Y-12322074D02*
X11637472Y-12312550D01*
X11637472Y-12312550D02*
X11675568Y-12312550D01*
X11675568Y-12312550D02*
X11694615Y-12322074D01*
X11694615Y-12322074D02*
X11704139Y-12331598D01*
X11704139Y-12331598D02*
X11713663Y-12350646D01*
X11713663Y-12350646D02*
X11713663Y-12407788D01*
X11713663Y-12407788D02*
X11704139Y-12426836D01*
X11704139Y-12426836D02*
X11694615Y-12436360D01*
X11694615Y-12436360D02*
X11675568Y-12445884D01*
X11675568Y-12445884D02*
X11637472Y-12445884D01*
X11637472Y-12445884D02*
X11618425Y-12436360D01*
X11827949Y-12445884D02*
X11808901Y-12436360D01*
X11808901Y-12436360D02*
X11799377Y-12417312D01*
X11799377Y-12417312D02*
X11799377Y-12245884D01*
X11989853Y-12445884D02*
X11989853Y-12341122D01*
X11989853Y-12341122D02*
X11980330Y-12322074D01*
X11980330Y-12322074D02*
X11961282Y-12312550D01*
X11961282Y-12312550D02*
X11923187Y-12312550D01*
X11923187Y-12312550D02*
X11904139Y-12322074D01*
X11989853Y-12436360D02*
X11970806Y-12445884D01*
X11970806Y-12445884D02*
X11923187Y-12445884D01*
X11923187Y-12445884D02*
X11904139Y-12436360D01*
X11904139Y-12436360D02*
X11894615Y-12417312D01*
X11894615Y-12417312D02*
X11894615Y-12398265D01*
X11894615Y-12398265D02*
X11904139Y-12379217D01*
X11904139Y-12379217D02*
X11923187Y-12369693D01*
X11923187Y-12369693D02*
X11970806Y-12369693D01*
X11970806Y-12369693D02*
X11989853Y-12360169D01*
X12056520Y-12312550D02*
X12132711Y-12312550D01*
X12085092Y-12245884D02*
X12085092Y-12417312D01*
X12085092Y-12417312D02*
X12094615Y-12436360D01*
X12094615Y-12436360D02*
X12113663Y-12445884D01*
X12113663Y-12445884D02*
X12132711Y-12445884D01*
X12275568Y-12436360D02*
X12256520Y-12445884D01*
X12256520Y-12445884D02*
X12218425Y-12445884D01*
X12218425Y-12445884D02*
X12199377Y-12436360D01*
X12199377Y-12436360D02*
X12189853Y-12417312D01*
X12189853Y-12417312D02*
X12189853Y-12341122D01*
X12189853Y-12341122D02*
X12199377Y-12322074D01*
X12199377Y-12322074D02*
X12218425Y-12312550D01*
X12218425Y-12312550D02*
X12256520Y-12312550D01*
X12256520Y-12312550D02*
X12275568Y-12322074D01*
X12275568Y-12322074D02*
X12285092Y-12341122D01*
X12285092Y-12341122D02*
X12285092Y-12360169D01*
X12285092Y-12360169D02*
X12189853Y-12379217D01*
X12456520Y-12445884D02*
X12456520Y-12245884D01*
X12456520Y-12436360D02*
X12437473Y-12445884D01*
X12437473Y-12445884D02*
X12399377Y-12445884D01*
X12399377Y-12445884D02*
X12380330Y-12436360D01*
X12380330Y-12436360D02*
X12370806Y-12426836D01*
X12370806Y-12426836D02*
X12361282Y-12407788D01*
X12361282Y-12407788D02*
X12361282Y-12350646D01*
X12361282Y-12350646D02*
X12370806Y-12331598D01*
X12370806Y-12331598D02*
X12380330Y-12322074D01*
X12380330Y-12322074D02*
X12399377Y-12312550D01*
X12399377Y-12312550D02*
X12437473Y-12312550D01*
X12437473Y-12312550D02*
X12456520Y-12322074D01*
X12532711Y-12522074D02*
X12542234Y-12512550D01*
X12542234Y-12512550D02*
X12561282Y-12483979D01*
X12561282Y-12483979D02*
X12570806Y-12464931D01*
X12570806Y-12464931D02*
X12580330Y-12436360D01*
X12580330Y-12436360D02*
X12589853Y-12388741D01*
X12589853Y-12388741D02*
X12589853Y-12350646D01*
X12589853Y-12350646D02*
X12580330Y-12303027D01*
X12580330Y-12303027D02*
X12570806Y-12274455D01*
X12570806Y-12274455D02*
X12561282Y-12255408D01*
X12561282Y-12255408D02*
X12542234Y-12226836D01*
X12542234Y-12226836D02*
X12532711Y-12217312D01*
D10*
X5938600Y-12618400D02*
G75*
G03*
X5843600Y-12618400I-47500J0D01*
G01*
X5843600Y-12618400D02*
G75*
G03*
X5938600Y-12618400I47500J0D01*
G01*
D11*
X6237472Y-12509884D02*
X6256520Y-12509884D01*
X6256520Y-12509884D02*
X6275567Y-12519408D01*
X6275567Y-12519408D02*
X6285091Y-12528931D01*
X6285091Y-12528931D02*
X6294615Y-12547979D01*
X6294615Y-12547979D02*
X6304139Y-12586074D01*
X6304139Y-12586074D02*
X6304139Y-12633693D01*
X6304139Y-12633693D02*
X6294615Y-12671788D01*
X6294615Y-12671788D02*
X6285091Y-12690836D01*
X6285091Y-12690836D02*
X6275567Y-12700360D01*
X6275567Y-12700360D02*
X6256520Y-12709884D01*
X6256520Y-12709884D02*
X6237472Y-12709884D01*
X6237472Y-12709884D02*
X6218424Y-12700360D01*
X6218424Y-12700360D02*
X6208901Y-12690836D01*
X6208901Y-12690836D02*
X6199377Y-12671788D01*
X6199377Y-12671788D02*
X6189853Y-12633693D01*
X6189853Y-12633693D02*
X6189853Y-12586074D01*
X6189853Y-12586074D02*
X6199377Y-12547979D01*
X6199377Y-12547979D02*
X6208901Y-12528931D01*
X6208901Y-12528931D02*
X6218424Y-12519408D01*
X6218424Y-12519408D02*
X6237472Y-12509884D01*
X6389853Y-12690836D02*
X6399377Y-12700360D01*
X6399377Y-12700360D02*
X6389853Y-12709884D01*
X6389853Y-12709884D02*
X6380329Y-12700360D01*
X6380329Y-12700360D02*
X6389853Y-12690836D01*
X6389853Y-12690836D02*
X6389853Y-12709884D01*
X6494615Y-12709884D02*
X6532710Y-12709884D01*
X6532710Y-12709884D02*
X6551758Y-12700360D01*
X6551758Y-12700360D02*
X6561282Y-12690836D01*
X6561282Y-12690836D02*
X6580329Y-12662265D01*
X6580329Y-12662265D02*
X6589853Y-12624169D01*
X6589853Y-12624169D02*
X6589853Y-12547979D01*
X6589853Y-12547979D02*
X6580329Y-12528931D01*
X6580329Y-12528931D02*
X6570805Y-12519408D01*
X6570805Y-12519408D02*
X6551758Y-12509884D01*
X6551758Y-12509884D02*
X6513662Y-12509884D01*
X6513662Y-12509884D02*
X6494615Y-12519408D01*
X6494615Y-12519408D02*
X6485091Y-12528931D01*
X6485091Y-12528931D02*
X6475567Y-12547979D01*
X6475567Y-12547979D02*
X6475567Y-12595598D01*
X6475567Y-12595598D02*
X6485091Y-12614646D01*
X6485091Y-12614646D02*
X6494615Y-12624169D01*
X6494615Y-12624169D02*
X6513662Y-12633693D01*
X6513662Y-12633693D02*
X6551758Y-12633693D01*
X6551758Y-12633693D02*
X6570805Y-12624169D01*
X6570805Y-12624169D02*
X6580329Y-12614646D01*
X6580329Y-12614646D02*
X6589853Y-12595598D01*
X6770805Y-12509884D02*
X6675567Y-12509884D01*
X6675567Y-12509884D02*
X6666043Y-12605122D01*
X6666043Y-12605122D02*
X6675567Y-12595598D01*
X6675567Y-12595598D02*
X6694615Y-12586074D01*
X6694615Y-12586074D02*
X6742234Y-12586074D01*
X6742234Y-12586074D02*
X6761282Y-12595598D01*
X6761282Y-12595598D02*
X6770805Y-12605122D01*
X6770805Y-12605122D02*
X6780329Y-12624169D01*
X6780329Y-12624169D02*
X6780329Y-12671788D01*
X6780329Y-12671788D02*
X6770805Y-12690836D01*
X6770805Y-12690836D02*
X6761282Y-12700360D01*
X6761282Y-12700360D02*
X6742234Y-12709884D01*
X6742234Y-12709884D02*
X6694615Y-12709884D01*
X6694615Y-12709884D02*
X6675567Y-12700360D01*
X6675567Y-12700360D02*
X6666043Y-12690836D01*
X6904139Y-12509884D02*
X6923186Y-12509884D01*
X6923186Y-12509884D02*
X6942234Y-12519408D01*
X6942234Y-12519408D02*
X6951758Y-12528931D01*
X6951758Y-12528931D02*
X6961282Y-12547979D01*
X6961282Y-12547979D02*
X6970805Y-12586074D01*
X6970805Y-12586074D02*
X6970805Y-12633693D01*
X6970805Y-12633693D02*
X6961282Y-12671788D01*
X6961282Y-12671788D02*
X6951758Y-12690836D01*
X6951758Y-12690836D02*
X6942234Y-12700360D01*
X6942234Y-12700360D02*
X6923186Y-12709884D01*
X6923186Y-12709884D02*
X6904139Y-12709884D01*
X6904139Y-12709884D02*
X6885091Y-12700360D01*
X6885091Y-12700360D02*
X6875567Y-12690836D01*
X6875567Y-12690836D02*
X6866043Y-12671788D01*
X6866043Y-12671788D02*
X6856520Y-12633693D01*
X6856520Y-12633693D02*
X6856520Y-12586074D01*
X6856520Y-12586074D02*
X6866043Y-12547979D01*
X6866043Y-12547979D02*
X6875567Y-12528931D01*
X6875567Y-12528931D02*
X6885091Y-12519408D01*
X6885091Y-12519408D02*
X6904139Y-12509884D01*
X7056520Y-12709884D02*
X7056520Y-12576550D01*
X7056520Y-12595598D02*
X7066043Y-12586074D01*
X7066043Y-12586074D02*
X7085091Y-12576550D01*
X7085091Y-12576550D02*
X7113663Y-12576550D01*
X7113663Y-12576550D02*
X7132710Y-12586074D01*
X7132710Y-12586074D02*
X7142234Y-12605122D01*
X7142234Y-12605122D02*
X7142234Y-12709884D01*
X7142234Y-12605122D02*
X7151758Y-12586074D01*
X7151758Y-12586074D02*
X7170805Y-12576550D01*
X7170805Y-12576550D02*
X7199377Y-12576550D01*
X7199377Y-12576550D02*
X7218424Y-12586074D01*
X7218424Y-12586074D02*
X7227948Y-12605122D01*
X7227948Y-12605122D02*
X7227948Y-12709884D01*
X7323186Y-12709884D02*
X7323186Y-12576550D01*
X7323186Y-12595598D02*
X7332710Y-12586074D01*
X7332710Y-12586074D02*
X7351758Y-12576550D01*
X7351758Y-12576550D02*
X7380329Y-12576550D01*
X7380329Y-12576550D02*
X7399377Y-12586074D01*
X7399377Y-12586074D02*
X7408901Y-12605122D01*
X7408901Y-12605122D02*
X7408901Y-12709884D01*
X7408901Y-12605122D02*
X7418424Y-12586074D01*
X7418424Y-12586074D02*
X7437472Y-12576550D01*
X7437472Y-12576550D02*
X7466043Y-12576550D01*
X7466043Y-12576550D02*
X7485091Y-12586074D01*
X7485091Y-12586074D02*
X7494615Y-12605122D01*
X7494615Y-12605122D02*
X7494615Y-12709884D01*
X7885091Y-12500360D02*
X7713663Y-12757503D01*
X8142234Y-12509884D02*
X8161282Y-12509884D01*
X8161282Y-12509884D02*
X8180329Y-12519408D01*
X8180329Y-12519408D02*
X8189853Y-12528931D01*
X8189853Y-12528931D02*
X8199377Y-12547979D01*
X8199377Y-12547979D02*
X8208901Y-12586074D01*
X8208901Y-12586074D02*
X8208901Y-12633693D01*
X8208901Y-12633693D02*
X8199377Y-12671788D01*
X8199377Y-12671788D02*
X8189853Y-12690836D01*
X8189853Y-12690836D02*
X8180329Y-12700360D01*
X8180329Y-12700360D02*
X8161282Y-12709884D01*
X8161282Y-12709884D02*
X8142234Y-12709884D01*
X8142234Y-12709884D02*
X8123186Y-12700360D01*
X8123186Y-12700360D02*
X8113663Y-12690836D01*
X8113663Y-12690836D02*
X8104139Y-12671788D01*
X8104139Y-12671788D02*
X8094615Y-12633693D01*
X8094615Y-12633693D02*
X8094615Y-12586074D01*
X8094615Y-12586074D02*
X8104139Y-12547979D01*
X8104139Y-12547979D02*
X8113663Y-12528931D01*
X8113663Y-12528931D02*
X8123186Y-12519408D01*
X8123186Y-12519408D02*
X8142234Y-12509884D01*
X8294615Y-12690836D02*
X8304139Y-12700360D01*
X8304139Y-12700360D02*
X8294615Y-12709884D01*
X8294615Y-12709884D02*
X8285091Y-12700360D01*
X8285091Y-12700360D02*
X8294615Y-12690836D01*
X8294615Y-12690836D02*
X8294615Y-12709884D01*
X8427948Y-12509884D02*
X8446996Y-12509884D01*
X8446996Y-12509884D02*
X8466044Y-12519408D01*
X8466044Y-12519408D02*
X8475568Y-12528931D01*
X8475568Y-12528931D02*
X8485091Y-12547979D01*
X8485091Y-12547979D02*
X8494615Y-12586074D01*
X8494615Y-12586074D02*
X8494615Y-12633693D01*
X8494615Y-12633693D02*
X8485091Y-12671788D01*
X8485091Y-12671788D02*
X8475568Y-12690836D01*
X8475568Y-12690836D02*
X8466044Y-12700360D01*
X8466044Y-12700360D02*
X8446996Y-12709884D01*
X8446996Y-12709884D02*
X8427948Y-12709884D01*
X8427948Y-12709884D02*
X8408901Y-12700360D01*
X8408901Y-12700360D02*
X8399377Y-12690836D01*
X8399377Y-12690836D02*
X8389853Y-12671788D01*
X8389853Y-12671788D02*
X8380329Y-12633693D01*
X8380329Y-12633693D02*
X8380329Y-12586074D01*
X8380329Y-12586074D02*
X8389853Y-12547979D01*
X8389853Y-12547979D02*
X8399377Y-12528931D01*
X8399377Y-12528931D02*
X8408901Y-12519408D01*
X8408901Y-12519408D02*
X8427948Y-12509884D01*
X8561282Y-12509884D02*
X8685091Y-12509884D01*
X8685091Y-12509884D02*
X8618425Y-12586074D01*
X8618425Y-12586074D02*
X8646996Y-12586074D01*
X8646996Y-12586074D02*
X8666044Y-12595598D01*
X8666044Y-12595598D02*
X8675568Y-12605122D01*
X8675568Y-12605122D02*
X8685091Y-12624169D01*
X8685091Y-12624169D02*
X8685091Y-12671788D01*
X8685091Y-12671788D02*
X8675568Y-12690836D01*
X8675568Y-12690836D02*
X8666044Y-12700360D01*
X8666044Y-12700360D02*
X8646996Y-12709884D01*
X8646996Y-12709884D02*
X8589853Y-12709884D01*
X8589853Y-12709884D02*
X8570806Y-12700360D01*
X8570806Y-12700360D02*
X8561282Y-12690836D01*
X8751758Y-12509884D02*
X8885091Y-12509884D01*
X8885091Y-12509884D02*
X8799377Y-12709884D01*
X9046996Y-12576550D02*
X9046996Y-12709884D01*
X8999377Y-12500360D02*
X8951758Y-12643217D01*
X8951758Y-12643217D02*
X9075568Y-12643217D01*
X9142234Y-12509884D02*
X9142234Y-12547979D01*
X9218425Y-12509884D02*
X9218425Y-12547979D01*
X9513663Y-12786074D02*
X9504139Y-12776550D01*
X9504139Y-12776550D02*
X9485091Y-12747979D01*
X9485091Y-12747979D02*
X9475568Y-12728931D01*
X9475568Y-12728931D02*
X9466044Y-12700360D01*
X9466044Y-12700360D02*
X9456520Y-12652741D01*
X9456520Y-12652741D02*
X9456520Y-12614646D01*
X9456520Y-12614646D02*
X9466044Y-12567027D01*
X9466044Y-12567027D02*
X9475568Y-12538455D01*
X9475568Y-12538455D02*
X9485091Y-12519408D01*
X9485091Y-12519408D02*
X9504139Y-12490836D01*
X9504139Y-12490836D02*
X9513663Y-12481312D01*
X9580330Y-12528931D02*
X9589853Y-12519408D01*
X9589853Y-12519408D02*
X9608901Y-12509884D01*
X9608901Y-12509884D02*
X9656520Y-12509884D01*
X9656520Y-12509884D02*
X9675568Y-12519408D01*
X9675568Y-12519408D02*
X9685091Y-12528931D01*
X9685091Y-12528931D02*
X9694615Y-12547979D01*
X9694615Y-12547979D02*
X9694615Y-12567027D01*
X9694615Y-12567027D02*
X9685091Y-12595598D01*
X9685091Y-12595598D02*
X9570806Y-12709884D01*
X9570806Y-12709884D02*
X9694615Y-12709884D01*
X9932711Y-12709884D02*
X9932711Y-12509884D01*
X10018425Y-12709884D02*
X10018425Y-12605122D01*
X10018425Y-12605122D02*
X10008901Y-12586074D01*
X10008901Y-12586074D02*
X9989853Y-12576550D01*
X9989853Y-12576550D02*
X9961282Y-12576550D01*
X9961282Y-12576550D02*
X9942234Y-12586074D01*
X9942234Y-12586074D02*
X9932711Y-12595598D01*
X10142234Y-12709884D02*
X10123187Y-12700360D01*
X10123187Y-12700360D02*
X10113663Y-12690836D01*
X10113663Y-12690836D02*
X10104139Y-12671788D01*
X10104139Y-12671788D02*
X10104139Y-12614646D01*
X10104139Y-12614646D02*
X10113663Y-12595598D01*
X10113663Y-12595598D02*
X10123187Y-12586074D01*
X10123187Y-12586074D02*
X10142234Y-12576550D01*
X10142234Y-12576550D02*
X10170806Y-12576550D01*
X10170806Y-12576550D02*
X10189853Y-12586074D01*
X10189853Y-12586074D02*
X10199377Y-12595598D01*
X10199377Y-12595598D02*
X10208901Y-12614646D01*
X10208901Y-12614646D02*
X10208901Y-12671788D01*
X10208901Y-12671788D02*
X10199377Y-12690836D01*
X10199377Y-12690836D02*
X10189853Y-12700360D01*
X10189853Y-12700360D02*
X10170806Y-12709884D01*
X10170806Y-12709884D02*
X10142234Y-12709884D01*
X10323187Y-12709884D02*
X10304139Y-12700360D01*
X10304139Y-12700360D02*
X10294615Y-12681312D01*
X10294615Y-12681312D02*
X10294615Y-12509884D01*
X10475568Y-12700360D02*
X10456520Y-12709884D01*
X10456520Y-12709884D02*
X10418425Y-12709884D01*
X10418425Y-12709884D02*
X10399377Y-12700360D01*
X10399377Y-12700360D02*
X10389853Y-12681312D01*
X10389853Y-12681312D02*
X10389853Y-12605122D01*
X10389853Y-12605122D02*
X10399377Y-12586074D01*
X10399377Y-12586074D02*
X10418425Y-12576550D01*
X10418425Y-12576550D02*
X10456520Y-12576550D01*
X10456520Y-12576550D02*
X10475568Y-12586074D01*
X10475568Y-12586074D02*
X10485092Y-12605122D01*
X10485092Y-12605122D02*
X10485092Y-12624169D01*
X10485092Y-12624169D02*
X10389853Y-12643217D01*
X10561282Y-12700360D02*
X10580330Y-12709884D01*
X10580330Y-12709884D02*
X10618425Y-12709884D01*
X10618425Y-12709884D02*
X10637473Y-12700360D01*
X10637473Y-12700360D02*
X10646996Y-12681312D01*
X10646996Y-12681312D02*
X10646996Y-12671788D01*
X10646996Y-12671788D02*
X10637473Y-12652741D01*
X10637473Y-12652741D02*
X10618425Y-12643217D01*
X10618425Y-12643217D02*
X10589853Y-12643217D01*
X10589853Y-12643217D02*
X10570806Y-12633693D01*
X10570806Y-12633693D02*
X10561282Y-12614646D01*
X10561282Y-12614646D02*
X10561282Y-12605122D01*
X10561282Y-12605122D02*
X10570806Y-12586074D01*
X10570806Y-12586074D02*
X10589853Y-12576550D01*
X10589853Y-12576550D02*
X10618425Y-12576550D01*
X10618425Y-12576550D02*
X10637473Y-12586074D01*
X10713663Y-12786074D02*
X10723187Y-12776550D01*
X10723187Y-12776550D02*
X10742234Y-12747979D01*
X10742234Y-12747979D02*
X10751758Y-12728931D01*
X10751758Y-12728931D02*
X10761282Y-12700360D01*
X10761282Y-12700360D02*
X10770806Y-12652741D01*
X10770806Y-12652741D02*
X10770806Y-12614646D01*
X10770806Y-12614646D02*
X10761282Y-12567027D01*
X10761282Y-12567027D02*
X10751758Y-12538455D01*
X10751758Y-12538455D02*
X10742234Y-12519408D01*
X10742234Y-12519408D02*
X10723187Y-12490836D01*
X10723187Y-12490836D02*
X10713663Y-12481312D01*
X11075568Y-12786074D02*
X11066044Y-12776550D01*
X11066044Y-12776550D02*
X11046996Y-12747979D01*
X11046996Y-12747979D02*
X11037473Y-12728931D01*
X11037473Y-12728931D02*
X11027949Y-12700360D01*
X11027949Y-12700360D02*
X11018425Y-12652741D01*
X11018425Y-12652741D02*
X11018425Y-12614646D01*
X11018425Y-12614646D02*
X11027949Y-12567027D01*
X11027949Y-12567027D02*
X11037473Y-12538455D01*
X11037473Y-12538455D02*
X11046996Y-12519408D01*
X11046996Y-12519408D02*
X11066044Y-12490836D01*
X11066044Y-12490836D02*
X11075568Y-12481312D01*
X11151758Y-12576550D02*
X11151758Y-12709884D01*
X11151758Y-12595598D02*
X11161282Y-12586074D01*
X11161282Y-12586074D02*
X11180330Y-12576550D01*
X11180330Y-12576550D02*
X11208901Y-12576550D01*
X11208901Y-12576550D02*
X11227949Y-12586074D01*
X11227949Y-12586074D02*
X11237472Y-12605122D01*
X11237472Y-12605122D02*
X11237472Y-12709884D01*
X11361282Y-12709884D02*
X11342234Y-12700360D01*
X11342234Y-12700360D02*
X11332711Y-12690836D01*
X11332711Y-12690836D02*
X11323187Y-12671788D01*
X11323187Y-12671788D02*
X11323187Y-12614646D01*
X11323187Y-12614646D02*
X11332711Y-12595598D01*
X11332711Y-12595598D02*
X11342234Y-12586074D01*
X11342234Y-12586074D02*
X11361282Y-12576550D01*
X11361282Y-12576550D02*
X11389853Y-12576550D01*
X11389853Y-12576550D02*
X11408901Y-12586074D01*
X11408901Y-12586074D02*
X11418425Y-12595598D01*
X11418425Y-12595598D02*
X11427949Y-12614646D01*
X11427949Y-12614646D02*
X11427949Y-12671788D01*
X11427949Y-12671788D02*
X11418425Y-12690836D01*
X11418425Y-12690836D02*
X11408901Y-12700360D01*
X11408901Y-12700360D02*
X11389853Y-12709884D01*
X11389853Y-12709884D02*
X11361282Y-12709884D01*
X11485092Y-12576550D02*
X11561282Y-12576550D01*
X11513663Y-12509884D02*
X11513663Y-12681312D01*
X11513663Y-12681312D02*
X11523187Y-12700360D01*
X11523187Y-12700360D02*
X11542234Y-12709884D01*
X11542234Y-12709884D02*
X11561282Y-12709884D01*
X11780330Y-12576550D02*
X11780330Y-12776550D01*
X11780330Y-12586074D02*
X11799377Y-12576550D01*
X11799377Y-12576550D02*
X11837473Y-12576550D01*
X11837473Y-12576550D02*
X11856520Y-12586074D01*
X11856520Y-12586074D02*
X11866044Y-12595598D01*
X11866044Y-12595598D02*
X11875568Y-12614646D01*
X11875568Y-12614646D02*
X11875568Y-12671788D01*
X11875568Y-12671788D02*
X11866044Y-12690836D01*
X11866044Y-12690836D02*
X11856520Y-12700360D01*
X11856520Y-12700360D02*
X11837473Y-12709884D01*
X11837473Y-12709884D02*
X11799377Y-12709884D01*
X11799377Y-12709884D02*
X11780330Y-12700360D01*
X11989853Y-12709884D02*
X11970806Y-12700360D01*
X11970806Y-12700360D02*
X11961282Y-12681312D01*
X11961282Y-12681312D02*
X11961282Y-12509884D01*
X12151758Y-12709884D02*
X12151758Y-12605122D01*
X12151758Y-12605122D02*
X12142234Y-12586074D01*
X12142234Y-12586074D02*
X12123187Y-12576550D01*
X12123187Y-12576550D02*
X12085092Y-12576550D01*
X12085092Y-12576550D02*
X12066044Y-12586074D01*
X12151758Y-12700360D02*
X12132711Y-12709884D01*
X12132711Y-12709884D02*
X12085092Y-12709884D01*
X12085092Y-12709884D02*
X12066044Y-12700360D01*
X12066044Y-12700360D02*
X12056520Y-12681312D01*
X12056520Y-12681312D02*
X12056520Y-12662265D01*
X12056520Y-12662265D02*
X12066044Y-12643217D01*
X12066044Y-12643217D02*
X12085092Y-12633693D01*
X12085092Y-12633693D02*
X12132711Y-12633693D01*
X12132711Y-12633693D02*
X12151758Y-12624169D01*
X12218425Y-12576550D02*
X12294615Y-12576550D01*
X12246996Y-12509884D02*
X12246996Y-12681312D01*
X12246996Y-12681312D02*
X12256520Y-12700360D01*
X12256520Y-12700360D02*
X12275568Y-12709884D01*
X12275568Y-12709884D02*
X12294615Y-12709884D01*
X12437473Y-12700360D02*
X12418425Y-12709884D01*
X12418425Y-12709884D02*
X12380330Y-12709884D01*
X12380330Y-12709884D02*
X12361282Y-12700360D01*
X12361282Y-12700360D02*
X12351758Y-12681312D01*
X12351758Y-12681312D02*
X12351758Y-12605122D01*
X12351758Y-12605122D02*
X12361282Y-12586074D01*
X12361282Y-12586074D02*
X12380330Y-12576550D01*
X12380330Y-12576550D02*
X12418425Y-12576550D01*
X12418425Y-12576550D02*
X12437473Y-12586074D01*
X12437473Y-12586074D02*
X12446996Y-12605122D01*
X12446996Y-12605122D02*
X12446996Y-12624169D01*
X12446996Y-12624169D02*
X12351758Y-12643217D01*
X12618425Y-12709884D02*
X12618425Y-12509884D01*
X12618425Y-12700360D02*
X12599377Y-12709884D01*
X12599377Y-12709884D02*
X12561282Y-12709884D01*
X12561282Y-12709884D02*
X12542234Y-12700360D01*
X12542234Y-12700360D02*
X12532711Y-12690836D01*
X12532711Y-12690836D02*
X12523187Y-12671788D01*
X12523187Y-12671788D02*
X12523187Y-12614646D01*
X12523187Y-12614646D02*
X12532711Y-12595598D01*
X12532711Y-12595598D02*
X12542234Y-12586074D01*
X12542234Y-12586074D02*
X12561282Y-12576550D01*
X12561282Y-12576550D02*
X12599377Y-12576550D01*
X12599377Y-12576550D02*
X12618425Y-12586074D01*
X12694615Y-12786074D02*
X12704139Y-12776550D01*
X12704139Y-12776550D02*
X12723187Y-12747979D01*
X12723187Y-12747979D02*
X12732711Y-12728931D01*
X12732711Y-12728931D02*
X12742234Y-12700360D01*
X12742234Y-12700360D02*
X12751758Y-12652741D01*
X12751758Y-12652741D02*
X12751758Y-12614646D01*
X12751758Y-12614646D02*
X12742234Y-12567027D01*
X12742234Y-12567027D02*
X12732711Y-12538455D01*
X12732711Y-12538455D02*
X12723187Y-12519408D01*
X12723187Y-12519408D02*
X12704139Y-12490836D01*
X12704139Y-12490836D02*
X12694615Y-12481312D01*
M02*
