%TF.GenerationSoftware,KiCad,Pcbnew,7.0.10*%
%TF.CreationDate,2024-02-19T12:28:25+05:30*%
%TF.ProjectId,ArduinoNano _Rudra_2021eeb1208,41726475-696e-46f4-9e61-6e6f205f5275,rev?*%
%TF.SameCoordinates,Original*%
%TF.FileFunction,Copper,L2,Inr*%
%TF.FilePolarity,Positive*%
%FSLAX46Y46*%
G04 Gerber Fmt 4.6, Leading zero omitted, Abs format (unit mm)*
G04 Created by KiCad (PCBNEW 7.0.10) date 2024-02-19 12:28:25*
%MOMM*%
%LPD*%
G01*
G04 APERTURE LIST*
%TA.AperFunction,ComponentPad*%
%ADD10R,1.700000X1.700000*%
%TD*%
%TA.AperFunction,ComponentPad*%
%ADD11O,1.700000X1.700000*%
%TD*%
%TA.AperFunction,ComponentPad*%
%ADD12C,1.500000*%
%TD*%
%TA.AperFunction,ViaPad*%
%ADD13C,0.800000*%
%TD*%
%TA.AperFunction,Conductor*%
%ADD14C,0.250000*%
%TD*%
G04 APERTURE END LIST*
D10*
%TO.N,/D12{slash}MISO*%
%TO.C,ICSP1*%
X103632000Y-108458000D03*
D11*
%TO.N,+5V*%
X101092000Y-108458000D03*
%TO.N,/D13{slash}SCK*%
X103632000Y-105918000D03*
%TO.N,/D11{slash}MOSI*%
X101092000Y-105918000D03*
%TO.N,/RST*%
X103632000Y-103378000D03*
%TO.N,GND*%
X101092000Y-103378000D03*
%TD*%
D12*
%TO.N,Net-(U1-(PCINT6{slash}XTAL1{slash}TOSC1)_PB6)*%
%TO.C,Y1*%
X83820000Y-108258000D03*
%TO.N,Net-(U1-(PCINT7{slash}XTAL2{slash}TOSC2)_PB7)*%
X83820000Y-103378000D03*
%TD*%
D11*
%TO.N,/D13{slash}SCK*%
%TO.C,J2*%
X64516000Y-114935000D03*
%TO.N,+3V3*%
X67056000Y-114935000D03*
%TO.N,/AREF*%
X69596000Y-114935000D03*
%TO.N,/A7*%
X72136000Y-114935000D03*
%TO.N,/A6*%
X74676000Y-114935000D03*
%TO.N,/A5*%
X77216000Y-114935000D03*
%TO.N,/A4*%
X79756000Y-114935000D03*
%TO.N,/A3*%
X82296000Y-114935000D03*
%TO.N,/A2*%
X84836000Y-114935000D03*
%TO.N,/A1*%
X87376000Y-114935000D03*
%TO.N,/A0*%
X89916000Y-114935000D03*
%TO.N,+5V*%
X92456000Y-114935000D03*
%TO.N,/RST*%
X94996000Y-114935000D03*
%TO.N,GND*%
X97536000Y-114935000D03*
D10*
%TO.N,VIN*%
X100076000Y-114935000D03*
%TD*%
D11*
%TO.N,/D12{slash}MISO*%
%TO.C,J4*%
X64516000Y-97155000D03*
%TO.N,/D11{slash}MOSI*%
X67056000Y-97155000D03*
%TO.N,/D10*%
X69596000Y-97155000D03*
%TO.N,/D9*%
X72136000Y-97155000D03*
%TO.N,/D8*%
X74676000Y-97155000D03*
%TO.N,/D7*%
X77216000Y-97155000D03*
%TO.N,/D6*%
X79756000Y-97155000D03*
%TO.N,/D5*%
X82296000Y-97155000D03*
%TO.N,/D4*%
X84836000Y-97155000D03*
%TO.N,/D3*%
X87376000Y-97155000D03*
%TO.N,/D2*%
X89916000Y-97155000D03*
%TO.N,GND*%
X92456000Y-97155000D03*
%TO.N,/RST*%
X94996000Y-97155000D03*
%TO.N,/D0{slash}RX*%
X97536000Y-97155000D03*
D10*
%TO.N,/D1{slash}TX*%
X100076000Y-97155000D03*
%TD*%
D13*
%TO.N,Net-(RX1-K)*%
X99406400Y-107099600D03*
%TO.N,Net-(TX1-K)*%
X93926900Y-102144400D03*
%TO.N,Net-(L1-A)*%
X92419200Y-104071500D03*
%TO.N,Net-(J7-D+)*%
X61028900Y-108637600D03*
%TO.N,Net-(J7-D-)*%
X67131400Y-103268000D03*
%TO.N,Net-(VREG1-A)*%
X88347500Y-101841400D03*
X63807700Y-105281700D03*
%TO.N,VUSB*%
X96102400Y-106436700D03*
X84082800Y-110059300D03*
X63480200Y-102573400D03*
%TO.N,Net-(USB1-CBUS0)*%
X85767100Y-106205600D03*
X97730600Y-110154400D03*
%TO.N,/TX*%
X77080300Y-103702300D03*
X98044000Y-99026800D03*
%TO.N,+3V3*%
X72257600Y-112937400D03*
X82004900Y-102431300D03*
%TO.N,Net-(USB1-DTR)*%
X71777800Y-109420700D03*
X91564700Y-107150300D03*
%TO.N,/RX*%
X76959000Y-105855300D03*
X88146600Y-100823300D03*
%TO.N,/D0{slash}RX*%
X75556700Y-104102100D03*
%TO.N,/A5*%
X75618900Y-103064900D03*
%TO.N,/A4*%
X78095800Y-104798600D03*
%TO.N,/A2*%
X86070700Y-108467000D03*
%TO.N,/A1*%
X82999900Y-105411200D03*
%TO.N,/D13{slash}SCK*%
X79765500Y-110228100D03*
%TO.N,/D12{slash}MISO*%
X77311200Y-107894500D03*
%TO.N,/D11{slash}MOSI*%
X75966700Y-107021100D03*
%TO.N,/D10*%
X75789500Y-112560500D03*
%TO.N,/AREF*%
X97544600Y-105169500D03*
%TO.N,/D9*%
X75352800Y-108072400D03*
%TO.N,/D7*%
X71684200Y-111006800D03*
%TO.N,/D6*%
X74804900Y-107169100D03*
%TO.N,/D5*%
X75255200Y-106194500D03*
%TO.N,/D3*%
X73422600Y-99391200D03*
%TO.N,Net-(U1-(PCINT7{slash}XTAL2{slash}TOSC2)_PB7)*%
X69246100Y-110011900D03*
%TO.N,+5C*%
X78047900Y-107072400D03*
X71674800Y-102083500D03*
%TO.N,Net-(U1-(PCINT6{slash}XTAL1{slash}TOSC1)_PB6)*%
X67187200Y-108581900D03*
%TO.N,GND*%
X69477600Y-102544500D03*
%TD*%
D14*
%TO.N,/RST*%
X102455100Y-103012200D02*
X102455100Y-103378000D01*
X101012500Y-101569600D02*
X102455100Y-103012200D01*
X99557700Y-101569600D02*
X101012500Y-101569600D01*
X96172900Y-98184800D02*
X99557700Y-101569600D01*
X96172900Y-97155000D02*
X96172900Y-98184800D01*
X94996000Y-97155000D02*
X96172900Y-97155000D01*
X103632000Y-103378000D02*
X102455100Y-103378000D01*
%TO.N,Net-(USB1-CBUS0)*%
X89715900Y-110154400D02*
X97730600Y-110154400D01*
X85767100Y-106205600D02*
X89715900Y-110154400D01*
%TO.N,+3V3*%
X81026000Y-103410200D02*
X82004900Y-102431300D01*
X81026000Y-115338200D02*
X81026000Y-103410200D01*
X80207800Y-116156400D02*
X81026000Y-115338200D01*
X76772300Y-116156400D02*
X80207800Y-116156400D01*
X75946000Y-115330100D02*
X76772300Y-116156400D01*
X75946000Y-114538000D02*
X75946000Y-115330100D01*
X74345400Y-112937400D02*
X75946000Y-114538000D01*
X72257600Y-112937400D02*
X74345400Y-112937400D01*
%TO.N,/A5*%
X77216000Y-114935000D02*
X77216000Y-113758100D01*
X76288300Y-103734300D02*
X75618900Y-103064900D01*
X76288300Y-105498100D02*
X76288300Y-103734300D01*
X76232100Y-105554300D02*
X76288300Y-105498100D01*
X76232100Y-106258500D02*
X76232100Y-105554300D01*
X76693600Y-106720000D02*
X76232100Y-106258500D01*
X76693600Y-107322200D02*
X76693600Y-106720000D01*
X76545600Y-107470200D02*
X76693600Y-107322200D01*
X76545600Y-113087700D02*
X76545600Y-107470200D01*
X77216000Y-113758100D02*
X76545600Y-113087700D01*
%TO.N,/A4*%
X79756000Y-114935000D02*
X79756000Y-113758100D01*
X78774800Y-105477600D02*
X78095800Y-104798600D01*
X78774800Y-112776900D02*
X78774800Y-105477600D01*
X79756000Y-113758100D02*
X78774800Y-112776900D01*
%TO.N,/A2*%
X86070700Y-112523400D02*
X86070700Y-108467000D01*
X84836000Y-113758100D02*
X86070700Y-112523400D01*
X84836000Y-114935000D02*
X84836000Y-113758100D01*
%TO.N,/A1*%
X84771300Y-107182600D02*
X82999900Y-105411200D01*
X85818300Y-107182600D02*
X84771300Y-107182600D01*
X87376000Y-108740300D02*
X85818300Y-107182600D01*
X87376000Y-114935000D02*
X87376000Y-108740300D01*
%TO.N,/D12{slash}MISO*%
X103632000Y-108458000D02*
X103632000Y-107281100D01*
X64516000Y-97155000D02*
X65692900Y-97155000D01*
X98066200Y-95954500D02*
X83472900Y-95954500D01*
X98899100Y-96787400D02*
X98066200Y-95954500D01*
X98899100Y-98140400D02*
X98899100Y-96787400D01*
X101876400Y-101117700D02*
X98899100Y-98140400D01*
X103041700Y-101117700D02*
X101876400Y-101117700D01*
X104850900Y-102926900D02*
X103041700Y-101117700D01*
X104850900Y-106430000D02*
X104850900Y-102926900D01*
X103999800Y-107281100D02*
X104850900Y-106430000D01*
X103632000Y-107281100D02*
X103999800Y-107281100D01*
X65692900Y-96853700D02*
X65692900Y-97155000D01*
X67045500Y-95501100D02*
X65692900Y-96853700D01*
X83019500Y-95501100D02*
X67045500Y-95501100D01*
X83472900Y-95954500D02*
X83019500Y-95501100D01*
X77311200Y-106759800D02*
X77311200Y-107894500D01*
X77750400Y-106320600D02*
X77311200Y-106759800D01*
X77750400Y-105481100D02*
X77750400Y-106320600D01*
X77358500Y-105089200D02*
X77750400Y-105481100D01*
X77358500Y-104487200D02*
X77358500Y-105089200D01*
X83472900Y-98372800D02*
X77358500Y-104487200D01*
X83472900Y-95954500D02*
X83472900Y-98372800D01*
%TO.N,/D10*%
X74962800Y-111733800D02*
X75789500Y-112560500D01*
X71372100Y-111733800D02*
X74962800Y-111733800D01*
X70282600Y-110644300D02*
X71372100Y-111733800D01*
X70282600Y-99018500D02*
X70282600Y-110644300D01*
X69596000Y-98331900D02*
X70282600Y-99018500D01*
X69596000Y-97155000D02*
X69596000Y-98331900D01*
%TO.N,/AREF*%
X69596000Y-114935000D02*
X70772900Y-114935000D01*
X97544600Y-108194800D02*
X97544600Y-105169500D01*
X98486100Y-109136300D02*
X97544600Y-108194800D01*
X98486100Y-110455500D02*
X98486100Y-109136300D01*
X98060300Y-110881300D02*
X98486100Y-110455500D01*
X92230300Y-110881300D02*
X98060300Y-110881300D01*
X88646000Y-114465600D02*
X92230300Y-110881300D01*
X88646000Y-115373300D02*
X88646000Y-114465600D01*
X87411000Y-116608300D02*
X88646000Y-115373300D01*
X72078400Y-116608300D02*
X87411000Y-116608300D01*
X70772900Y-115302800D02*
X72078400Y-116608300D01*
X70772900Y-114935000D02*
X70772900Y-115302800D01*
%TO.N,/D9*%
X72136000Y-97155000D02*
X72136000Y-98331900D01*
X75352800Y-108072300D02*
X75352800Y-108072400D01*
X74667200Y-108072300D02*
X75352800Y-108072300D01*
X72402100Y-105807200D02*
X74667200Y-108072300D01*
X72402100Y-98598000D02*
X72402100Y-105807200D01*
X72136000Y-98331900D02*
X72402100Y-98598000D01*
%TO.N,/D7*%
X77216000Y-97155000D02*
X76039100Y-97155000D01*
X70947400Y-110270000D02*
X71684200Y-111006800D01*
X70947400Y-96601200D02*
X70947400Y-110270000D01*
X71582400Y-95966200D02*
X70947400Y-96601200D01*
X75216100Y-95966200D02*
X71582400Y-95966200D01*
X76039100Y-96789200D02*
X75216100Y-95966200D01*
X76039100Y-97155000D02*
X76039100Y-96789200D01*
%TO.N,/D6*%
X74367300Y-106731500D02*
X74804900Y-107169100D01*
X74367300Y-102543700D02*
X74367300Y-106731500D01*
X78579100Y-98331900D02*
X74367300Y-102543700D01*
X79756000Y-98331900D02*
X78579100Y-98331900D01*
X79756000Y-97155000D02*
X79756000Y-98331900D01*
%TO.N,/D5*%
X82296000Y-97155000D02*
X81119100Y-97155000D01*
X74828500Y-105767800D02*
X75255200Y-106194500D01*
X74828500Y-102790800D02*
X74828500Y-105767800D01*
X75443600Y-102175700D02*
X74828500Y-102790800D01*
X76613300Y-102175700D02*
X75443600Y-102175700D01*
X81119100Y-97669900D02*
X76613300Y-102175700D01*
X81119100Y-97155000D02*
X81119100Y-97669900D01*
%TO.N,GND*%
X92456000Y-97155000D02*
X93632900Y-97155000D01*
X98669200Y-104196900D02*
X99488100Y-103378000D01*
X98669200Y-107476900D02*
X98669200Y-104196900D01*
X98968700Y-107776400D02*
X98669200Y-107476900D01*
X98968700Y-112325400D02*
X98968700Y-107776400D01*
X97536000Y-113758100D02*
X98968700Y-112325400D01*
X93632900Y-97522800D02*
X99488100Y-103378000D01*
X93632900Y-97155000D02*
X93632900Y-97522800D01*
X99488100Y-103378000D02*
X101092000Y-103378000D01*
X97536000Y-114935000D02*
X97536000Y-113758100D01*
%TD*%
M02*
