%TF.GenerationSoftware,KiCad,Pcbnew,7.0.10*%
%TF.CreationDate,2024-02-19T12:28:25+05:30*%
%TF.ProjectId,ArduinoNano _Rudra_2021eeb1208,41726475-696e-46f4-9e61-6e6f205f5275,rev?*%
%TF.SameCoordinates,Original*%
%TF.FileFunction,Legend,Top*%
%TF.FilePolarity,Positive*%
%FSLAX46Y46*%
G04 Gerber Fmt 4.6, Leading zero omitted, Abs format (unit mm)*
G04 Created by KiCad (PCBNEW 7.0.10) date 2024-02-19 12:28:25*
%MOMM*%
%LPD*%
G01*
G04 APERTURE LIST*
%ADD10C,0.150000*%
%ADD11C,0.121000*%
%ADD12C,0.198400*%
%ADD13C,0.120000*%
%ADD14C,0.127000*%
%ADD15C,0.200000*%
G04 APERTURE END LIST*
D10*
X94411976Y-106255313D02*
X94163310Y-105900075D01*
X93985691Y-106255313D02*
X93985691Y-105509313D01*
X93985691Y-105509313D02*
X94269881Y-105509313D01*
X94269881Y-105509313D02*
X94340929Y-105544837D01*
X94340929Y-105544837D02*
X94376452Y-105580361D01*
X94376452Y-105580361D02*
X94411976Y-105651409D01*
X94411976Y-105651409D02*
X94411976Y-105757980D01*
X94411976Y-105757980D02*
X94376452Y-105829028D01*
X94376452Y-105829028D02*
X94340929Y-105864551D01*
X94340929Y-105864551D02*
X94269881Y-105900075D01*
X94269881Y-105900075D02*
X93985691Y-105900075D01*
X94696167Y-106219790D02*
X94802738Y-106255313D01*
X94802738Y-106255313D02*
X94980357Y-106255313D01*
X94980357Y-106255313D02*
X95051405Y-106219790D01*
X95051405Y-106219790D02*
X95086929Y-106184266D01*
X95086929Y-106184266D02*
X95122452Y-106113218D01*
X95122452Y-106113218D02*
X95122452Y-106042170D01*
X95122452Y-106042170D02*
X95086929Y-105971123D01*
X95086929Y-105971123D02*
X95051405Y-105935599D01*
X95051405Y-105935599D02*
X94980357Y-105900075D01*
X94980357Y-105900075D02*
X94838262Y-105864551D01*
X94838262Y-105864551D02*
X94767214Y-105829028D01*
X94767214Y-105829028D02*
X94731691Y-105793504D01*
X94731691Y-105793504D02*
X94696167Y-105722456D01*
X94696167Y-105722456D02*
X94696167Y-105651409D01*
X94696167Y-105651409D02*
X94731691Y-105580361D01*
X94731691Y-105580361D02*
X94767214Y-105544837D01*
X94767214Y-105544837D02*
X94838262Y-105509313D01*
X94838262Y-105509313D02*
X95015881Y-105509313D01*
X95015881Y-105509313D02*
X95122452Y-105544837D01*
X95335595Y-105509313D02*
X95761881Y-105509313D01*
X95548738Y-106255313D02*
X95548738Y-105509313D01*
D11*
X89381721Y-111431618D02*
X88581481Y-111431618D01*
X89381721Y-111155047D02*
X88924441Y-111362476D01*
X88581481Y-111155047D02*
X89038761Y-111431618D01*
X89381721Y-110947618D02*
X88581481Y-110947618D01*
X89381721Y-110440571D02*
X89000655Y-110601904D01*
X89381721Y-110717142D02*
X88581481Y-110717142D01*
X88581481Y-110717142D02*
X88581481Y-110532761D01*
X88581481Y-110532761D02*
X88619588Y-110486666D01*
X88619588Y-110486666D02*
X88657695Y-110463619D01*
X88657695Y-110463619D02*
X88733908Y-110440571D01*
X88733908Y-110440571D02*
X88848228Y-110440571D01*
X88848228Y-110440571D02*
X88924441Y-110463619D01*
X88924441Y-110463619D02*
X88962548Y-110486666D01*
X88962548Y-110486666D02*
X89000655Y-110532761D01*
X89000655Y-110532761D02*
X89000655Y-110717142D01*
X88581481Y-110302285D02*
X88581481Y-110025714D01*
X89381721Y-110164000D02*
X88581481Y-110164000D01*
X89381721Y-109864380D02*
X88581481Y-109864380D01*
X88581481Y-109864380D02*
X88581481Y-109749142D01*
X88581481Y-109749142D02*
X88619588Y-109679999D01*
X88619588Y-109679999D02*
X88695801Y-109633904D01*
X88695801Y-109633904D02*
X88772015Y-109610857D01*
X88772015Y-109610857D02*
X88924441Y-109587809D01*
X88924441Y-109587809D02*
X89038761Y-109587809D01*
X89038761Y-109587809D02*
X89191188Y-109610857D01*
X89191188Y-109610857D02*
X89267401Y-109633904D01*
X89267401Y-109633904D02*
X89343615Y-109679999D01*
X89343615Y-109679999D02*
X89381721Y-109749142D01*
X89381721Y-109749142D02*
X89381721Y-109864380D01*
X88962548Y-109380380D02*
X88962548Y-109219047D01*
X89381721Y-109149904D02*
X89381721Y-109380380D01*
X89381721Y-109380380D02*
X88581481Y-109380380D01*
X88581481Y-109380380D02*
X88581481Y-109149904D01*
X88962548Y-108942475D02*
X88962548Y-108781142D01*
X89381721Y-108711999D02*
X89381721Y-108942475D01*
X89381721Y-108942475D02*
X88581481Y-108942475D01*
X88581481Y-108942475D02*
X88581481Y-108711999D01*
X89381721Y-108504570D02*
X88581481Y-108504570D01*
X88581481Y-108504570D02*
X88581481Y-108320189D01*
X88581481Y-108320189D02*
X88619588Y-108274094D01*
X88619588Y-108274094D02*
X88657695Y-108251047D01*
X88657695Y-108251047D02*
X88733908Y-108227999D01*
X88733908Y-108227999D02*
X88848228Y-108227999D01*
X88848228Y-108227999D02*
X88924441Y-108251047D01*
X88924441Y-108251047D02*
X88962548Y-108274094D01*
X88962548Y-108274094D02*
X89000655Y-108320189D01*
X89000655Y-108320189D02*
X89000655Y-108504570D01*
X89381721Y-107651808D02*
X88581481Y-107651808D01*
X89381721Y-107375237D02*
X88924441Y-107582666D01*
X88581481Y-107375237D02*
X89038761Y-107651808D01*
X89153081Y-107190856D02*
X89153081Y-106960380D01*
X89381721Y-107236951D02*
X88581481Y-107075618D01*
X88581481Y-107075618D02*
X89381721Y-106914285D01*
X88581481Y-106752951D02*
X89229295Y-106752951D01*
X89229295Y-106752951D02*
X89305508Y-106729904D01*
X89305508Y-106729904D02*
X89343615Y-106706856D01*
X89343615Y-106706856D02*
X89381721Y-106660761D01*
X89381721Y-106660761D02*
X89381721Y-106568570D01*
X89381721Y-106568570D02*
X89343615Y-106522475D01*
X89343615Y-106522475D02*
X89305508Y-106499428D01*
X89305508Y-106499428D02*
X89229295Y-106476380D01*
X89229295Y-106476380D02*
X88581481Y-106476380D01*
X89381721Y-105969332D02*
X89000655Y-106130665D01*
X89381721Y-106245903D02*
X88581481Y-106245903D01*
X88581481Y-106245903D02*
X88581481Y-106061522D01*
X88581481Y-106061522D02*
X88619588Y-106015427D01*
X88619588Y-106015427D02*
X88657695Y-105992380D01*
X88657695Y-105992380D02*
X88733908Y-105969332D01*
X88733908Y-105969332D02*
X88848228Y-105969332D01*
X88848228Y-105969332D02*
X88924441Y-105992380D01*
X88924441Y-105992380D02*
X88962548Y-106015427D01*
X88962548Y-106015427D02*
X89000655Y-106061522D01*
X89000655Y-106061522D02*
X89000655Y-106245903D01*
X90670107Y-111097428D02*
X90289041Y-111258761D01*
X90670107Y-111373999D02*
X89869867Y-111373999D01*
X89869867Y-111373999D02*
X89869867Y-111189618D01*
X89869867Y-111189618D02*
X89907974Y-111143523D01*
X89907974Y-111143523D02*
X89946081Y-111120476D01*
X89946081Y-111120476D02*
X90022294Y-111097428D01*
X90022294Y-111097428D02*
X90136614Y-111097428D01*
X90136614Y-111097428D02*
X90212827Y-111120476D01*
X90212827Y-111120476D02*
X90250934Y-111143523D01*
X90250934Y-111143523D02*
X90289041Y-111189618D01*
X90289041Y-111189618D02*
X90289041Y-111373999D01*
X89869867Y-110889999D02*
X90517681Y-110889999D01*
X90517681Y-110889999D02*
X90593894Y-110866952D01*
X90593894Y-110866952D02*
X90632001Y-110843904D01*
X90632001Y-110843904D02*
X90670107Y-110797809D01*
X90670107Y-110797809D02*
X90670107Y-110705618D01*
X90670107Y-110705618D02*
X90632001Y-110659523D01*
X90632001Y-110659523D02*
X90593894Y-110636476D01*
X90593894Y-110636476D02*
X90517681Y-110613428D01*
X90517681Y-110613428D02*
X89869867Y-110613428D01*
X90670107Y-110382951D02*
X89869867Y-110382951D01*
X89869867Y-110382951D02*
X89869867Y-110267713D01*
X89869867Y-110267713D02*
X89907974Y-110198570D01*
X89907974Y-110198570D02*
X89984187Y-110152475D01*
X89984187Y-110152475D02*
X90060401Y-110129428D01*
X90060401Y-110129428D02*
X90212827Y-110106380D01*
X90212827Y-110106380D02*
X90327147Y-110106380D01*
X90327147Y-110106380D02*
X90479574Y-110129428D01*
X90479574Y-110129428D02*
X90555787Y-110152475D01*
X90555787Y-110152475D02*
X90632001Y-110198570D01*
X90632001Y-110198570D02*
X90670107Y-110267713D01*
X90670107Y-110267713D02*
X90670107Y-110382951D01*
X90670107Y-109622380D02*
X90289041Y-109783713D01*
X90670107Y-109898951D02*
X89869867Y-109898951D01*
X89869867Y-109898951D02*
X89869867Y-109714570D01*
X89869867Y-109714570D02*
X89907974Y-109668475D01*
X89907974Y-109668475D02*
X89946081Y-109645428D01*
X89946081Y-109645428D02*
X90022294Y-109622380D01*
X90022294Y-109622380D02*
X90136614Y-109622380D01*
X90136614Y-109622380D02*
X90212827Y-109645428D01*
X90212827Y-109645428D02*
X90250934Y-109668475D01*
X90250934Y-109668475D02*
X90289041Y-109714570D01*
X90289041Y-109714570D02*
X90289041Y-109898951D01*
X90441467Y-109437999D02*
X90441467Y-109207523D01*
X90670107Y-109484094D02*
X89869867Y-109322761D01*
X89869867Y-109322761D02*
X90670107Y-109161428D01*
X90670107Y-108631332D02*
X89869867Y-108631332D01*
X90670107Y-108354761D02*
X90212827Y-108562190D01*
X89869867Y-108354761D02*
X90327147Y-108631332D01*
X89869867Y-108147332D02*
X90517681Y-108147332D01*
X90517681Y-108147332D02*
X90593894Y-108124285D01*
X90593894Y-108124285D02*
X90632001Y-108101237D01*
X90632001Y-108101237D02*
X90670107Y-108055142D01*
X90670107Y-108055142D02*
X90670107Y-107962951D01*
X90670107Y-107962951D02*
X90632001Y-107916856D01*
X90632001Y-107916856D02*
X90593894Y-107893809D01*
X90593894Y-107893809D02*
X90517681Y-107870761D01*
X90517681Y-107870761D02*
X89869867Y-107870761D01*
X90670107Y-107640284D02*
X89869867Y-107640284D01*
X89869867Y-107640284D02*
X90441467Y-107478951D01*
X90441467Y-107478951D02*
X89869867Y-107317618D01*
X89869867Y-107317618D02*
X90670107Y-107317618D01*
X90441467Y-107110189D02*
X90441467Y-106879713D01*
X90670107Y-107156284D02*
X89869867Y-106994951D01*
X89869867Y-106994951D02*
X90670107Y-106833618D01*
X90670107Y-106395713D02*
X90289041Y-106557046D01*
X90670107Y-106672284D02*
X89869867Y-106672284D01*
X89869867Y-106672284D02*
X89869867Y-106487903D01*
X89869867Y-106487903D02*
X89907974Y-106441808D01*
X89907974Y-106441808D02*
X89946081Y-106418761D01*
X89946081Y-106418761D02*
X90022294Y-106395713D01*
X90022294Y-106395713D02*
X90136614Y-106395713D01*
X90136614Y-106395713D02*
X90212827Y-106418761D01*
X90212827Y-106418761D02*
X90250934Y-106441808D01*
X90250934Y-106441808D02*
X90289041Y-106487903D01*
X90289041Y-106487903D02*
X90289041Y-106672284D01*
D12*
X98445200Y-112278400D02*
X98445200Y-111854400D01*
X98699600Y-112363200D02*
X97809200Y-112066400D01*
X97809200Y-112066400D02*
X98699600Y-111769600D01*
X98699600Y-110964000D02*
X98275600Y-111260800D01*
X98699600Y-111472800D02*
X97809200Y-111472800D01*
X97809200Y-111472800D02*
X97809200Y-111133600D01*
X97809200Y-111133600D02*
X97851600Y-111048800D01*
X97851600Y-111048800D02*
X97894000Y-111006400D01*
X97894000Y-111006400D02*
X97978800Y-110964000D01*
X97978800Y-110964000D02*
X98106000Y-110964000D01*
X98106000Y-110964000D02*
X98190800Y-111006400D01*
X98190800Y-111006400D02*
X98233200Y-111048800D01*
X98233200Y-111048800D02*
X98275600Y-111133600D01*
X98275600Y-111133600D02*
X98275600Y-111472800D01*
X98699600Y-110582400D02*
X97809200Y-110582400D01*
X97809200Y-110582400D02*
X97809200Y-110370400D01*
X97809200Y-110370400D02*
X97851600Y-110243200D01*
X97851600Y-110243200D02*
X97936400Y-110158400D01*
X97936400Y-110158400D02*
X98021200Y-110116000D01*
X98021200Y-110116000D02*
X98190800Y-110073600D01*
X98190800Y-110073600D02*
X98318000Y-110073600D01*
X98318000Y-110073600D02*
X98487600Y-110116000D01*
X98487600Y-110116000D02*
X98572400Y-110158400D01*
X98572400Y-110158400D02*
X98657200Y-110243200D01*
X98657200Y-110243200D02*
X98699600Y-110370400D01*
X98699600Y-110370400D02*
X98699600Y-110582400D01*
X97809200Y-109692000D02*
X98530000Y-109692000D01*
X98530000Y-109692000D02*
X98614800Y-109649600D01*
X98614800Y-109649600D02*
X98657200Y-109607200D01*
X98657200Y-109607200D02*
X98699600Y-109522400D01*
X98699600Y-109522400D02*
X98699600Y-109352800D01*
X98699600Y-109352800D02*
X98657200Y-109268000D01*
X98657200Y-109268000D02*
X98614800Y-109225600D01*
X98614800Y-109225600D02*
X98530000Y-109183200D01*
X98530000Y-109183200D02*
X97809200Y-109183200D01*
X98699600Y-108759200D02*
X97809200Y-108759200D01*
X98699600Y-108335200D02*
X97809200Y-108335200D01*
X97809200Y-108335200D02*
X98699600Y-107826400D01*
X98699600Y-107826400D02*
X97809200Y-107826400D01*
X97809200Y-107232800D02*
X97809200Y-107063200D01*
X97809200Y-107063200D02*
X97851600Y-106978400D01*
X97851600Y-106978400D02*
X97936400Y-106893600D01*
X97936400Y-106893600D02*
X98106000Y-106851200D01*
X98106000Y-106851200D02*
X98402800Y-106851200D01*
X98402800Y-106851200D02*
X98572400Y-106893600D01*
X98572400Y-106893600D02*
X98657200Y-106978400D01*
X98657200Y-106978400D02*
X98699600Y-107063200D01*
X98699600Y-107063200D02*
X98699600Y-107232800D01*
X98699600Y-107232800D02*
X98657200Y-107317600D01*
X98657200Y-107317600D02*
X98572400Y-107402400D01*
X98572400Y-107402400D02*
X98402800Y-107444800D01*
X98402800Y-107444800D02*
X98106000Y-107444800D01*
X98106000Y-107444800D02*
X97936400Y-107402400D01*
X97936400Y-107402400D02*
X97851600Y-107317600D01*
X97851600Y-107317600D02*
X97809200Y-107232800D01*
X98699600Y-105791200D02*
X97809200Y-105791200D01*
X97809200Y-105791200D02*
X98699600Y-105282400D01*
X98699600Y-105282400D02*
X97809200Y-105282400D01*
X98445200Y-104900800D02*
X98445200Y-104476800D01*
X98699600Y-104985600D02*
X97809200Y-104688800D01*
X97809200Y-104688800D02*
X98699600Y-104392000D01*
X98699600Y-104095200D02*
X97809200Y-104095200D01*
X97809200Y-104095200D02*
X98699600Y-103586400D01*
X98699600Y-103586400D02*
X97809200Y-103586400D01*
X97809200Y-102992800D02*
X97809200Y-102823200D01*
X97809200Y-102823200D02*
X97851600Y-102738400D01*
X97851600Y-102738400D02*
X97936400Y-102653600D01*
X97936400Y-102653600D02*
X98106000Y-102611200D01*
X98106000Y-102611200D02*
X98402800Y-102611200D01*
X98402800Y-102611200D02*
X98572400Y-102653600D01*
X98572400Y-102653600D02*
X98657200Y-102738400D01*
X98657200Y-102738400D02*
X98699600Y-102823200D01*
X98699600Y-102823200D02*
X98699600Y-102992800D01*
X98699600Y-102992800D02*
X98657200Y-103077600D01*
X98657200Y-103077600D02*
X98572400Y-103162400D01*
X98572400Y-103162400D02*
X98402800Y-103204800D01*
X98402800Y-103204800D02*
X98106000Y-103204800D01*
X98106000Y-103204800D02*
X97936400Y-103162400D01*
X97936400Y-103162400D02*
X97851600Y-103077600D01*
X97851600Y-103077600D02*
X97809200Y-102992800D01*
X97809200Y-101678400D02*
X98699600Y-101381600D01*
X98699600Y-101381600D02*
X97809200Y-101084800D01*
X97894000Y-100830400D02*
X97851600Y-100788000D01*
X97851600Y-100788000D02*
X97809200Y-100703200D01*
X97809200Y-100703200D02*
X97809200Y-100491200D01*
X97809200Y-100491200D02*
X97851600Y-100406400D01*
X97851600Y-100406400D02*
X97894000Y-100364000D01*
X97894000Y-100364000D02*
X97978800Y-100321600D01*
X97978800Y-100321600D02*
X98063600Y-100321600D01*
X98063600Y-100321600D02*
X98190800Y-100364000D01*
X98190800Y-100364000D02*
X98699600Y-100872800D01*
X98699600Y-100872800D02*
X98699600Y-100321600D01*
X98614800Y-99940000D02*
X98657200Y-99897600D01*
X98657200Y-99897600D02*
X98699600Y-99940000D01*
X98699600Y-99940000D02*
X98657200Y-99982400D01*
X98657200Y-99982400D02*
X98614800Y-99940000D01*
X98614800Y-99940000D02*
X98699600Y-99940000D01*
X97894000Y-99558400D02*
X97851600Y-99516000D01*
X97851600Y-99516000D02*
X97809200Y-99431200D01*
X97809200Y-99431200D02*
X97809200Y-99219200D01*
X97809200Y-99219200D02*
X97851600Y-99134400D01*
X97851600Y-99134400D02*
X97894000Y-99092000D01*
X97894000Y-99092000D02*
X97978800Y-99049600D01*
X97978800Y-99049600D02*
X98063600Y-99049600D01*
X98063600Y-99049600D02*
X98190800Y-99092000D01*
X98190800Y-99092000D02*
X98699600Y-99600800D01*
X98699600Y-99600800D02*
X98699600Y-99049600D01*
D10*
X100409619Y-111242819D02*
X100409619Y-110242819D01*
X101457237Y-111147580D02*
X101409618Y-111195200D01*
X101409618Y-111195200D02*
X101266761Y-111242819D01*
X101266761Y-111242819D02*
X101171523Y-111242819D01*
X101171523Y-111242819D02*
X101028666Y-111195200D01*
X101028666Y-111195200D02*
X100933428Y-111099961D01*
X100933428Y-111099961D02*
X100885809Y-111004723D01*
X100885809Y-111004723D02*
X100838190Y-110814247D01*
X100838190Y-110814247D02*
X100838190Y-110671390D01*
X100838190Y-110671390D02*
X100885809Y-110480914D01*
X100885809Y-110480914D02*
X100933428Y-110385676D01*
X100933428Y-110385676D02*
X101028666Y-110290438D01*
X101028666Y-110290438D02*
X101171523Y-110242819D01*
X101171523Y-110242819D02*
X101266761Y-110242819D01*
X101266761Y-110242819D02*
X101409618Y-110290438D01*
X101409618Y-110290438D02*
X101457237Y-110338057D01*
X101838190Y-111195200D02*
X101981047Y-111242819D01*
X101981047Y-111242819D02*
X102219142Y-111242819D01*
X102219142Y-111242819D02*
X102314380Y-111195200D01*
X102314380Y-111195200D02*
X102361999Y-111147580D01*
X102361999Y-111147580D02*
X102409618Y-111052342D01*
X102409618Y-111052342D02*
X102409618Y-110957104D01*
X102409618Y-110957104D02*
X102361999Y-110861866D01*
X102361999Y-110861866D02*
X102314380Y-110814247D01*
X102314380Y-110814247D02*
X102219142Y-110766628D01*
X102219142Y-110766628D02*
X102028666Y-110719009D01*
X102028666Y-110719009D02*
X101933428Y-110671390D01*
X101933428Y-110671390D02*
X101885809Y-110623771D01*
X101885809Y-110623771D02*
X101838190Y-110528533D01*
X101838190Y-110528533D02*
X101838190Y-110433295D01*
X101838190Y-110433295D02*
X101885809Y-110338057D01*
X101885809Y-110338057D02*
X101933428Y-110290438D01*
X101933428Y-110290438D02*
X102028666Y-110242819D01*
X102028666Y-110242819D02*
X102266761Y-110242819D01*
X102266761Y-110242819D02*
X102409618Y-110290438D01*
X102838190Y-111242819D02*
X102838190Y-110242819D01*
X102838190Y-110242819D02*
X103219142Y-110242819D01*
X103219142Y-110242819D02*
X103314380Y-110290438D01*
X103314380Y-110290438D02*
X103361999Y-110338057D01*
X103361999Y-110338057D02*
X103409618Y-110433295D01*
X103409618Y-110433295D02*
X103409618Y-110576152D01*
X103409618Y-110576152D02*
X103361999Y-110671390D01*
X103361999Y-110671390D02*
X103314380Y-110719009D01*
X103314380Y-110719009D02*
X103219142Y-110766628D01*
X103219142Y-110766628D02*
X102838190Y-110766628D01*
X104361999Y-111242819D02*
X103790571Y-111242819D01*
X104076285Y-111242819D02*
X104076285Y-110242819D01*
X104076285Y-110242819D02*
X103981047Y-110385676D01*
X103981047Y-110385676D02*
X103885809Y-110480914D01*
X103885809Y-110480914D02*
X103790571Y-110528533D01*
X94520667Y-110573313D02*
X94165429Y-110573313D01*
X94165429Y-110573313D02*
X94165429Y-109827313D01*
X95160095Y-110573313D02*
X94733810Y-110573313D01*
X94946953Y-110573313D02*
X94946953Y-109827313D01*
X94946953Y-109827313D02*
X94875905Y-109933885D01*
X94875905Y-109933885D02*
X94804857Y-110004932D01*
X94804857Y-110004932D02*
X94733810Y-110040456D01*
X94262428Y-102827313D02*
X94013762Y-102472075D01*
X93836143Y-102827313D02*
X93836143Y-102081313D01*
X93836143Y-102081313D02*
X94120333Y-102081313D01*
X94120333Y-102081313D02*
X94191381Y-102116837D01*
X94191381Y-102116837D02*
X94226904Y-102152361D01*
X94226904Y-102152361D02*
X94262428Y-102223409D01*
X94262428Y-102223409D02*
X94262428Y-102329980D01*
X94262428Y-102329980D02*
X94226904Y-102401028D01*
X94226904Y-102401028D02*
X94191381Y-102436551D01*
X94191381Y-102436551D02*
X94120333Y-102472075D01*
X94120333Y-102472075D02*
X93836143Y-102472075D01*
X94511095Y-102081313D02*
X95008428Y-102827313D01*
X95008428Y-102081313D02*
X94511095Y-102827313D01*
X95683380Y-102827313D02*
X95257095Y-102827313D01*
X95470238Y-102827313D02*
X95470238Y-102081313D01*
X95470238Y-102081313D02*
X95399190Y-102187885D01*
X95399190Y-102187885D02*
X95328142Y-102258932D01*
X95328142Y-102258932D02*
X95257095Y-102294456D01*
X93818381Y-98779313D02*
X94244667Y-98779313D01*
X94031524Y-99525313D02*
X94031524Y-98779313D01*
X94422286Y-98779313D02*
X94919619Y-99525313D01*
X94919619Y-98779313D02*
X94422286Y-99525313D01*
X95594571Y-99525313D02*
X95168286Y-99525313D01*
X95381429Y-99525313D02*
X95381429Y-98779313D01*
X95381429Y-98779313D02*
X95310381Y-98885885D01*
X95310381Y-98885885D02*
X95239333Y-98956932D01*
X95239333Y-98956932D02*
X95168286Y-98992456D01*
D13*
%TO.C,RST1*%
X93170500Y-106550000D02*
X96470500Y-106550000D01*
X93170500Y-106850000D02*
X93170500Y-106550000D01*
X93170500Y-109050000D02*
X93170500Y-109350000D01*
X93170500Y-109350000D02*
X96470500Y-109350000D01*
X96470500Y-106550000D02*
X96470500Y-106850000D01*
X96470500Y-109350000D02*
X96470500Y-109050000D01*
%TO.C,ICSP1*%
X104962000Y-109788000D02*
X103632000Y-109788000D01*
X104962000Y-108458000D02*
X104962000Y-109788000D01*
X104962000Y-107188000D02*
X104962000Y-102048000D01*
X104962000Y-107188000D02*
X102362000Y-107188000D01*
X104962000Y-102048000D02*
X99762000Y-102048000D01*
X102362000Y-109788000D02*
X99762000Y-109788000D01*
X102362000Y-107188000D02*
X102362000Y-109788000D01*
X99762000Y-109788000D02*
X99762000Y-102048000D01*
%TO.C,L1*%
X92960000Y-110800000D02*
X92960000Y-112720000D01*
X92960000Y-112720000D02*
X95645000Y-112720000D01*
X95645000Y-110800000D02*
X92960000Y-110800000D01*
%TO.C,RX1*%
X93057000Y-103180000D02*
X93057000Y-105100000D01*
X93057000Y-105100000D02*
X95742000Y-105100000D01*
X95742000Y-103180000D02*
X93057000Y-103180000D01*
D14*
%TO.C,J7*%
X63038000Y-102068000D02*
X65348000Y-102068000D01*
X59898000Y-102068000D02*
X58518000Y-102068000D01*
X58518000Y-102068000D02*
X58518000Y-109768000D01*
X67718000Y-102708000D02*
X67718000Y-103818000D01*
X67718000Y-108018000D02*
X67718000Y-109128000D01*
X63038000Y-109768000D02*
X65348000Y-109768000D01*
X58518000Y-109768000D02*
X59898000Y-109768000D01*
D15*
X68968000Y-104318000D02*
G75*
G03*
X68768000Y-104318000I-100000J0D01*
G01*
X68768000Y-104318000D02*
G75*
G03*
X68968000Y-104318000I100000J0D01*
G01*
D13*
%TO.C,TX1*%
X93057000Y-99878000D02*
X93057000Y-101798000D01*
X93057000Y-101798000D02*
X95742000Y-101798000D01*
X95742000Y-99878000D02*
X93057000Y-99878000D01*
%TO.C,Y1*%
X81295000Y-109018000D02*
X81295000Y-102618000D01*
X86345000Y-109018000D02*
X86345000Y-102618000D01*
X81295000Y-109018000D02*
G75*
G03*
X86345000Y-109018000I2525000J0D01*
G01*
X86345000Y-102618000D02*
G75*
G03*
X81295000Y-102618000I-2525000J0D01*
G01*
%TO.C,G\u002A\u002A\u002A*%
G36*
X88788516Y-101042579D02*
G01*
X88777023Y-101054072D01*
X88765530Y-101042579D01*
X88777023Y-101031086D01*
X88788516Y-101042579D01*
G37*
G36*
X90006797Y-102605656D02*
G01*
X89995303Y-102617149D01*
X89983810Y-102605656D01*
X89995303Y-102594162D01*
X90006797Y-102605656D01*
G37*
G36*
X89723297Y-102532865D02*
G01*
X89720142Y-102546531D01*
X89707973Y-102548190D01*
X89689053Y-102539779D01*
X89692649Y-102532865D01*
X89719928Y-102530114D01*
X89723297Y-102532865D01*
G37*
G36*
X89953162Y-102555852D02*
G01*
X89955913Y-102583131D01*
X89953162Y-102586500D01*
X89939496Y-102583345D01*
X89937837Y-102571176D01*
X89946248Y-102552256D01*
X89953162Y-102555852D01*
G37*
G36*
X90389904Y-100693951D02*
G01*
X90386748Y-100707617D01*
X90374579Y-100709276D01*
X90355659Y-100700865D01*
X90359255Y-100693951D01*
X90386535Y-100691200D01*
X90389904Y-100693951D01*
G37*
G36*
X91217415Y-101843273D02*
G01*
X91220166Y-101870552D01*
X91217415Y-101873921D01*
X91203750Y-101870766D01*
X91202091Y-101858597D01*
X91210501Y-101839676D01*
X91217415Y-101843273D01*
G37*
G36*
X91286374Y-101751327D02*
G01*
X91289125Y-101778606D01*
X91286374Y-101781975D01*
X91272709Y-101778820D01*
X91271050Y-101766651D01*
X91279460Y-101747731D01*
X91286374Y-101751327D01*
G37*
G36*
X88815190Y-104862747D02*
G01*
X88834489Y-104881312D01*
X88854771Y-104910502D01*
X88841415Y-104908536D01*
X88801362Y-104880581D01*
X88776445Y-104855635D01*
X88781308Y-104846832D01*
X88815190Y-104862747D01*
G37*
G36*
X89490908Y-102540559D02*
G01*
X89486879Y-102558489D01*
X89468330Y-102590844D01*
X89456336Y-102585424D01*
X89455122Y-102572533D01*
X89471817Y-102541363D01*
X89477845Y-102536859D01*
X89490908Y-102540559D01*
G37*
G36*
X89934286Y-102235678D02*
G01*
X89958769Y-102257046D01*
X89960824Y-102262216D01*
X89949915Y-102271664D01*
X89927203Y-102250494D01*
X89924149Y-102245814D01*
X89921440Y-102230085D01*
X89934286Y-102235678D01*
G37*
G36*
X88557984Y-104956270D02*
G01*
X88558652Y-104961764D01*
X88541160Y-104984083D01*
X88535665Y-104984751D01*
X88513347Y-104967259D01*
X88512679Y-104961764D01*
X88530171Y-104939446D01*
X88535665Y-104938778D01*
X88557984Y-104956270D01*
G37*
G36*
X89225140Y-104881977D02*
G01*
X89236751Y-104892805D01*
X89245759Y-104910603D01*
X89232578Y-104910050D01*
X89190778Y-104892805D01*
X89161897Y-104877620D01*
X89174884Y-104871940D01*
X89183675Y-104871434D01*
X89225140Y-104881977D01*
G37*
G36*
X89493883Y-102241228D02*
G01*
X89489602Y-102249366D01*
X89467944Y-102271318D01*
X89463902Y-102272352D01*
X89462334Y-102257504D01*
X89466616Y-102249366D01*
X89488274Y-102227414D01*
X89492315Y-102226380D01*
X89493883Y-102241228D01*
G37*
G36*
X89730024Y-105116369D02*
G01*
X89730959Y-105122669D01*
X89723117Y-105145058D01*
X89720823Y-105145656D01*
X89701198Y-105129548D01*
X89696480Y-105122669D01*
X89698302Y-105101488D01*
X89706616Y-105099683D01*
X89730024Y-105116369D01*
G37*
G36*
X89730696Y-105025522D02*
G01*
X89730959Y-105030724D01*
X89713289Y-105052827D01*
X89706616Y-105053710D01*
X89692888Y-105039628D01*
X89696480Y-105030724D01*
X89717136Y-105008795D01*
X89720823Y-105007737D01*
X89730696Y-105025522D01*
G37*
G36*
X91301715Y-101328393D02*
G01*
X91312177Y-101370420D01*
X91301715Y-101402946D01*
X91286175Y-101433573D01*
X91279872Y-101426253D01*
X91278712Y-101379944D01*
X91283975Y-101330916D01*
X91299777Y-101326593D01*
X91301715Y-101328393D01*
G37*
G36*
X90062719Y-102405030D02*
G01*
X90048587Y-102444751D01*
X90022545Y-102485720D01*
X89997557Y-102503574D01*
X89984696Y-102491357D01*
X89984541Y-102484977D01*
X89998245Y-102453184D01*
X90026912Y-102414420D01*
X90054604Y-102389168D01*
X90060557Y-102387285D01*
X90062719Y-102405030D01*
G37*
G36*
X87825802Y-102305618D02*
G01*
X87869948Y-102320242D01*
X87886437Y-102335565D01*
X87875110Y-102355800D01*
X87830067Y-102361494D01*
X87761513Y-102351695D01*
X87748380Y-102348453D01*
X87714281Y-102328852D01*
X87708154Y-102315252D01*
X87727146Y-102301100D01*
X87772281Y-102298563D01*
X87825802Y-102305618D01*
G37*
G36*
X89384178Y-102405916D02*
G01*
X89394990Y-102427511D01*
X89414586Y-102478177D01*
X89422573Y-102496470D01*
X89422821Y-102522147D01*
X89414755Y-102525203D01*
X89390799Y-102506593D01*
X89366866Y-102466656D01*
X89345101Y-102414783D01*
X89343333Y-102392205D01*
X89360496Y-102387285D01*
X89384178Y-102405916D01*
G37*
G36*
X90453031Y-101596666D02*
G01*
X90481610Y-101626174D01*
X90485002Y-101683386D01*
X90472182Y-101736011D01*
X90439118Y-101758338D01*
X90416352Y-101762282D01*
X90357826Y-101753811D01*
X90330235Y-101723721D01*
X90317417Y-101662876D01*
X90340570Y-101614692D01*
X90389756Y-101589456D01*
X90453031Y-101596666D01*
G37*
G36*
X87907389Y-102808722D02*
G01*
X87908996Y-102836160D01*
X87904484Y-102845484D01*
X87875781Y-102860460D01*
X87824195Y-102868357D01*
X87767373Y-102868856D01*
X87722963Y-102861636D01*
X87708154Y-102849034D01*
X87728099Y-102833564D01*
X87776011Y-102818374D01*
X87834006Y-102807081D01*
X87884200Y-102803303D01*
X87907389Y-102808722D01*
G37*
G36*
X88098934Y-103363408D02*
G01*
X88089088Y-103389432D01*
X88050229Y-103421701D01*
X88031105Y-103432577D01*
X87959897Y-103462799D01*
X87922078Y-103462344D01*
X87915032Y-103445250D01*
X87933609Y-103421325D01*
X87977693Y-103391192D01*
X88029815Y-103364972D01*
X88072505Y-103352781D01*
X88074795Y-103352714D01*
X88098934Y-103363408D01*
G37*
G36*
X88565528Y-102788778D02*
G01*
X88612128Y-102821078D01*
X88627611Y-102868217D01*
X88608937Y-102924871D01*
X88560351Y-102955216D01*
X88493006Y-102953608D01*
X88472453Y-102946722D01*
X88451715Y-102917734D01*
X88443720Y-102868522D01*
X88453629Y-102815900D01*
X88490951Y-102790375D01*
X88501484Y-102787418D01*
X88565528Y-102788778D01*
G37*
G36*
X89671388Y-103656512D02*
G01*
X89694871Y-103712155D01*
X89696480Y-103734496D01*
X89688549Y-103784142D01*
X89656466Y-103804683D01*
X89637046Y-103807859D01*
X89581349Y-103800796D01*
X89548949Y-103780230D01*
X89527732Y-103724179D01*
X89546859Y-103668706D01*
X89575801Y-103642626D01*
X89628156Y-103630639D01*
X89671388Y-103656512D01*
G37*
G36*
X89087340Y-101513800D02*
G01*
X89124467Y-101555390D01*
X89131119Y-101610871D01*
X89107106Y-101660287D01*
X89088851Y-101673897D01*
X89049739Y-101693109D01*
X89023864Y-101691628D01*
X88989647Y-101672864D01*
X88952665Y-101631858D01*
X88949432Y-101582538D01*
X88972513Y-101537015D01*
X89014470Y-101507397D01*
X89067866Y-101505794D01*
X89087340Y-101513800D01*
G37*
G36*
X90804376Y-102914523D02*
G01*
X90839745Y-102952481D01*
X90851114Y-103001487D01*
X90833392Y-103043501D01*
X90790705Y-103069046D01*
X90734841Y-103076774D01*
X90690915Y-103063552D01*
X90688727Y-103061553D01*
X90673743Y-103019609D01*
X90679954Y-102963773D01*
X90704225Y-102919159D01*
X90706779Y-102916888D01*
X90756292Y-102898896D01*
X90804376Y-102914523D01*
G37*
G36*
X90877993Y-103870982D02*
G01*
X90902232Y-103891904D01*
X90945494Y-103929193D01*
X90971992Y-103935832D01*
X90994261Y-103917029D01*
X91027580Y-103894117D01*
X91045519Y-103895574D01*
X91044998Y-103917497D01*
X91022364Y-103955237D01*
X90989422Y-103993575D01*
X90957976Y-104017291D01*
X90949534Y-104019321D01*
X90925821Y-104004226D01*
X90884668Y-103966581D01*
X90870577Y-103952229D01*
X90829897Y-103898578D01*
X90820118Y-103862304D01*
X90837422Y-103850680D01*
X90877993Y-103870982D01*
G37*
G36*
X91289060Y-103324862D02*
G01*
X91325628Y-103362531D01*
X91362146Y-103408290D01*
X91388247Y-103449020D01*
X91393564Y-103471601D01*
X91392429Y-103472416D01*
X91360542Y-103474436D01*
X91301000Y-103469804D01*
X91271050Y-103465964D01*
X91212083Y-103455896D01*
X91194153Y-103446925D01*
X91212503Y-103436106D01*
X91219110Y-103433796D01*
X91256431Y-103409996D01*
X91258044Y-103366600D01*
X91256844Y-103361584D01*
X91253234Y-103321033D01*
X91262811Y-103308401D01*
X91289060Y-103324862D01*
G37*
G36*
X89639570Y-104302722D02*
G01*
X89660834Y-104319286D01*
X89644882Y-104335658D01*
X89598787Y-104342588D01*
X89535575Y-104344045D01*
X89593041Y-104369561D01*
X89632399Y-104388425D01*
X89631183Y-104397494D01*
X89598787Y-104404182D01*
X89558359Y-104423733D01*
X89547068Y-104446168D01*
X89530666Y-104475658D01*
X89517728Y-104479049D01*
X89498621Y-104461254D01*
X89495708Y-104405098D01*
X89497156Y-104387104D01*
X89505686Y-104328182D01*
X89524380Y-104301984D01*
X89565694Y-104295320D01*
X89583962Y-104295158D01*
X89639570Y-104302722D01*
G37*
G36*
X89448153Y-104303062D02*
G01*
X89472903Y-104355334D01*
X89460118Y-104419798D01*
X89419030Y-104468151D01*
X89360501Y-104474525D01*
X89311457Y-104454222D01*
X89274765Y-104412326D01*
X89272623Y-104378411D01*
X89324674Y-104378411D01*
X89330729Y-104413378D01*
X89358585Y-104429482D01*
X89388044Y-104410597D01*
X89405002Y-104368063D01*
X89398766Y-104326768D01*
X89378728Y-104318144D01*
X89343268Y-104337100D01*
X89324674Y-104378411D01*
X89272623Y-104378411D01*
X89271475Y-104360230D01*
X89295691Y-104311596D01*
X89341518Y-104280085D01*
X89388297Y-104276154D01*
X89448153Y-104303062D01*
G37*
G36*
X90836962Y-103944292D02*
G01*
X90872484Y-103988873D01*
X90880281Y-104030814D01*
X90863348Y-104094225D01*
X90820739Y-104127618D01*
X90764738Y-104126905D01*
X90707798Y-104088187D01*
X90679946Y-104044672D01*
X90682658Y-104025052D01*
X90740398Y-104025052D01*
X90751356Y-104065181D01*
X90758165Y-104073435D01*
X90790755Y-104083379D01*
X90816754Y-104058755D01*
X90822815Y-104029213D01*
X90804805Y-103989328D01*
X90782588Y-103977724D01*
X90752500Y-103989270D01*
X90740398Y-104025052D01*
X90682658Y-104025052D01*
X90686311Y-103998630D01*
X90692249Y-103984748D01*
X90732547Y-103938726D01*
X90785551Y-103926408D01*
X90836962Y-103944292D01*
G37*
G36*
X87861281Y-102395320D02*
G01*
X87891921Y-102417974D01*
X87879396Y-102453071D01*
X87840326Y-102486714D01*
X87788606Y-102522792D01*
X87840326Y-102523997D01*
X87885848Y-102530899D01*
X87893488Y-102544654D01*
X87869568Y-102559496D01*
X87820411Y-102569655D01*
X87788606Y-102571176D01*
X87719260Y-102566254D01*
X87688327Y-102550077D01*
X87685168Y-102538245D01*
X87704311Y-102505470D01*
X87731140Y-102490724D01*
X87768289Y-102470087D01*
X87777113Y-102454695D01*
X87757847Y-102437273D01*
X87731140Y-102433257D01*
X87693788Y-102423631D01*
X87685168Y-102410271D01*
X87705713Y-102396562D01*
X87757694Y-102388339D01*
X87788606Y-102387285D01*
X87861281Y-102395320D01*
G37*
G36*
X90645507Y-104037773D02*
G01*
X90673424Y-104081786D01*
X90698806Y-104134346D01*
X90713147Y-104178439D01*
X90711673Y-104195590D01*
X90682123Y-104198189D01*
X90638666Y-104184291D01*
X90598128Y-104168907D01*
X90588273Y-104181640D01*
X90595087Y-104215037D01*
X90599241Y-104260434D01*
X90583131Y-104269482D01*
X90552209Y-104243938D01*
X90513834Y-104188822D01*
X90482064Y-104125409D01*
X90482286Y-104093678D01*
X90515947Y-104090954D01*
X90559348Y-104104561D01*
X90606980Y-104115147D01*
X90628977Y-104107002D01*
X90616770Y-104085491D01*
X90604069Y-104076555D01*
X90592156Y-104049788D01*
X90608363Y-104023635D01*
X90623559Y-104019321D01*
X90645507Y-104037773D01*
G37*
G36*
X87873396Y-102599381D02*
G01*
X87888622Y-102624754D01*
X87887952Y-102677100D01*
X87887686Y-102680362D01*
X87879228Y-102737328D01*
X87857083Y-102763159D01*
X87806856Y-102772686D01*
X87797278Y-102773520D01*
X87733468Y-102771376D01*
X87702325Y-102748911D01*
X87699586Y-102742907D01*
X87689702Y-102697481D01*
X87732935Y-102697481D01*
X87747259Y-102717551D01*
X87784871Y-102728518D01*
X87825504Y-102712368D01*
X87840337Y-102691855D01*
X87829119Y-102669397D01*
X87790522Y-102663122D01*
X87741820Y-102672406D01*
X87732935Y-102697481D01*
X87689702Y-102697481D01*
X87684415Y-102673185D01*
X87705166Y-102629633D01*
X87757000Y-102608529D01*
X87832710Y-102595725D01*
X87873396Y-102599381D01*
G37*
G36*
X87970766Y-103086961D02*
G01*
X87969529Y-103124884D01*
X87944706Y-103168708D01*
X87921895Y-103204531D01*
X87929259Y-103212230D01*
X87955999Y-103204891D01*
X88002373Y-103198790D01*
X88016081Y-103214112D01*
X87998333Y-103241205D01*
X87950341Y-103270416D01*
X87947631Y-103271566D01*
X87888616Y-103295815D01*
X87858733Y-103304341D01*
X87844503Y-103298683D01*
X87834981Y-103284404D01*
X87836264Y-103250972D01*
X87857245Y-103207018D01*
X87880033Y-103168457D01*
X87871806Y-103157696D01*
X87835214Y-103163076D01*
X87788712Y-103165358D01*
X87779294Y-103151060D01*
X87804076Y-103126317D01*
X87860174Y-103097266D01*
X87867538Y-103094304D01*
X87936103Y-103076125D01*
X87970766Y-103086961D01*
G37*
G36*
X87856545Y-102919179D02*
G01*
X87901659Y-102929925D01*
X87934759Y-102957701D01*
X87925781Y-102996405D01*
X87876098Y-103041951D01*
X87860599Y-103052016D01*
X87799749Y-103087379D01*
X87769484Y-103095157D01*
X87762391Y-103073639D01*
X87769068Y-103030905D01*
X87771779Y-102984932D01*
X87823086Y-102984932D01*
X87840578Y-103007250D01*
X87846073Y-103007918D01*
X87868391Y-102990426D01*
X87869059Y-102984932D01*
X87851567Y-102962613D01*
X87846073Y-102961945D01*
X87823754Y-102979437D01*
X87823086Y-102984932D01*
X87771779Y-102984932D01*
X87772174Y-102978230D01*
X87757000Y-102961945D01*
X87732417Y-102946077D01*
X87731140Y-102938959D01*
X87750891Y-102923397D01*
X87798509Y-102916496D01*
X87856545Y-102919179D01*
G37*
G36*
X88129624Y-103470182D02*
G01*
X88112218Y-103541018D01*
X88109587Y-103548099D01*
X88100959Y-103578656D01*
X88115644Y-103572074D01*
X88123124Y-103565339D01*
X88163962Y-103541262D01*
X88200076Y-103539201D01*
X88213855Y-103557718D01*
X88196304Y-103580297D01*
X88154216Y-103613910D01*
X88103441Y-103647625D01*
X88059828Y-103670512D01*
X88044491Y-103674524D01*
X88031735Y-103655704D01*
X88029964Y-103638534D01*
X88040473Y-103589495D01*
X88054690Y-103556341D01*
X88068799Y-103524543D01*
X88053833Y-103524509D01*
X88029735Y-103536728D01*
X87982199Y-103553971D01*
X87965848Y-103543334D01*
X87982024Y-103511903D01*
X88018471Y-103477201D01*
X88081096Y-103436987D01*
X88118699Y-103435077D01*
X88129624Y-103470182D01*
G37*
G36*
X89667212Y-105047963D02*
G01*
X89659219Y-105120105D01*
X89651898Y-105155225D01*
X89642407Y-105162139D01*
X89632788Y-105154754D01*
X89618357Y-105119547D01*
X89616027Y-105095852D01*
X89600534Y-105062147D01*
X89568753Y-105054837D01*
X89542732Y-105078407D01*
X89541880Y-105080766D01*
X89518802Y-105095606D01*
X89505485Y-105090903D01*
X89478761Y-105061929D01*
X89493641Y-105039764D01*
X89545759Y-105030727D01*
X89547068Y-105030724D01*
X89600969Y-105024564D01*
X89614499Y-105010091D01*
X89590969Y-104993315D01*
X89533694Y-104980248D01*
X89518335Y-104978595D01*
X89468293Y-104973579D01*
X89457839Y-104970332D01*
X89489230Y-104967884D01*
X89548199Y-104965780D01*
X89675755Y-104961764D01*
X89667212Y-105047963D01*
G37*
G36*
X91616897Y-102295696D02*
G01*
X91606282Y-102328723D01*
X91577804Y-102368235D01*
X91553397Y-102399336D01*
X91565029Y-102409430D01*
X91591213Y-102410271D01*
X91631781Y-102417391D01*
X91636083Y-102434239D01*
X91610766Y-102454044D01*
X91562476Y-102470037D01*
X91527861Y-102474805D01*
X91467418Y-102477395D01*
X91439877Y-102466596D01*
X91432300Y-102432514D01*
X91431978Y-102403571D01*
X91464293Y-102403571D01*
X91467416Y-102411859D01*
X91489606Y-102432242D01*
X91500465Y-102409027D01*
X91500914Y-102397421D01*
X91489605Y-102373746D01*
X91477553Y-102376023D01*
X91464293Y-102403571D01*
X91431978Y-102403571D01*
X91431955Y-102401456D01*
X91441025Y-102335467D01*
X91464838Y-102302278D01*
X91498299Y-102307716D01*
X91507200Y-102315417D01*
X91538407Y-102325870D01*
X91574157Y-102302956D01*
X91606001Y-102283754D01*
X91616897Y-102295696D01*
G37*
G36*
X89519054Y-102621453D02*
G01*
X89535575Y-102628248D01*
X89611286Y-102649276D01*
X89699264Y-102657914D01*
X89779298Y-102653306D01*
X89822424Y-102640393D01*
X89864375Y-102626448D01*
X89890194Y-102630706D01*
X89888252Y-102648225D01*
X89871744Y-102661351D01*
X89863148Y-102679053D01*
X89896462Y-102698889D01*
X89912636Y-102704878D01*
X89962237Y-102729227D01*
X89979829Y-102766480D01*
X89980366Y-102805591D01*
X89977447Y-102851819D01*
X89973597Y-102854332D01*
X89967510Y-102819976D01*
X89952259Y-102777783D01*
X89914262Y-102747435D01*
X89851927Y-102722284D01*
X89761017Y-102695493D01*
X89689335Y-102688145D01*
X89614802Y-102699499D01*
X89566975Y-102712733D01*
X89506637Y-102737151D01*
X89481198Y-102768109D01*
X89478109Y-102791829D01*
X89469071Y-102839050D01*
X89455122Y-102858506D01*
X89439351Y-102848944D01*
X89432260Y-102802536D01*
X89432136Y-102793396D01*
X89438261Y-102736663D01*
X89463499Y-102708740D01*
X89491631Y-102699146D01*
X89531745Y-102684577D01*
X89532927Y-102663743D01*
X89520364Y-102646378D01*
X89502200Y-102619977D01*
X89519054Y-102621453D01*
G37*
G36*
X90098742Y-104269298D02*
G01*
X90079518Y-104290297D01*
X90052769Y-104295158D01*
X90015428Y-104305425D01*
X90006797Y-104319693D01*
X90024692Y-104333770D01*
X90052769Y-104329638D01*
X90089788Y-104327439D01*
X90098742Y-104339582D01*
X90079505Y-104359511D01*
X90052769Y-104364117D01*
X90015417Y-104373743D01*
X90006797Y-104387104D01*
X90026468Y-104404383D01*
X90064263Y-104410090D01*
X90111440Y-104416992D01*
X90118949Y-104432797D01*
X90090124Y-104450149D01*
X90041448Y-104460405D01*
X89986881Y-104462925D01*
X89961015Y-104445384D01*
X89947364Y-104396190D01*
X89946944Y-104393961D01*
X89925967Y-104335180D01*
X89899466Y-104317931D01*
X89877209Y-104341635D01*
X89868878Y-104398597D01*
X89861401Y-104458101D01*
X89837539Y-104478904D01*
X89834398Y-104479049D01*
X89807025Y-104458490D01*
X89799919Y-104410090D01*
X89789639Y-104355343D01*
X89765439Y-104341131D01*
X89734827Y-104330293D01*
X89730959Y-104321106D01*
X89751596Y-104307096D01*
X89804516Y-104292812D01*
X89849115Y-104285407D01*
X89932329Y-104273495D01*
X90007479Y-104261315D01*
X90033006Y-104256586D01*
X90083391Y-104254234D01*
X90098742Y-104269298D01*
G37*
G36*
X89306677Y-104960860D02*
G01*
X89326882Y-104978448D01*
X89319722Y-104993305D01*
X89301002Y-105033755D01*
X89288202Y-105088190D01*
X89281709Y-105125646D01*
X89277845Y-105122485D01*
X89275059Y-105076204D01*
X89274675Y-105066352D01*
X89266458Y-105010801D01*
X89251033Y-104997590D01*
X89233430Y-105024747D01*
X89218978Y-105088190D01*
X89211393Y-105127891D01*
X89206028Y-105132498D01*
X89205716Y-105130568D01*
X89184694Y-105113428D01*
X89160440Y-105114926D01*
X89112602Y-105108075D01*
X89088666Y-105089788D01*
X89081636Y-105076696D01*
X89110326Y-105076696D01*
X89115899Y-105096958D01*
X89142110Y-105094330D01*
X89165912Y-105085730D01*
X89191925Y-105059997D01*
X89202152Y-105021661D01*
X89193906Y-104991012D01*
X89179285Y-104984751D01*
X89158892Y-105003369D01*
X89156299Y-105019230D01*
X89143887Y-105049820D01*
X89133312Y-105053710D01*
X89110994Y-105071202D01*
X89110326Y-105076696D01*
X89081636Y-105076696D01*
X89072615Y-105059895D01*
X89084525Y-105053710D01*
X89108218Y-105039318D01*
X89106792Y-105009668D01*
X89084279Y-104985049D01*
X89070100Y-104981139D01*
X89067098Y-104976834D01*
X89101886Y-104969560D01*
X89144806Y-104963656D01*
X89245296Y-104955812D01*
X89306677Y-104960860D01*
G37*
G36*
X90441515Y-104133742D02*
G01*
X90473469Y-104174550D01*
X90488459Y-104201149D01*
X90511234Y-104261101D01*
X90513553Y-104302358D01*
X90498458Y-104317063D01*
X90468990Y-104297357D01*
X90456990Y-104282455D01*
X90421419Y-104255862D01*
X90394274Y-104267602D01*
X90389150Y-104310329D01*
X90390911Y-104318167D01*
X90391154Y-104355808D01*
X90371216Y-104361767D01*
X90342508Y-104337765D01*
X90325155Y-104308256D01*
X90289663Y-104269561D01*
X90240808Y-104255360D01*
X90195742Y-104266413D01*
X90171973Y-104301446D01*
X90181701Y-104339546D01*
X90214683Y-104358823D01*
X90250819Y-104350680D01*
X90260717Y-104339399D01*
X90285330Y-104320237D01*
X90301602Y-104335680D01*
X90297737Y-104374492D01*
X90297688Y-104374619D01*
X90267889Y-104398272D01*
X90215383Y-104410082D01*
X90162541Y-104407243D01*
X90137053Y-104394766D01*
X90125769Y-104362567D01*
X90121729Y-104315122D01*
X90139358Y-104256889D01*
X90182425Y-104217227D01*
X90236201Y-104208163D01*
X90248465Y-104211644D01*
X90281333Y-104207280D01*
X90288904Y-104196174D01*
X90305503Y-104181602D01*
X90335355Y-104199445D01*
X90376886Y-104217941D01*
X90405476Y-104206240D01*
X90406492Y-104170333D01*
X90406488Y-104170322D01*
X90409030Y-104133759D01*
X90418104Y-104124273D01*
X90441515Y-104133742D01*
G37*
G36*
X88269039Y-103635220D02*
G01*
X88291803Y-103660057D01*
X88321915Y-103699001D01*
X88373226Y-103754931D01*
X88418188Y-103799776D01*
X88519082Y-103896497D01*
X88450594Y-103973149D01*
X88402604Y-104019680D01*
X88373311Y-104029189D01*
X88364428Y-104021200D01*
X88367442Y-103985284D01*
X88403263Y-103932204D01*
X88412476Y-103921952D01*
X88446328Y-103882821D01*
X88456134Y-103865344D01*
X88451055Y-103866729D01*
X88417219Y-103866022D01*
X88408403Y-103857062D01*
X88382003Y-103851620D01*
X88339557Y-103882082D01*
X88290619Y-103915523D01*
X88259249Y-103916722D01*
X88254077Y-103891569D01*
X88283729Y-103845957D01*
X88284867Y-103844738D01*
X88318029Y-103804223D01*
X88320248Y-103776172D01*
X88301088Y-103749471D01*
X88266552Y-103701997D01*
X88251997Y-103674524D01*
X88244345Y-103671006D01*
X88242533Y-103705141D01*
X88243251Y-103719815D01*
X88240555Y-103777972D01*
X88219237Y-103804183D01*
X88207005Y-103807912D01*
X88154692Y-103801319D01*
X88132299Y-103788540D01*
X88107500Y-103751993D01*
X88099422Y-103709114D01*
X88109797Y-103678923D01*
X88121910Y-103674524D01*
X88140586Y-103693777D01*
X88144896Y-103720497D01*
X88154558Y-103757849D01*
X88167970Y-103766470D01*
X88182066Y-103746527D01*
X88185611Y-103697899D01*
X88185210Y-103691764D01*
X88186474Y-103639183D01*
X88205704Y-103618891D01*
X88222843Y-103617058D01*
X88269039Y-103635220D01*
G37*
G36*
X91192309Y-103496239D02*
G01*
X91191952Y-103523734D01*
X91170721Y-103556156D01*
X91145308Y-103591142D01*
X91153227Y-103615536D01*
X91166738Y-103627827D01*
X91209397Y-103644532D01*
X91250953Y-103636944D01*
X91270979Y-103609141D01*
X91271050Y-103607008D01*
X91254230Y-103593742D01*
X91236570Y-103597253D01*
X91207322Y-103597379D01*
X91205876Y-103573720D01*
X91232933Y-103539627D01*
X91233520Y-103539137D01*
X91266948Y-103526752D01*
X91294366Y-103548496D01*
X91311619Y-103599115D01*
X91294686Y-103650889D01*
X91252210Y-103688257D01*
X91211617Y-103697511D01*
X91169096Y-103703982D01*
X91163186Y-103727824D01*
X91165673Y-103735229D01*
X91164486Y-103779983D01*
X91141229Y-103831163D01*
X91106959Y-103869946D01*
X91080882Y-103879588D01*
X91033176Y-103869514D01*
X91023682Y-103866091D01*
X90977373Y-103828416D01*
X90961642Y-103775636D01*
X90967558Y-103750380D01*
X91018199Y-103750380D01*
X91033179Y-103791918D01*
X91045783Y-103807846D01*
X91079563Y-103821227D01*
X91103354Y-103801083D01*
X91103576Y-103759719D01*
X91102425Y-103756522D01*
X91076339Y-103727788D01*
X91042007Y-103722001D01*
X91019593Y-103740630D01*
X91018199Y-103750380D01*
X90967558Y-103750380D01*
X90974045Y-103722685D01*
X91012136Y-103684498D01*
X91055037Y-103674524D01*
X91096430Y-103667769D01*
X91102370Y-103641565D01*
X91099669Y-103631755D01*
X91102148Y-103592065D01*
X91123199Y-103545985D01*
X91153033Y-103507834D01*
X91181863Y-103491930D01*
X91192309Y-103496239D01*
G37*
G36*
X90196858Y-100697972D02*
G01*
X90275788Y-100725961D01*
X90292009Y-100731949D01*
X90378711Y-100765884D01*
X90449680Y-100797009D01*
X90492952Y-100819966D01*
X90498887Y-100824601D01*
X90508842Y-100840816D01*
X90483765Y-100834603D01*
X90452294Y-100836814D01*
X90442530Y-100862497D01*
X90457594Y-100893073D01*
X90472272Y-100903000D01*
X90476652Y-100910087D01*
X90450495Y-100907383D01*
X90405308Y-100913312D01*
X90392350Y-100935862D01*
X90384167Y-100959705D01*
X90372168Y-100941462D01*
X90368154Y-100931513D01*
X90352787Y-100875850D01*
X90365349Y-100850661D01*
X90386073Y-100847194D01*
X90416662Y-100834782D01*
X90420552Y-100824208D01*
X90413111Y-100801817D01*
X90410939Y-100801221D01*
X90383823Y-100794098D01*
X90367269Y-100788152D01*
X90338147Y-100794722D01*
X90311404Y-100841570D01*
X90303715Y-100862858D01*
X90284530Y-100916261D01*
X90273220Y-100929917D01*
X90263894Y-100907942D01*
X90260179Y-100893288D01*
X90235719Y-100847034D01*
X90207001Y-100828405D01*
X90178923Y-100833058D01*
X90181011Y-100862764D01*
X90187551Y-100889675D01*
X90175088Y-100875474D01*
X90171120Y-100869481D01*
X90143841Y-100812602D01*
X90145211Y-100778790D01*
X90224738Y-100778790D01*
X90228633Y-100808219D01*
X90230582Y-100810467D01*
X90263427Y-100823463D01*
X90282127Y-100798720D01*
X90282634Y-100791085D01*
X90270180Y-100752971D01*
X90262056Y-100745244D01*
X90239492Y-100750311D01*
X90224738Y-100778790D01*
X90145211Y-100778790D01*
X90145374Y-100774758D01*
X90161955Y-100764913D01*
X90201952Y-100758715D01*
X90207928Y-100757611D01*
X90204280Y-100743350D01*
X90172351Y-100713101D01*
X90167702Y-100709420D01*
X90147181Y-100690494D01*
X90155444Y-100686414D01*
X90196858Y-100697972D01*
G37*
G36*
X88091795Y-101459479D02*
G01*
X88087948Y-101466989D01*
X88091556Y-101498290D01*
X88121671Y-101535705D01*
X88163271Y-101565628D01*
X88201333Y-101574455D01*
X88205333Y-101573307D01*
X88227563Y-101572701D01*
X88225186Y-101583023D01*
X88194355Y-101599161D01*
X88141080Y-101605746D01*
X88092533Y-101599903D01*
X88081707Y-101579585D01*
X88083967Y-101572003D01*
X88086215Y-101535045D01*
X88065072Y-101526327D01*
X88036062Y-101549609D01*
X88030371Y-101559013D01*
X88019346Y-101594099D01*
X88037557Y-101622303D01*
X88075108Y-101647854D01*
X88117068Y-101679144D01*
X88131502Y-101702162D01*
X88130095Y-101704831D01*
X88102540Y-101704431D01*
X88055145Y-101683778D01*
X88050432Y-101681055D01*
X88001234Y-101659643D01*
X87969052Y-101659249D01*
X87967650Y-101660398D01*
X87968576Y-101684487D01*
X87984183Y-101697842D01*
X88028986Y-101727761D01*
X88064444Y-101754774D01*
X88095364Y-101781337D01*
X88088162Y-101785284D01*
X88056368Y-101777046D01*
X88020118Y-101770773D01*
X88010262Y-101787994D01*
X88017968Y-101833322D01*
X88023988Y-101884672D01*
X88005653Y-101903612D01*
X87966751Y-101902271D01*
X87954449Y-101883549D01*
X87955258Y-101879285D01*
X87941083Y-101862623D01*
X87915032Y-101858597D01*
X87877689Y-101868784D01*
X87869059Y-101882940D01*
X87883576Y-101895653D01*
X87895597Y-101890881D01*
X87911327Y-101888172D01*
X87905734Y-101901018D01*
X87875268Y-101926635D01*
X87851573Y-101911174D01*
X87846073Y-101881009D01*
X87862430Y-101841636D01*
X87913562Y-101820963D01*
X87966998Y-101800531D01*
X87993886Y-101771660D01*
X87987494Y-101744309D01*
X87971654Y-101735029D01*
X87935189Y-101741723D01*
X87916339Y-101761859D01*
X87898368Y-101787585D01*
X87893013Y-101773034D01*
X87892744Y-101764468D01*
X87903701Y-101731248D01*
X87932442Y-101674578D01*
X87971767Y-101606227D01*
X88014479Y-101537961D01*
X88053377Y-101481549D01*
X88081263Y-101448756D01*
X88088285Y-101444841D01*
X88091795Y-101459479D01*
G37*
G36*
X88549555Y-103925579D02*
G01*
X88597738Y-103948795D01*
X88639616Y-103976184D01*
X88697067Y-104019104D01*
X88723110Y-104048225D01*
X88723966Y-104076166D01*
X88707109Y-104113113D01*
X88687408Y-104164589D01*
X88697066Y-104191807D01*
X88700142Y-104193926D01*
X88730969Y-104189736D01*
X88766982Y-104156589D01*
X88793434Y-104109198D01*
X88815988Y-104108160D01*
X88869329Y-104121150D01*
X88942018Y-104144019D01*
X89022618Y-104172615D01*
X89099688Y-104202788D01*
X89161792Y-104230386D01*
X89197490Y-104251259D01*
X89201893Y-104257424D01*
X89183355Y-104267271D01*
X89144806Y-104262732D01*
X89101221Y-104259496D01*
X89087340Y-104271734D01*
X89105951Y-104292513D01*
X89121819Y-104295158D01*
X89152396Y-104308389D01*
X89156299Y-104319693D01*
X89138403Y-104333770D01*
X89110326Y-104329638D01*
X89072486Y-104326141D01*
X89067328Y-104342824D01*
X89093882Y-104368543D01*
X89114675Y-104379546D01*
X89146614Y-104400474D01*
X89141671Y-104413347D01*
X89108711Y-104414698D01*
X89058184Y-104401655D01*
X89014757Y-104378262D01*
X88999824Y-104341347D01*
X89000718Y-104298741D01*
X88996991Y-104235970D01*
X88977636Y-104212194D01*
X88949421Y-104229925D01*
X88926793Y-104271305D01*
X88901518Y-104319059D01*
X88879075Y-104340978D01*
X88877673Y-104341131D01*
X88859992Y-104322931D01*
X88861229Y-104278973D01*
X88880524Y-104226082D01*
X88890428Y-104182738D01*
X88871913Y-104163601D01*
X88838630Y-104174346D01*
X88816039Y-104199289D01*
X88766452Y-104239743D01*
X88705715Y-104245944D01*
X88652153Y-104216401D01*
X88649068Y-104212863D01*
X88630786Y-104171755D01*
X88641960Y-104115594D01*
X88643699Y-104110903D01*
X88653791Y-104055380D01*
X88636801Y-104031523D01*
X88601526Y-104042255D01*
X88561613Y-104083630D01*
X88522354Y-104123973D01*
X88498838Y-104125443D01*
X88497360Y-104094158D01*
X88519999Y-104043182D01*
X88543366Y-103988422D01*
X88535655Y-103961849D01*
X88522141Y-103934123D01*
X88525348Y-103925472D01*
X88549555Y-103925579D01*
G37*
G36*
X90587593Y-100866304D02*
G01*
X90593957Y-100871016D01*
X90625042Y-100917221D01*
X90612253Y-100960357D01*
X90575711Y-100984396D01*
X90542808Y-100999181D01*
X90550264Y-101005015D01*
X90589356Y-101006642D01*
X90643869Y-100996201D01*
X90666743Y-100962126D01*
X90682495Y-100925027D01*
X90693324Y-100916374D01*
X90715912Y-100928744D01*
X90762891Y-100960679D01*
X90824260Y-101004746D01*
X90890018Y-101053505D01*
X90950166Y-101099523D01*
X90994703Y-101135361D01*
X91013629Y-101153584D01*
X91013482Y-101154452D01*
X90993767Y-101170301D01*
X90952360Y-101206616D01*
X90931885Y-101225024D01*
X90887579Y-101260022D01*
X90860855Y-101271284D01*
X90857294Y-101266607D01*
X90874225Y-101231218D01*
X90880656Y-101226238D01*
X90894871Y-101201454D01*
X90874438Y-101178347D01*
X90832951Y-101169004D01*
X90796439Y-101154280D01*
X90788335Y-101134524D01*
X90802650Y-101104260D01*
X90839396Y-101107114D01*
X90881935Y-101136022D01*
X90918928Y-101156703D01*
X90935735Y-101149273D01*
X90928012Y-101123002D01*
X90891445Y-101085684D01*
X90877035Y-101074747D01*
X90804289Y-101022947D01*
X90751356Y-101089331D01*
X90713606Y-101128572D01*
X90686733Y-101142203D01*
X90683293Y-101140583D01*
X90685696Y-101114473D01*
X90711521Y-101070515D01*
X90716442Y-101064074D01*
X90745192Y-101016288D01*
X90751149Y-100981285D01*
X90750033Y-100978929D01*
X90727630Y-100976329D01*
X90691569Y-101013248D01*
X90650687Y-101076651D01*
X90632814Y-101091769D01*
X90604925Y-101078996D01*
X90557940Y-101034149D01*
X90557552Y-101033743D01*
X90513459Y-100981134D01*
X90503829Y-100949693D01*
X90512680Y-100939028D01*
X90520255Y-100926476D01*
X90550607Y-100926476D01*
X90551628Y-100949800D01*
X90571135Y-100947003D01*
X90600817Y-100924372D01*
X90604444Y-100913694D01*
X90591853Y-100893772D01*
X90566626Y-100902911D01*
X90550607Y-100926476D01*
X90520255Y-100926476D01*
X90530138Y-100910099D01*
X90526561Y-100897325D01*
X90524592Y-100868370D01*
X90550587Y-100855824D01*
X90587593Y-100866304D01*
G37*
G36*
X91153490Y-101304552D02*
G01*
X91198250Y-101355767D01*
X91252650Y-101429795D01*
X91310493Y-101517868D01*
X91365579Y-101611219D01*
X91396283Y-101669202D01*
X91434535Y-101746415D01*
X91463188Y-101806143D01*
X91477268Y-101837959D01*
X91477928Y-101840350D01*
X91458692Y-101848832D01*
X91434737Y-101852067D01*
X91392116Y-101836017D01*
X91367059Y-101805239D01*
X91351766Y-101777592D01*
X91349150Y-101787993D01*
X91355657Y-101829864D01*
X91360542Y-101881281D01*
X91346360Y-101901717D01*
X91322355Y-101904570D01*
X91277937Y-101888649D01*
X91262016Y-101868210D01*
X91249324Y-101825268D01*
X91254750Y-101816637D01*
X91272891Y-101841357D01*
X91304526Y-101877244D01*
X91326665Y-101873906D01*
X91328803Y-101834200D01*
X91327091Y-101826625D01*
X91326649Y-101775178D01*
X91349835Y-101753039D01*
X91385430Y-101767306D01*
X91398274Y-101781589D01*
X91424205Y-101809104D01*
X91429496Y-101798359D01*
X91413706Y-101752393D01*
X91405279Y-101733253D01*
X91380537Y-101690260D01*
X91350946Y-101677791D01*
X91302742Y-101693458D01*
X91269908Y-101709775D01*
X91225567Y-101724644D01*
X91200252Y-101720402D01*
X91204343Y-101701964D01*
X91222919Y-101687532D01*
X91234672Y-101657851D01*
X91231457Y-101627659D01*
X91231786Y-101625181D01*
X91253078Y-101625181D01*
X91259733Y-101648073D01*
X91281110Y-101648168D01*
X91313495Y-101630035D01*
X91318237Y-101617239D01*
X91302231Y-101595878D01*
X91272729Y-101600835D01*
X91253078Y-101625181D01*
X91231786Y-101625181D01*
X91238584Y-101574036D01*
X91260083Y-101550738D01*
X91285494Y-101521827D01*
X91274375Y-101504362D01*
X91239892Y-101505670D01*
X91189116Y-101530025D01*
X91178947Y-101536899D01*
X91130612Y-101564576D01*
X91111765Y-101562602D01*
X91123469Y-101537455D01*
X91166789Y-101495616D01*
X91171549Y-101491823D01*
X91212142Y-101449453D01*
X91209772Y-101420341D01*
X91170725Y-101409245D01*
X91119211Y-101423388D01*
X91074504Y-101454753D01*
X91057282Y-101483762D01*
X91049020Y-101502651D01*
X91044650Y-101477104D01*
X91044204Y-101467828D01*
X91049953Y-101408908D01*
X91068056Y-101369319D01*
X91091915Y-101359025D01*
X91107272Y-101372589D01*
X91129685Y-101390566D01*
X91143730Y-101377329D01*
X91144712Y-101339761D01*
X91132296Y-101317409D01*
X91118123Y-101290693D01*
X91124570Y-101284915D01*
X91153490Y-101304552D01*
G37*
G36*
X88485750Y-101042354D02*
G01*
X88483024Y-101045416D01*
X88486944Y-101070441D01*
X88513465Y-101117027D01*
X88530784Y-101141149D01*
X88562856Y-101189129D01*
X88567028Y-101210759D01*
X88558523Y-101210271D01*
X88514744Y-101213865D01*
X88487270Y-101230024D01*
X88441221Y-101251329D01*
X88403616Y-101240692D01*
X88389319Y-101204305D01*
X88391564Y-101190164D01*
X88392808Y-101158041D01*
X88366201Y-101159566D01*
X88366037Y-101159629D01*
X88332857Y-101186446D01*
X88340427Y-101227936D01*
X88376489Y-101274283D01*
X88403718Y-101313846D01*
X88402465Y-101338468D01*
X88401990Y-101338780D01*
X88375395Y-101331725D01*
X88342469Y-101295543D01*
X88342265Y-101295232D01*
X88308617Y-101254264D01*
X88282285Y-101237963D01*
X88261076Y-101253035D01*
X88266891Y-101289108D01*
X88296613Y-101332471D01*
X88305801Y-101341402D01*
X88340141Y-101380224D01*
X88351774Y-101405994D01*
X88337917Y-101410369D01*
X88309097Y-101390358D01*
X88274239Y-101364987D01*
X88249912Y-101372936D01*
X88237323Y-101386795D01*
X88219858Y-101423764D01*
X88236842Y-101456334D01*
X88250869Y-101483842D01*
X88227164Y-101486040D01*
X88196616Y-101475591D01*
X88170131Y-101445998D01*
X88178819Y-101403180D01*
X88202918Y-101375421D01*
X88226323Y-101346654D01*
X88225813Y-101334205D01*
X88202761Y-101339847D01*
X88161334Y-101369259D01*
X88151601Y-101377707D01*
X88113421Y-101410781D01*
X88104736Y-101413293D01*
X88121507Y-101386126D01*
X88122959Y-101383978D01*
X88160058Y-101331180D01*
X88205094Y-101269509D01*
X88208525Y-101264913D01*
X88239289Y-101212756D01*
X88239406Y-101182505D01*
X88237063Y-101180634D01*
X88212482Y-101187714D01*
X88192977Y-101219247D01*
X88176476Y-101254973D01*
X88164234Y-101249871D01*
X88155342Y-101229897D01*
X88155000Y-101185291D01*
X88189359Y-101159668D01*
X88248811Y-101159759D01*
X88253793Y-101160935D01*
X88304418Y-101157614D01*
X88333579Y-101139884D01*
X88409761Y-101139884D01*
X88419418Y-101155926D01*
X88432523Y-101188672D01*
X88428196Y-101199852D01*
X88430285Y-101213927D01*
X88438532Y-101214977D01*
X88473332Y-101198038D01*
X88478822Y-101190984D01*
X88479220Y-101157657D01*
X88456754Y-101124687D01*
X88426459Y-101110837D01*
X88417012Y-101113838D01*
X88409761Y-101139884D01*
X88333579Y-101139884D01*
X88365694Y-101120358D01*
X88386955Y-101102512D01*
X88437853Y-101060304D01*
X88474219Y-101034667D01*
X88482830Y-101031086D01*
X88485750Y-101042354D01*
G37*
G36*
X88504967Y-104872365D02*
G01*
X88547159Y-104892805D01*
X88664366Y-104930167D01*
X88776302Y-104938778D01*
X88915273Y-104938778D01*
X88906878Y-105044331D01*
X88896547Y-105108460D01*
X88881659Y-105128180D01*
X88865703Y-105104344D01*
X88852167Y-105037808D01*
X88851300Y-105030724D01*
X88845455Y-104986426D01*
X88841948Y-104982396D01*
X88839380Y-105020960D01*
X88838168Y-105052561D01*
X88833246Y-105113854D01*
X88822702Y-105135594D01*
X88806905Y-105127267D01*
X88760509Y-105102712D01*
X88739302Y-105099683D01*
X88693744Y-105084922D01*
X88685354Y-105061979D01*
X88711044Y-105061979D01*
X88720450Y-105074090D01*
X88738300Y-105072111D01*
X88771839Y-105046130D01*
X88784368Y-105013249D01*
X88782702Y-104970669D01*
X88764639Y-104966724D01*
X88737208Y-105000490D01*
X88726807Y-105020805D01*
X88711044Y-105061979D01*
X88685354Y-105061979D01*
X88680897Y-105049789D01*
X88694392Y-105021855D01*
X88708259Y-104988717D01*
X88704033Y-104976889D01*
X88673815Y-104962240D01*
X88655829Y-104991348D01*
X88649866Y-105059457D01*
X88647710Y-105117803D01*
X88640106Y-105136873D01*
X88623548Y-105123324D01*
X88619184Y-105117722D01*
X88587844Y-105092539D01*
X88563994Y-105103535D01*
X88526785Y-105117855D01*
X88487994Y-105106989D01*
X88468896Y-105078185D01*
X88469253Y-105071257D01*
X88464180Y-105027813D01*
X88453092Y-104996244D01*
X88439492Y-104975081D01*
X88430047Y-104988814D01*
X88421603Y-105042699D01*
X88420733Y-105050141D01*
X88410483Y-105106126D01*
X88397738Y-105133118D01*
X88392000Y-105132509D01*
X88380138Y-105099315D01*
X88374785Y-105042555D01*
X88374760Y-105038386D01*
X88366984Y-104983217D01*
X88346543Y-104961428D01*
X88346027Y-104961412D01*
X88331004Y-104954263D01*
X88341957Y-104944172D01*
X88360038Y-104922303D01*
X88420733Y-104922303D01*
X88438928Y-104935166D01*
X88464986Y-104932567D01*
X88497116Y-104932235D01*
X88496894Y-104953165D01*
X88499665Y-104996192D01*
X88512922Y-105019523D01*
X88529097Y-105047229D01*
X88514137Y-105053710D01*
X88497814Y-105067614D01*
X88501224Y-105076759D01*
X88528982Y-105087716D01*
X88566424Y-105071763D01*
X88596582Y-105039453D01*
X88604273Y-105012675D01*
X88587728Y-104950234D01*
X88534917Y-104907003D01*
X88508828Y-104895711D01*
X88450529Y-104883406D01*
X88423352Y-104903573D01*
X88420733Y-104922303D01*
X88360038Y-104922303D01*
X88370832Y-104909248D01*
X88381462Y-104887058D01*
X88403425Y-104855523D01*
X88441836Y-104850530D01*
X88504967Y-104872365D01*
G37*
G36*
X91638573Y-102509271D02*
G01*
X91638833Y-102515105D01*
X91625968Y-102544789D01*
X91615846Y-102548190D01*
X91597170Y-102567442D01*
X91592860Y-102594162D01*
X91602486Y-102631515D01*
X91615846Y-102640135D01*
X91637762Y-102657943D01*
X91638833Y-102665614D01*
X91620101Y-102680998D01*
X91584627Y-102677487D01*
X91546204Y-102673008D01*
X91537575Y-102695412D01*
X91541695Y-102722856D01*
X91561215Y-102771753D01*
X91584407Y-102793895D01*
X91614422Y-102816181D01*
X91603970Y-102837529D01*
X91557920Y-102849388D01*
X91552634Y-102849680D01*
X91517877Y-102854155D01*
X91526493Y-102861990D01*
X91529632Y-102862855D01*
X91567366Y-102893177D01*
X91586076Y-102946355D01*
X91580396Y-103001348D01*
X91569626Y-103019710D01*
X91525485Y-103046700D01*
X91485250Y-103053891D01*
X91447909Y-103061516D01*
X91443448Y-103076877D01*
X91475870Y-103096187D01*
X91502271Y-103099864D01*
X91540671Y-103110115D01*
X91540909Y-103132915D01*
X91503736Y-103156339D01*
X91498600Y-103158064D01*
X91466714Y-103176245D01*
X91475614Y-103198690D01*
X91502418Y-103236668D01*
X91490571Y-103255134D01*
X91443619Y-103252821D01*
X91378380Y-103233433D01*
X91333271Y-103210086D01*
X91323006Y-103176413D01*
X91327918Y-103149049D01*
X91328629Y-103147193D01*
X91362996Y-103147193D01*
X91380528Y-103168204D01*
X91385982Y-103168823D01*
X91406155Y-103150113D01*
X91408968Y-103132987D01*
X91397825Y-103109195D01*
X91385982Y-103111357D01*
X91363872Y-103140744D01*
X91362996Y-103147193D01*
X91328629Y-103147193D01*
X91348634Y-103094945D01*
X91370000Y-103065384D01*
X91388252Y-103027112D01*
X91390407Y-102981312D01*
X91394092Y-102962547D01*
X91430627Y-102962547D01*
X91448074Y-102993388D01*
X91484653Y-103005037D01*
X91521732Y-102989533D01*
X91535394Y-102961630D01*
X91515827Y-102932140D01*
X91483674Y-102920120D01*
X91441839Y-102929647D01*
X91430627Y-102962547D01*
X91394092Y-102962547D01*
X91404259Y-102910768D01*
X91434968Y-102872126D01*
X91466919Y-102838803D01*
X91464999Y-102825682D01*
X91447345Y-102824027D01*
X91420772Y-102814579D01*
X91419128Y-102778447D01*
X91422781Y-102760814D01*
X91425034Y-102755067D01*
X91454941Y-102755067D01*
X91472433Y-102777386D01*
X91477928Y-102778054D01*
X91500246Y-102760562D01*
X91500914Y-102755067D01*
X91483422Y-102732749D01*
X91477928Y-102732081D01*
X91455609Y-102749573D01*
X91454941Y-102755067D01*
X91425034Y-102755067D01*
X91444857Y-102704490D01*
X91469867Y-102671587D01*
X91490143Y-102648328D01*
X91469697Y-102633090D01*
X91467110Y-102632082D01*
X91433699Y-102605689D01*
X91438296Y-102585258D01*
X91508816Y-102585258D01*
X91512407Y-102594162D01*
X91533063Y-102616091D01*
X91536750Y-102617149D01*
X91546623Y-102599364D01*
X91546887Y-102594162D01*
X91529216Y-102572059D01*
X91522544Y-102571176D01*
X91508816Y-102585258D01*
X91438296Y-102585258D01*
X91441173Y-102572468D01*
X91486169Y-102538072D01*
X91535394Y-102517266D01*
X91598276Y-102497726D01*
X91629129Y-102495135D01*
X91638573Y-102509271D01*
G37*
G36*
X90237511Y-104865149D02*
G01*
X90259647Y-104892805D01*
X90272392Y-104910863D01*
X90293041Y-104923469D01*
X90329100Y-104931592D01*
X90388081Y-104936204D01*
X90477491Y-104938276D01*
X90604840Y-104938776D01*
X90615300Y-104938778D01*
X90946350Y-104938778D01*
X90933048Y-105024977D01*
X90920694Y-105091032D01*
X90910577Y-105119794D01*
X90904390Y-105108105D01*
X90903267Y-105080527D01*
X90885427Y-105042047D01*
X90845436Y-105028243D01*
X90803609Y-105046098D01*
X90804835Y-105071793D01*
X90830421Y-105107232D01*
X90866396Y-105136772D01*
X90892522Y-105145656D01*
X90929585Y-105161721D01*
X90949240Y-105180135D01*
X90968714Y-105206922D01*
X90961244Y-105210772D01*
X90922484Y-105190774D01*
X90880281Y-105165663D01*
X90806070Y-105111954D01*
X90768167Y-105065265D01*
X90767709Y-105029936D01*
X90805833Y-105010308D01*
X90838905Y-105007737D01*
X90886539Y-105003300D01*
X90892596Y-104988754D01*
X90887678Y-104982954D01*
X90848346Y-104967223D01*
X90796882Y-104965714D01*
X90752879Y-104975990D01*
X90734464Y-105002968D01*
X90730869Y-105057289D01*
X90726814Y-105108764D01*
X90716758Y-105131181D01*
X90713629Y-105130639D01*
X90702236Y-105102758D01*
X90696539Y-105048027D01*
X90696389Y-105037029D01*
X90692503Y-104987686D01*
X90682863Y-104969031D01*
X90679832Y-104970659D01*
X90670363Y-105002584D01*
X90668326Y-105059941D01*
X90668967Y-105072183D01*
X90670339Y-105124632D01*
X90662478Y-105138040D01*
X90645298Y-105122492D01*
X90600152Y-105097109D01*
X90567143Y-105094974D01*
X90521280Y-105086076D01*
X90504652Y-105066418D01*
X90504262Y-105055395D01*
X90535484Y-105055395D01*
X90548634Y-105076145D01*
X90577895Y-105070644D01*
X90607985Y-105046229D01*
X90623282Y-105013249D01*
X90619886Y-104973357D01*
X90606042Y-104961764D01*
X90584240Y-104980357D01*
X90581457Y-104996244D01*
X90569045Y-105026834D01*
X90558471Y-105030724D01*
X90536421Y-105048435D01*
X90535484Y-105055395D01*
X90504262Y-105055395D01*
X90503578Y-105036084D01*
X90513219Y-105030724D01*
X90532976Y-105012095D01*
X90535484Y-104996244D01*
X90517084Y-104965769D01*
X90501005Y-104961764D01*
X90470530Y-104980164D01*
X90466525Y-104996244D01*
X90447361Y-105024324D01*
X90420552Y-105030724D01*
X90383186Y-105039457D01*
X90374579Y-105051558D01*
X90392824Y-105063550D01*
X90419301Y-105060697D01*
X90453940Y-105061690D01*
X90460523Y-105095463D01*
X90454426Y-105125661D01*
X90433933Y-105127946D01*
X90392815Y-105108719D01*
X90346011Y-105073198D01*
X90330002Y-105037584D01*
X90346765Y-105012829D01*
X90374579Y-105007737D01*
X90411921Y-104997450D01*
X90420552Y-104983152D01*
X90401510Y-104966836D01*
X90368833Y-104965912D01*
X90332329Y-104981365D01*
X90311534Y-105022686D01*
X90303135Y-105065203D01*
X90289157Y-105157149D01*
X90285896Y-105070950D01*
X90278375Y-105015499D01*
X90263822Y-104986148D01*
X90259647Y-104984751D01*
X90244435Y-105005075D01*
X90235546Y-105055463D01*
X90234846Y-105070950D01*
X90231156Y-105118478D01*
X90224135Y-105132720D01*
X90221451Y-105128455D01*
X90191589Y-105110141D01*
X90154520Y-105113654D01*
X90106833Y-105114479D01*
X90083393Y-105084881D01*
X90058274Y-105040600D01*
X90042953Y-105025329D01*
X90044388Y-105013531D01*
X90081668Y-105008117D01*
X90084317Y-105008089D01*
X90128088Y-105011225D01*
X90133371Y-105025863D01*
X90121268Y-105042772D01*
X90104253Y-105078196D01*
X90108062Y-105093679D01*
X90138393Y-105097852D01*
X90173941Y-105074255D01*
X90198759Y-105035925D01*
X90202181Y-105016725D01*
X90192610Y-104987729D01*
X90156571Y-104972323D01*
X90104489Y-104966189D01*
X90006797Y-104959121D01*
X90006797Y-105053745D01*
X90001945Y-105113390D01*
X89988589Y-105135424D01*
X89983435Y-105133931D01*
X89971447Y-105104926D01*
X89975893Y-105092348D01*
X89972229Y-105086051D01*
X89942502Y-105106220D01*
X89936438Y-105111176D01*
X89905431Y-105134063D01*
X89905290Y-105126169D01*
X89910087Y-105119607D01*
X89926762Y-105087499D01*
X89906853Y-105069758D01*
X89903944Y-105068609D01*
X89874651Y-105037127D01*
X89868878Y-105010374D01*
X89868077Y-105007737D01*
X89914851Y-105007737D01*
X89924477Y-105045089D01*
X89937837Y-105053710D01*
X89956513Y-105034458D01*
X89960824Y-105007737D01*
X89951198Y-104970385D01*
X89937837Y-104961764D01*
X89919161Y-104981017D01*
X89914851Y-105007737D01*
X89868077Y-105007737D01*
X89855938Y-104967795D01*
X89840145Y-104954001D01*
X89849042Y-104948961D01*
X89895739Y-104944497D01*
X89972064Y-104941183D01*
X90041276Y-104939828D01*
X90271140Y-104937248D01*
X90216874Y-104892040D01*
X90184429Y-104860178D01*
X90189261Y-104847578D01*
X90198826Y-104846832D01*
X90237511Y-104865149D01*
G37*
G36*
X89871580Y-100555486D02*
G01*
X89919845Y-100594383D01*
X89937837Y-100617330D01*
X89964479Y-100661451D01*
X89969426Y-100685051D01*
X89966443Y-100686289D01*
X89947828Y-100706154D01*
X89926954Y-100755546D01*
X89921810Y-100772488D01*
X89897674Y-100858687D01*
X89894769Y-100760995D01*
X89890979Y-100699799D01*
X89876666Y-100671885D01*
X89840094Y-100664578D01*
X89805665Y-100664760D01*
X89753791Y-100667044D01*
X89743381Y-100673325D01*
X89769940Y-100686503D01*
X89771186Y-100687005D01*
X89803457Y-100715362D01*
X89822139Y-100758723D01*
X89823903Y-100800301D01*
X89805425Y-100823306D01*
X89798370Y-100824208D01*
X89784293Y-100806312D01*
X89788426Y-100778235D01*
X89790033Y-100740953D01*
X89766988Y-100732262D01*
X89737233Y-100751510D01*
X89730959Y-100778673D01*
X89723693Y-100810472D01*
X89693108Y-100815229D01*
X89667747Y-100810185D01*
X89614087Y-100792995D01*
X89584242Y-100776812D01*
X89573463Y-100745671D01*
X89616027Y-100745671D01*
X89629426Y-100770843D01*
X89656997Y-100766829D01*
X89679719Y-100736572D01*
X89669715Y-100713124D01*
X89652422Y-100709276D01*
X89620758Y-100727783D01*
X89616027Y-100745671D01*
X89573463Y-100745671D01*
X89572089Y-100741701D01*
X89593581Y-100704612D01*
X89639621Y-100680493D01*
X89643355Y-100679709D01*
X89662758Y-100672661D01*
X89636863Y-100667829D01*
X89610281Y-100666433D01*
X89553897Y-100667117D01*
X89529745Y-100683075D01*
X89524172Y-100726769D01*
X89524082Y-100745112D01*
X89518637Y-100797414D01*
X89504233Y-100814050D01*
X89501095Y-100812714D01*
X89484534Y-100781640D01*
X89478109Y-100730905D01*
X89471328Y-100683076D01*
X89455122Y-100663303D01*
X89438983Y-100683277D01*
X89432138Y-100731404D01*
X89432136Y-100732262D01*
X89426184Y-100785653D01*
X89404143Y-100798125D01*
X89363177Y-100776133D01*
X89342364Y-100753194D01*
X89357430Y-100740090D01*
X89384844Y-100714446D01*
X89380607Y-100687042D01*
X89349487Y-100677597D01*
X89342651Y-100678985D01*
X89315336Y-100693878D01*
X89306833Y-100727743D01*
X89311670Y-100783791D01*
X89316118Y-100843564D01*
X89307139Y-100863829D01*
X89297716Y-100860850D01*
X89278588Y-100828066D01*
X89271231Y-100776878D01*
X89261432Y-100724000D01*
X89234731Y-100709276D01*
X89212591Y-100717218D01*
X89207153Y-100748496D01*
X89214256Y-100804130D01*
X89218542Y-100865002D01*
X89208467Y-100885428D01*
X89190802Y-100865792D01*
X89172316Y-100806477D01*
X89171336Y-100801700D01*
X89151416Y-100751701D01*
X89123590Y-100732262D01*
X89102703Y-100740012D01*
X89104263Y-100771034D01*
X89114206Y-100802471D01*
X89127104Y-100855698D01*
X89114519Y-100888651D01*
X89095770Y-100905179D01*
X89050449Y-100931377D01*
X89024936Y-100938409D01*
X88991806Y-100919776D01*
X88965103Y-100875762D01*
X88959300Y-100846473D01*
X88972407Y-100846473D01*
X88989701Y-100858257D01*
X89012634Y-100853662D01*
X89039479Y-100846729D01*
X89031697Y-100864250D01*
X89021312Y-100877370D01*
X89001757Y-100907168D01*
X89015602Y-100915907D01*
X89024600Y-100916153D01*
X89063049Y-100897804D01*
X89071815Y-100883891D01*
X89076716Y-100838528D01*
X89066785Y-100789755D01*
X89047369Y-100758327D01*
X89038686Y-100755248D01*
X89020659Y-100773906D01*
X89018380Y-100789728D01*
X89005968Y-100820318D01*
X88995394Y-100824208D01*
X88973070Y-100841172D01*
X88972407Y-100846473D01*
X88959300Y-100846473D01*
X88955396Y-100826772D01*
X88958627Y-100810386D01*
X88961120Y-100789218D01*
X88935694Y-100796463D01*
X88924134Y-100802452D01*
X88890183Y-100836715D01*
X88892780Y-100866197D01*
X88911796Y-100922385D01*
X88919255Y-100950633D01*
X88924270Y-100981889D01*
X88910986Y-100972569D01*
X88899408Y-100958371D01*
X88860485Y-100904816D01*
X88842931Y-100877918D01*
X88815624Y-100848068D01*
X88799226Y-100853776D01*
X88797794Y-100885142D01*
X88815387Y-100932265D01*
X88818457Y-100937647D01*
X88850011Y-100996724D01*
X88855116Y-101024430D01*
X88840235Y-101027407D01*
X88806976Y-101022110D01*
X88753135Y-101014819D01*
X88694548Y-100995430D01*
X88657255Y-100964245D01*
X88646595Y-100935194D01*
X88646847Y-100934787D01*
X88702226Y-100934787D01*
X88708064Y-100962126D01*
X88737357Y-100984248D01*
X88761517Y-100971022D01*
X88765530Y-100951990D01*
X88752548Y-100913529D01*
X88744131Y-100905642D01*
X88716878Y-100907190D01*
X88702226Y-100934787D01*
X88646847Y-100934787D01*
X88662355Y-100909720D01*
X88711816Y-100877338D01*
X88721369Y-100871924D01*
X88782571Y-100832232D01*
X88808763Y-100803525D01*
X88798059Y-100789709D01*
X88759783Y-100792352D01*
X88724728Y-100797934D01*
X88732973Y-100790565D01*
X88754036Y-100780322D01*
X88783628Y-100763993D01*
X88772282Y-100756977D01*
X88742543Y-100754198D01*
X88708094Y-100749265D01*
X88717636Y-100741695D01*
X88727014Y-100739074D01*
X88776727Y-100744563D01*
X88807466Y-100762825D01*
X88832297Y-100779509D01*
X88863864Y-100783209D01*
X88913972Y-100772836D01*
X88994429Y-100747303D01*
X89001461Y-100744934D01*
X89085201Y-100713400D01*
X89125898Y-100688029D01*
X89125475Y-100665420D01*
X89085855Y-100642173D01*
X89064353Y-100633724D01*
X89043264Y-100623018D01*
X89067013Y-100619158D01*
X89067285Y-100619145D01*
X89112609Y-100633934D01*
X89133312Y-100651809D01*
X89179245Y-100683700D01*
X89221501Y-100671277D01*
X89246556Y-100631504D01*
X89294217Y-100631504D01*
X89306377Y-100657461D01*
X89345937Y-100654804D01*
X89402464Y-100643254D01*
X89432136Y-100640278D01*
X89455021Y-100636614D01*
X89437846Y-100621058D01*
X89432136Y-100617330D01*
X89378879Y-100596802D01*
X89328475Y-100597633D01*
X89297476Y-100618122D01*
X89294217Y-100631504D01*
X89246556Y-100631504D01*
X89248245Y-100628823D01*
X89286318Y-100584771D01*
X89346729Y-100570194D01*
X89415161Y-100586817D01*
X89444982Y-100605106D01*
X89502163Y-100627226D01*
X89597126Y-100638441D01*
X89642079Y-100639585D01*
X89725144Y-100638310D01*
X89773197Y-100631490D01*
X89797128Y-100616129D01*
X89806579Y-100594343D01*
X89808629Y-100591137D01*
X89836380Y-100591137D01*
X89836826Y-100621926D01*
X89871200Y-100639472D01*
X89883481Y-100640316D01*
X89902973Y-100624051D01*
X89900177Y-100605837D01*
X89873895Y-100574018D01*
X89843324Y-100582067D01*
X89836380Y-100591137D01*
X89808629Y-100591137D01*
X89831676Y-100555097D01*
X89871580Y-100555486D01*
G37*
G36*
X89797534Y-100952765D02*
G01*
X89898709Y-100955845D01*
X89977132Y-100962740D01*
X90044406Y-100974888D01*
X90112137Y-100993732D01*
X90179195Y-101016249D01*
X90440416Y-101130002D01*
X90671600Y-101277657D01*
X90871041Y-101457499D01*
X91037036Y-101667812D01*
X91167877Y-101906879D01*
X91233294Y-102076968D01*
X91286342Y-102308626D01*
X91301570Y-102554764D01*
X91280129Y-102805472D01*
X91223168Y-103050840D01*
X91131837Y-103280958D01*
X91083039Y-103371472D01*
X90987240Y-103507895D01*
X90861383Y-103648895D01*
X90718254Y-103782372D01*
X90570634Y-103896222D01*
X90453731Y-103967209D01*
X90222894Y-104066448D01*
X89980353Y-104133876D01*
X89737379Y-104167331D01*
X89505245Y-104164650D01*
X89455122Y-104158771D01*
X89181728Y-104098914D01*
X88929624Y-103998385D01*
X88699310Y-103857433D01*
X88501186Y-103686348D01*
X88329102Y-103490967D01*
X88198831Y-103290573D01*
X88106319Y-103077004D01*
X88047514Y-102842101D01*
X88032919Y-102743574D01*
X88027992Y-102614595D01*
X88147373Y-102614595D01*
X88151343Y-102661343D01*
X88163702Y-102682009D01*
X88184072Y-102686460D01*
X88234838Y-102696068D01*
X88271132Y-102729219D01*
X88298736Y-102793942D01*
X88318210Y-102872728D01*
X88333926Y-102953358D01*
X88337993Y-103002728D01*
X88329576Y-103034260D01*
X88307837Y-103061376D01*
X88306346Y-103062897D01*
X88283612Y-103089214D01*
X88277192Y-103115207D01*
X88288486Y-103154137D01*
X88318892Y-103219264D01*
X88323931Y-103229549D01*
X88359852Y-103298473D01*
X88388882Y-103335339D01*
X88422803Y-103350100D01*
X88469703Y-103352714D01*
X88527077Y-103358897D01*
X88573900Y-103383676D01*
X88626602Y-103436402D01*
X88636126Y-103447411D01*
X88695888Y-103533043D01*
X88722088Y-103616289D01*
X88724116Y-103635595D01*
X88732067Y-103691769D01*
X88752710Y-103730636D01*
X88796707Y-103766370D01*
X88844416Y-103795534D01*
X88914526Y-103833248D01*
X88961783Y-103847547D01*
X89000568Y-103841977D01*
X89012588Y-103837014D01*
X89083199Y-103825681D01*
X89171117Y-103839156D01*
X89259244Y-103871751D01*
X89330486Y-103917778D01*
X89359837Y-103952547D01*
X89379205Y-103983632D01*
X89401161Y-104003116D01*
X89435971Y-104013717D01*
X89493903Y-104018155D01*
X89585225Y-104019149D01*
X89611476Y-104019175D01*
X89825297Y-104019321D01*
X89847855Y-103954611D01*
X89865662Y-103917693D01*
X89895303Y-103894372D01*
X89949131Y-103878023D01*
X90012277Y-103866439D01*
X90100860Y-103854927D01*
X90160492Y-103856627D01*
X90206456Y-103872236D01*
X90212640Y-103875554D01*
X90247869Y-103891293D01*
X90282162Y-103891917D01*
X90328893Y-103874622D01*
X90401434Y-103836605D01*
X90403312Y-103835574D01*
X90477318Y-103791678D01*
X90517898Y-103756881D01*
X90533916Y-103722253D01*
X90535484Y-103702401D01*
X90554390Y-103640334D01*
X90602869Y-103571475D01*
X90668562Y-103507879D01*
X90739110Y-103461602D01*
X90799718Y-103444660D01*
X90838427Y-103440456D01*
X90870202Y-103422244D01*
X90903748Y-103381622D01*
X90947771Y-103310189D01*
X90958793Y-103291128D01*
X91003725Y-103209250D01*
X91026412Y-103155419D01*
X91030056Y-103119394D01*
X91020229Y-103094572D01*
X91005293Y-103037934D01*
X91008762Y-102959874D01*
X91026885Y-102876211D01*
X91055914Y-102802769D01*
X91092098Y-102755368D01*
X91102043Y-102749340D01*
X91132113Y-102730342D01*
X91149116Y-102699723D01*
X91157288Y-102645081D01*
X91160223Y-102578980D01*
X91162667Y-102493363D01*
X91164817Y-102420030D01*
X91165969Y-102382398D01*
X91153786Y-102340845D01*
X91107280Y-102314478D01*
X91095381Y-102310824D01*
X91054404Y-102295121D01*
X91028819Y-102269191D01*
X91010952Y-102220727D01*
X90995799Y-102151079D01*
X90981690Y-102063273D01*
X90981635Y-102004785D01*
X90995719Y-101961131D01*
X90996926Y-101958834D01*
X91009545Y-101925581D01*
X91005715Y-101890758D01*
X90981623Y-101842056D01*
X90941115Y-101778670D01*
X90889287Y-101706579D01*
X90848629Y-101667301D01*
X90809632Y-101652590D01*
X90794717Y-101651719D01*
X90736544Y-101633803D01*
X90669227Y-101588032D01*
X90605081Y-101526372D01*
X90556421Y-101460787D01*
X90535562Y-101403243D01*
X90535461Y-101399829D01*
X90516837Y-101353923D01*
X90469754Y-101306124D01*
X90407342Y-101264372D01*
X90342731Y-101236612D01*
X90289053Y-101230785D01*
X90269758Y-101239111D01*
X90239554Y-101253218D01*
X90191192Y-101253855D01*
X90112864Y-101240888D01*
X90094970Y-101237163D01*
X90014424Y-101217381D01*
X89967056Y-101196268D01*
X89940437Y-101166693D01*
X89929338Y-101142143D01*
X89915940Y-101111020D01*
X89897770Y-101091842D01*
X89864769Y-101081717D01*
X89806878Y-101077753D01*
X89714038Y-101077059D01*
X89702934Y-101077058D01*
X89606117Y-101077844D01*
X89546400Y-101081563D01*
X89514916Y-101090259D01*
X89502802Y-101105977D01*
X89501095Y-101123600D01*
X89480262Y-101162119D01*
X89426259Y-101195127D01*
X89351829Y-101219438D01*
X89269716Y-101231866D01*
X89192663Y-101229224D01*
X89141875Y-101213408D01*
X89110521Y-101201036D01*
X89076098Y-101201594D01*
X89027837Y-101217954D01*
X88954965Y-101252989D01*
X88914066Y-101274153D01*
X88829755Y-101319623D01*
X88779556Y-101352029D01*
X88756092Y-101378109D01*
X88751984Y-101404602D01*
X88754768Y-101419636D01*
X88746985Y-101473601D01*
X88708630Y-101536778D01*
X88650496Y-101598324D01*
X88583379Y-101647395D01*
X88518075Y-101673147D01*
X88500841Y-101674705D01*
X88463181Y-101678158D01*
X88434078Y-101694268D01*
X88405567Y-101731665D01*
X88369684Y-101798979D01*
X88351161Y-101836877D01*
X88312081Y-101921623D01*
X88293383Y-101974848D01*
X88292881Y-102005084D01*
X88304612Y-102018767D01*
X88320401Y-102035724D01*
X88324809Y-102067204D01*
X88317794Y-102123914D01*
X88303919Y-102194695D01*
X88284290Y-102279021D01*
X88265579Y-102328501D01*
X88242129Y-102353787D01*
X88213855Y-102364305D01*
X88183001Y-102375113D01*
X88164959Y-102396927D01*
X88155455Y-102440894D01*
X88150213Y-102518160D01*
X88149592Y-102531907D01*
X88147373Y-102614595D01*
X88027992Y-102614595D01*
X88022849Y-102479937D01*
X88056261Y-102221548D01*
X88130670Y-101973319D01*
X88243585Y-101740162D01*
X88392520Y-101526991D01*
X88574987Y-101338717D01*
X88788497Y-101180254D01*
X88840357Y-101149326D01*
X88922750Y-101107483D01*
X89027754Y-101061285D01*
X89134086Y-101020035D01*
X89144806Y-101016249D01*
X89222135Y-100990536D01*
X89289082Y-100972750D01*
X89357251Y-100961451D01*
X89438248Y-100955197D01*
X89543676Y-100952549D01*
X89662000Y-100952058D01*
X89797534Y-100952765D01*
G37*
G36*
X89811673Y-100358080D02*
G01*
X90036748Y-100380679D01*
X90213938Y-100416359D01*
X90525185Y-100521000D01*
X90811350Y-100663182D01*
X91070178Y-100840709D01*
X91299413Y-101051385D01*
X91496800Y-101293014D01*
X91660083Y-101563399D01*
X91787007Y-101860343D01*
X91827486Y-101987435D01*
X91847936Y-102064341D01*
X91862381Y-102137465D01*
X91871816Y-102217418D01*
X91877236Y-102314811D01*
X91879636Y-102440257D01*
X91880050Y-102548190D01*
X91878308Y-102722924D01*
X91871530Y-102864054D01*
X91857607Y-102983854D01*
X91834430Y-103094602D01*
X91799889Y-103208571D01*
X91751875Y-103338038D01*
X91738533Y-103371726D01*
X91612403Y-103629135D01*
X91446986Y-103873944D01*
X91248618Y-104099195D01*
X91023636Y-104297933D01*
X90778380Y-104463200D01*
X90709760Y-104501048D01*
X90649451Y-104535704D01*
X90616703Y-104560639D01*
X90618188Y-104570708D01*
X90619349Y-104570729D01*
X90652996Y-104568110D01*
X90725752Y-104560872D01*
X90831061Y-104549720D01*
X90962368Y-104535360D01*
X91113119Y-104518498D01*
X91259557Y-104501816D01*
X91421261Y-104483363D01*
X91568562Y-104466782D01*
X91695097Y-104452772D01*
X91794502Y-104442029D01*
X91860412Y-104435254D01*
X91885937Y-104433123D01*
X91908874Y-104439091D01*
X91908594Y-104460204D01*
X91882421Y-104501114D01*
X91827679Y-104566473D01*
X91776751Y-104622914D01*
X91715343Y-104692108D01*
X91668259Y-104749313D01*
X91642578Y-104785739D01*
X91639882Y-104792890D01*
X91657536Y-104814858D01*
X91703521Y-104856021D01*
X91768955Y-104908585D01*
X91790024Y-104924639D01*
X91857567Y-104977544D01*
X91906449Y-105019775D01*
X91928666Y-105044267D01*
X91928862Y-105047180D01*
X91904273Y-105056194D01*
X91842824Y-105074567D01*
X91752162Y-105100129D01*
X91639930Y-105130709D01*
X91554603Y-105153418D01*
X91419740Y-105189285D01*
X91322916Y-105216443D01*
X91257650Y-105237666D01*
X91217467Y-105255731D01*
X91195887Y-105273411D01*
X91186434Y-105293481D01*
X91183324Y-105312461D01*
X91176051Y-105375520D01*
X89660473Y-105375520D01*
X88144896Y-105375520D01*
X88144896Y-105322002D01*
X88138467Y-105288997D01*
X88111982Y-105266890D01*
X88054641Y-105248459D01*
X88024217Y-105241299D01*
X87951558Y-105224822D01*
X87849095Y-105201444D01*
X87731821Y-105174591D01*
X87640384Y-105153592D01*
X87377230Y-105093069D01*
X87402969Y-105069466D01*
X87467962Y-105069466D01*
X87754709Y-105139412D01*
X87896389Y-105174510D01*
X87999102Y-105198324D01*
X88069061Y-105208085D01*
X88112477Y-105201023D01*
X88135561Y-105174370D01*
X88144524Y-105125357D01*
X88145579Y-105051216D01*
X88144896Y-104965479D01*
X88144896Y-104754886D01*
X88190869Y-104754886D01*
X88190869Y-105042217D01*
X88190869Y-105329547D01*
X89662000Y-105329547D01*
X91133131Y-105329547D01*
X91133131Y-105042217D01*
X91133131Y-104754886D01*
X89662000Y-104754886D01*
X88190869Y-104754886D01*
X88144896Y-104754886D01*
X88144896Y-104716342D01*
X88249903Y-104698605D01*
X88557233Y-104698605D01*
X88585580Y-104703782D01*
X88657129Y-104706358D01*
X88713810Y-104707099D01*
X88807452Y-104706975D01*
X88864161Y-104703113D01*
X88892938Y-104693586D01*
X88897345Y-104685927D01*
X88949421Y-104685927D01*
X88969721Y-104700620D01*
X89020057Y-104708247D01*
X89035620Y-104708562D01*
X89087896Y-104705467D01*
X89088095Y-104705284D01*
X90202181Y-104705284D01*
X90298517Y-104707099D01*
X90361852Y-104702856D01*
X90403837Y-104690047D01*
X90410004Y-104684398D01*
X90412470Y-104673642D01*
X90443539Y-104673642D01*
X90451537Y-104691779D01*
X90481199Y-104702277D01*
X90541023Y-104706725D01*
X90621683Y-104706938D01*
X90709707Y-104704203D01*
X90752113Y-104698469D01*
X90748782Y-104689755D01*
X90742362Y-104687578D01*
X90685841Y-104674393D01*
X90606863Y-104660447D01*
X90564217Y-104654283D01*
X90492771Y-104647068D01*
X90456094Y-104650846D01*
X90443944Y-104667258D01*
X90443539Y-104673642D01*
X90412470Y-104673642D01*
X90417031Y-104653742D01*
X90385130Y-104647518D01*
X90314318Y-104665729D01*
X90301310Y-104670225D01*
X90202181Y-104705284D01*
X89088095Y-104705284D01*
X89098632Y-104695577D01*
X89087340Y-104685927D01*
X89041071Y-104668187D01*
X88991011Y-104664304D01*
X88955760Y-104674278D01*
X88949421Y-104685927D01*
X88897345Y-104685927D01*
X88902789Y-104676466D01*
X88903448Y-104666487D01*
X88900551Y-104645301D01*
X88885513Y-104635439D01*
X88848815Y-104636261D01*
X88780939Y-104647128D01*
X88736797Y-104655292D01*
X88632300Y-104675578D01*
X88572626Y-104689609D01*
X88557233Y-104698605D01*
X88249903Y-104698605D01*
X88392000Y-104674603D01*
X88512707Y-104652947D01*
X88610359Y-104632949D01*
X88679706Y-104615935D01*
X88715498Y-104603235D01*
X88712486Y-104596175D01*
X88704899Y-104595438D01*
X88675394Y-104592609D01*
X88607006Y-104585476D01*
X88506551Y-104574769D01*
X88380845Y-104561215D01*
X88236700Y-104545545D01*
X88154107Y-104536515D01*
X87958765Y-104514880D01*
X87805383Y-104498137D01*
X87690133Y-104487028D01*
X87609190Y-104482294D01*
X87558728Y-104484677D01*
X87534920Y-104494917D01*
X87533940Y-104513757D01*
X87551962Y-104541937D01*
X87585159Y-104580199D01*
X87629707Y-104629285D01*
X87636423Y-104636828D01*
X87776305Y-104794607D01*
X87622133Y-104932036D01*
X87467962Y-105069466D01*
X87402969Y-105069466D01*
X87542827Y-104941217D01*
X87708423Y-104789366D01*
X87568812Y-104623040D01*
X87509619Y-104549312D01*
X87465468Y-104488097D01*
X87442323Y-104448013D01*
X87440756Y-104438017D01*
X87466035Y-104434777D01*
X87530084Y-104436383D01*
X87626011Y-104442380D01*
X87746919Y-104452311D01*
X87885916Y-104465721D01*
X87930776Y-104470425D01*
X88084306Y-104486814D01*
X88231546Y-104502516D01*
X88362980Y-104516516D01*
X88469093Y-104527802D01*
X88540370Y-104535360D01*
X88547159Y-104536077D01*
X88685077Y-104550627D01*
X88516513Y-104446042D01*
X88406912Y-104376827D01*
X88323076Y-104319661D01*
X88250972Y-104263582D01*
X88176568Y-104197626D01*
X88085830Y-104110829D01*
X88079200Y-104104368D01*
X87907427Y-103917034D01*
X87763804Y-103714416D01*
X87638099Y-103481944D01*
X87629733Y-103464234D01*
X87564058Y-103317111D01*
X87515529Y-103188183D01*
X87481712Y-103065436D01*
X87460168Y-102936860D01*
X87448464Y-102790442D01*
X87444161Y-102614172D01*
X87443950Y-102548190D01*
X87444487Y-102458304D01*
X87507670Y-102458304D01*
X87510690Y-102749190D01*
X87545076Y-103013392D01*
X87613252Y-103259949D01*
X87717643Y-103497899D01*
X87843882Y-103711131D01*
X88030006Y-103952764D01*
X88248541Y-104166103D01*
X88494060Y-104347698D01*
X88761136Y-104494101D01*
X89044342Y-104601861D01*
X89338250Y-104667529D01*
X89351683Y-104669445D01*
X89448261Y-104677774D01*
X89574103Y-104681608D01*
X89712741Y-104681126D01*
X89847705Y-104676509D01*
X89962525Y-104667937D01*
X90006797Y-104662291D01*
X90202276Y-104617120D01*
X90689470Y-104617120D01*
X90702367Y-104626700D01*
X90752071Y-104639407D01*
X90829702Y-104653243D01*
X90884855Y-104661105D01*
X91005107Y-104676309D01*
X91087410Y-104689525D01*
X91138892Y-104707796D01*
X91166679Y-104738162D01*
X91177901Y-104787668D01*
X91179685Y-104863355D01*
X91179104Y-104951820D01*
X91181377Y-105070354D01*
X91187989Y-105150311D01*
X91198628Y-105188622D01*
X91203435Y-105191629D01*
X91233984Y-105186332D01*
X91299681Y-105171880D01*
X91391114Y-105150429D01*
X91498871Y-105124133D01*
X91508005Y-105121863D01*
X91617609Y-105094333D01*
X91712442Y-105070060D01*
X91782761Y-105051567D01*
X91818823Y-105041382D01*
X91819754Y-105041066D01*
X91820313Y-105022487D01*
X91784412Y-104982369D01*
X91714588Y-104923523D01*
X91711606Y-104921194D01*
X91645174Y-104867911D01*
X91595582Y-104825262D01*
X91571789Y-104801028D01*
X91570911Y-104799030D01*
X91584817Y-104777051D01*
X91622765Y-104730091D01*
X91677566Y-104666906D01*
X91699131Y-104642873D01*
X91756924Y-104576873D01*
X91799028Y-104524653D01*
X91818811Y-104494610D01*
X91819180Y-104490830D01*
X91794073Y-104489997D01*
X91730983Y-104494076D01*
X91637540Y-104502215D01*
X91521370Y-104513561D01*
X91390101Y-104527262D01*
X91251361Y-104542464D01*
X91112779Y-104558316D01*
X90981982Y-104573963D01*
X90866597Y-104588554D01*
X90774253Y-104601237D01*
X90712578Y-104611157D01*
X90689470Y-104617120D01*
X90202276Y-104617120D01*
X90305998Y-104593152D01*
X90588602Y-104483456D01*
X90851102Y-104336546D01*
X91089989Y-104155766D01*
X91301756Y-103944458D01*
X91482894Y-103705965D01*
X91629896Y-103443630D01*
X91739254Y-103160796D01*
X91789282Y-102963644D01*
X91810419Y-102812077D01*
X91819824Y-102635216D01*
X91817990Y-102447624D01*
X91805410Y-102263861D01*
X91782574Y-102098488D01*
X91756251Y-101985848D01*
X91647272Y-101696792D01*
X91500748Y-101425936D01*
X91321240Y-101180959D01*
X91201462Y-101051431D01*
X90966189Y-100848729D01*
X90713346Y-100685857D01*
X90446831Y-100562140D01*
X90170545Y-100476901D01*
X89888387Y-100429464D01*
X89604257Y-100419152D01*
X89322055Y-100445289D01*
X89045680Y-100507200D01*
X88779032Y-100604206D01*
X88526010Y-100735633D01*
X88290515Y-100900803D01*
X88076446Y-101099040D01*
X87887702Y-101329669D01*
X87728185Y-101592012D01*
X87694669Y-101659646D01*
X87622909Y-101823271D01*
X87571787Y-101973668D01*
X87537703Y-102126226D01*
X87517052Y-102296331D01*
X87507670Y-102458304D01*
X87444487Y-102458304D01*
X87444851Y-102397325D01*
X87448089Y-102281803D01*
X87454659Y-102191010D01*
X87465556Y-102114337D01*
X87481774Y-102041170D01*
X87496514Y-101987435D01*
X87608089Y-101680318D01*
X87756847Y-101398988D01*
X87940540Y-101145595D01*
X88156919Y-100922292D01*
X88403738Y-100731229D01*
X88678747Y-100574555D01*
X88979699Y-100454424D01*
X89149242Y-100406234D01*
X89351032Y-100370696D01*
X89577471Y-100354699D01*
X89811673Y-100358080D01*
G37*
G36*
X89728993Y-101371903D02*
G01*
X89755178Y-101419309D01*
X89784962Y-101480868D01*
X89811668Y-101542289D01*
X89828622Y-101589281D01*
X89831163Y-101605746D01*
X89826520Y-101633415D01*
X89817925Y-101690577D01*
X89812884Y-101725391D01*
X89797412Y-101833543D01*
X89998362Y-101765617D01*
X90090076Y-101735641D01*
X90166880Y-101712426D01*
X90217276Y-101699361D01*
X90228680Y-101697692D01*
X90262155Y-101711901D01*
X90313783Y-101747965D01*
X90341900Y-101771315D01*
X90425752Y-101844939D01*
X90409676Y-102050439D01*
X90401100Y-102146194D01*
X90391919Y-102226478D01*
X90383654Y-102278703D01*
X90380852Y-102289161D01*
X90387440Y-102301888D01*
X90427846Y-102290081D01*
X90485510Y-102262887D01*
X90565197Y-102231960D01*
X90655472Y-102211079D01*
X90743680Y-102201420D01*
X90817164Y-102204154D01*
X90863267Y-102220455D01*
X90869354Y-102227296D01*
X90861679Y-102254186D01*
X90826655Y-102299383D01*
X90784512Y-102341286D01*
X90713178Y-102398286D01*
X90651549Y-102426648D01*
X90592950Y-102434606D01*
X90500409Y-102439515D01*
X90445784Y-102450527D01*
X90427339Y-102473899D01*
X90443337Y-102515889D01*
X90492039Y-102582751D01*
X90536528Y-102637767D01*
X90605706Y-102725507D01*
X90646928Y-102791703D01*
X90662837Y-102849119D01*
X90656076Y-102910521D01*
X90629289Y-102988673D01*
X90616009Y-103021525D01*
X90600721Y-103054858D01*
X90581413Y-103076440D01*
X90548201Y-103089785D01*
X90491201Y-103098405D01*
X90400528Y-103105813D01*
X90373416Y-103107747D01*
X90279133Y-103115527D01*
X90203462Y-103123815D01*
X90157219Y-103131326D01*
X90148382Y-103134508D01*
X90157629Y-103154441D01*
X90193816Y-103193239D01*
X90228660Y-103224773D01*
X90289030Y-103285244D01*
X90325794Y-103350315D01*
X90349612Y-103433293D01*
X90363387Y-103505224D01*
X90369029Y-103557285D01*
X90366737Y-103575096D01*
X90342010Y-103571233D01*
X90290295Y-103548933D01*
X90239167Y-103522033D01*
X90161215Y-103470538D01*
X90108914Y-103411696D01*
X90068463Y-103335313D01*
X90013393Y-103213594D01*
X89889339Y-103403833D01*
X89765285Y-103594072D01*
X89622468Y-103600895D01*
X89479652Y-103607719D01*
X89372635Y-103394636D01*
X89265618Y-103181552D01*
X89200511Y-103310309D01*
X89142873Y-103404928D01*
X89075777Y-103470929D01*
X89032573Y-103499329D01*
X88971452Y-103533551D01*
X88927218Y-103555386D01*
X88914438Y-103559592D01*
X88908625Y-103539090D01*
X88909122Y-103519969D01*
X88942516Y-103519969D01*
X89027073Y-103462511D01*
X89083978Y-103412133D01*
X89138686Y-103336622D01*
X89197899Y-103226615D01*
X89202096Y-103217979D01*
X89239978Y-103136055D01*
X89266129Y-103072359D01*
X89276977Y-103035994D01*
X89275487Y-103030905D01*
X89252739Y-103046202D01*
X89206322Y-103087127D01*
X89144495Y-103146227D01*
X89113674Y-103176938D01*
X89040038Y-103254521D01*
X88994038Y-103313402D01*
X88968420Y-103364810D01*
X88955930Y-103419979D01*
X88955728Y-103421470D01*
X88942516Y-103519969D01*
X88909122Y-103519969D01*
X88909996Y-103486369D01*
X88914992Y-103438914D01*
X88929680Y-103363669D01*
X88956752Y-103304086D01*
X89005870Y-103241922D01*
X89036442Y-103209579D01*
X89088453Y-103153127D01*
X89122649Y-103110260D01*
X89131604Y-103090494D01*
X89106194Y-103080776D01*
X89046327Y-103063119D01*
X88962219Y-103040440D01*
X88904080Y-103025561D01*
X88686985Y-102971058D01*
X88659389Y-102822836D01*
X88631793Y-102674615D01*
X88644865Y-102661311D01*
X88685077Y-102661311D01*
X88914941Y-102664939D01*
X89013801Y-102666216D01*
X89095052Y-102666736D01*
X89147971Y-102666461D01*
X89162045Y-102665844D01*
X89179200Y-102679253D01*
X89179232Y-102680362D01*
X89160129Y-102697451D01*
X89108470Y-102730319D01*
X89032662Y-102773869D01*
X88961120Y-102812533D01*
X88872214Y-102860492D01*
X88800739Y-102901139D01*
X88755089Y-102929566D01*
X88742802Y-102940181D01*
X88763494Y-102950602D01*
X88819402Y-102968364D01*
X88900918Y-102990589D01*
X88960470Y-103005434D01*
X89178396Y-103057971D01*
X89264930Y-102986642D01*
X89323482Y-102944479D01*
X89353372Y-102938211D01*
X89354660Y-102967902D01*
X89327402Y-103033612D01*
X89321060Y-103046179D01*
X89276189Y-103133642D01*
X89377380Y-103335124D01*
X89421130Y-103420602D01*
X89457230Y-103488085D01*
X89480868Y-103528741D01*
X89487201Y-103536606D01*
X89495793Y-103515735D01*
X89512636Y-103459034D01*
X89535229Y-103375371D01*
X89558952Y-103282180D01*
X89585069Y-103183709D01*
X89608854Y-103106335D01*
X89627600Y-103058098D01*
X89638260Y-103046569D01*
X89649910Y-103076402D01*
X89667033Y-103139768D01*
X89686597Y-103225022D01*
X89694046Y-103260769D01*
X89718508Y-103381651D01*
X89737060Y-103460515D01*
X89754284Y-103500101D01*
X89774758Y-103503151D01*
X89803062Y-103472406D01*
X89843775Y-103410608D01*
X89871457Y-103366975D01*
X89921194Y-103286574D01*
X89959653Y-103219769D01*
X89981165Y-103176626D01*
X89983810Y-103167431D01*
X89974052Y-103134131D01*
X89949450Y-103077579D01*
X89944247Y-103067015D01*
X89986236Y-103067015D01*
X89999513Y-103098313D01*
X90026784Y-103159731D01*
X90062858Y-103239612D01*
X90074170Y-103264447D01*
X90121609Y-103360432D01*
X90163412Y-103423566D01*
X90207730Y-103464851D01*
X90235074Y-103481664D01*
X90292800Y-103506780D01*
X90320629Y-103500700D01*
X90320819Y-103460501D01*
X90300715Y-103396724D01*
X90270124Y-103344001D01*
X90214935Y-103274247D01*
X90145548Y-103200243D01*
X90124155Y-103179718D01*
X90060284Y-103121712D01*
X90012573Y-103081597D01*
X89987886Y-103064980D01*
X89986236Y-103067015D01*
X89944247Y-103067015D01*
X89936234Y-103050748D01*
X89910521Y-102992437D01*
X89900264Y-102952321D01*
X89902098Y-102944049D01*
X89924663Y-102950720D01*
X89967438Y-102982588D01*
X89996963Y-103009489D01*
X90078386Y-103088371D01*
X90278202Y-103080517D01*
X90370282Y-103075180D01*
X90444364Y-103067681D01*
X90488761Y-103059335D01*
X90495527Y-103056112D01*
X90485139Y-103037325D01*
X90443322Y-102999541D01*
X90377233Y-102948758D01*
X90316381Y-102905978D01*
X90236124Y-102849887D01*
X90173777Y-102803280D01*
X90136804Y-102771931D01*
X90130176Y-102761944D01*
X90156012Y-102760039D01*
X90217042Y-102763396D01*
X90302878Y-102771298D01*
X90363086Y-102778054D01*
X90459137Y-102788261D01*
X90536906Y-102794154D01*
X90585935Y-102795070D01*
X90597254Y-102792905D01*
X90589016Y-102771170D01*
X90557135Y-102722765D01*
X90507488Y-102656264D01*
X90478714Y-102619988D01*
X90348464Y-102458780D01*
X90235096Y-102472207D01*
X90170306Y-102477486D01*
X90129271Y-102476224D01*
X90121729Y-102472374D01*
X90140199Y-102455062D01*
X90169078Y-102436425D01*
X90248154Y-102436425D01*
X90386073Y-102422676D01*
X90477794Y-102412831D01*
X90564863Y-102402352D01*
X90607369Y-102396562D01*
X90692786Y-102365361D01*
X90753069Y-102319146D01*
X90815392Y-102254095D01*
X90723852Y-102238629D01*
X90675652Y-102233792D01*
X90629514Y-102239703D01*
X90573860Y-102260085D01*
X90497106Y-102298659D01*
X90440233Y-102329794D01*
X90248154Y-102436425D01*
X90169078Y-102436425D01*
X90187847Y-102424312D01*
X90234176Y-102397912D01*
X90346623Y-102336710D01*
X90362037Y-102160866D01*
X90370965Y-102070627D01*
X90380299Y-101994791D01*
X90388198Y-101948079D01*
X90389057Y-101944796D01*
X90393227Y-101916083D01*
X90380542Y-101909262D01*
X90346901Y-101926552D01*
X90288202Y-101970177D01*
X90200341Y-102042356D01*
X90184941Y-102055321D01*
X90111142Y-102115362D01*
X90052255Y-102159047D01*
X90015501Y-102181280D01*
X90006797Y-102181057D01*
X90016585Y-102151181D01*
X90042952Y-102090471D01*
X90081399Y-102008948D01*
X90110466Y-101950083D01*
X90152030Y-101863942D01*
X90181855Y-101795427D01*
X90196406Y-101753110D01*
X90195626Y-101743665D01*
X90166816Y-101750564D01*
X90105570Y-101769005D01*
X90022934Y-101795599D01*
X89983778Y-101808629D01*
X89892244Y-101839465D01*
X89833709Y-101864354D01*
X89798351Y-101894073D01*
X89776345Y-101939397D01*
X89757868Y-102011104D01*
X89744401Y-102071221D01*
X89726888Y-102122409D01*
X89708465Y-102128482D01*
X89690008Y-102090262D01*
X89672396Y-102008572D01*
X89671467Y-102002824D01*
X89650507Y-101871214D01*
X89469700Y-101771791D01*
X89388634Y-101729033D01*
X89323658Y-101698173D01*
X89284403Y-101683627D01*
X89277562Y-101683699D01*
X89279565Y-101708900D01*
X89294146Y-101767523D01*
X89318640Y-101849616D01*
X89337432Y-101907328D01*
X89367005Y-101998462D01*
X89388900Y-102071704D01*
X89400302Y-102117293D01*
X89400877Y-102127382D01*
X89381720Y-102116303D01*
X89335975Y-102080282D01*
X89271035Y-102025344D01*
X89212999Y-101974295D01*
X89138443Y-101908879D01*
X89077554Y-101857642D01*
X89037692Y-101826642D01*
X89025970Y-101820358D01*
X89024414Y-101844739D01*
X89025870Y-101904648D01*
X89029993Y-101989762D01*
X89033526Y-102047437D01*
X89047989Y-102267609D01*
X89136623Y-102317424D01*
X89202807Y-102358893D01*
X89226699Y-102385432D01*
X89207926Y-102397271D01*
X89146115Y-102394643D01*
X89040892Y-102377779D01*
X89039718Y-102377558D01*
X89007852Y-102389261D01*
X88952419Y-102426307D01*
X88882843Y-102482019D01*
X88844334Y-102516028D01*
X88685077Y-102661311D01*
X88644865Y-102661311D01*
X88784244Y-102519457D01*
X88848275Y-102452955D01*
X88896093Y-102400705D01*
X88921399Y-102369737D01*
X88923209Y-102364298D01*
X88894772Y-102360339D01*
X88836290Y-102350176D01*
X88789059Y-102341415D01*
X88711146Y-102317034D01*
X88631710Y-102276951D01*
X88562501Y-102229090D01*
X88515273Y-102181373D01*
X88508265Y-102164437D01*
X88580382Y-102164437D01*
X88594709Y-102202481D01*
X88621808Y-102231872D01*
X88691661Y-102278312D01*
X88790860Y-102308216D01*
X88822996Y-102313904D01*
X88923140Y-102328076D01*
X89006125Y-102336643D01*
X89063424Y-102339022D01*
X89086511Y-102334632D01*
X89085424Y-102331839D01*
X89044172Y-102301898D01*
X88975785Y-102262547D01*
X88893049Y-102220004D01*
X88808750Y-102180481D01*
X88735673Y-102150194D01*
X88686605Y-102135359D01*
X88680036Y-102134786D01*
X88608591Y-102142261D01*
X88580382Y-102164437D01*
X88508265Y-102164437D01*
X88501186Y-102147330D01*
X88521818Y-102130829D01*
X88574581Y-102115343D01*
X88616118Y-102108449D01*
X88690202Y-102103280D01*
X88750637Y-102113155D01*
X88819010Y-102142821D01*
X88851380Y-102160168D01*
X88917274Y-102195419D01*
X88965668Y-102219435D01*
X88983552Y-102226380D01*
X88988529Y-102205019D01*
X88992475Y-102147432D01*
X88994887Y-102063362D01*
X88995394Y-101997126D01*
X88995394Y-101767872D01*
X89115061Y-101687284D01*
X89234728Y-101606695D01*
X89427788Y-101711081D01*
X89511674Y-101754952D01*
X89579351Y-101787554D01*
X89621557Y-101804571D01*
X89630728Y-101805586D01*
X89632237Y-101779191D01*
X89624259Y-101724697D01*
X89619147Y-101700187D01*
X89610332Y-101637358D01*
X89647253Y-101637358D01*
X89656249Y-101705947D01*
X89674314Y-101806747D01*
X89675414Y-101812624D01*
X89716295Y-102030995D01*
X89760305Y-101813558D01*
X89780257Y-101712619D01*
X89790917Y-101644700D01*
X89792237Y-101597786D01*
X89784171Y-101559862D01*
X89766671Y-101518915D01*
X89759086Y-101503242D01*
X89713857Y-101410362D01*
X89674195Y-101502307D01*
X89656274Y-101547795D01*
X89647277Y-101588727D01*
X89647253Y-101637358D01*
X89610332Y-101637358D01*
X89609627Y-101632335D01*
X89617194Y-101567747D01*
X89644494Y-101485462D01*
X89647083Y-101478828D01*
X89676068Y-101411570D01*
X89700698Y-101365891D01*
X89713081Y-101352941D01*
X89728993Y-101371903D01*
G37*
%TD*%
M02*
