%TF.GenerationSoftware,KiCad,Pcbnew,7.0.10*%
%TF.CreationDate,2024-02-19T12:28:38+05:30*%
%TF.ProjectId,ArduinoNano _Rudra_2021eeb1208,41726475-696e-46f4-9e61-6e6f205f5275,rev?*%
%TF.SameCoordinates,Original*%
%TF.FileFunction,Drillmap*%
%TF.FilePolarity,Positive*%
%FSLAX45Y45*%
G04 Gerber Fmt 4.5, Leading zero omitted, Abs format (unit mm)*
G04 Created by KiCad (PCBNEW 7.0.10) date 2024-02-19 12:28:38*
%MOMM*%
%LPD*%
G01*
G04 APERTURE LIST*
%ADD10C,0.100000*%
%ADD11C,0.200000*%
G04 APERTURE END LIST*
D10*
X6261100Y-9715500D02*
G75*
G03*
X6057900Y-9715500I-101600J0D01*
G01*
X6057900Y-9715500D02*
G75*
G03*
X6261100Y-9715500I101600J0D01*
G01*
X10414000Y-11486000D02*
G75*
G03*
X10210800Y-11486000I-101600J0D01*
G01*
X10210800Y-11486000D02*
G75*
G03*
X10414000Y-11486000I101600J0D01*
G01*
X6258600Y-11486000D02*
G75*
G03*
X6055400Y-11486000I-101600J0D01*
G01*
X6055400Y-11486000D02*
G75*
G03*
X6258600Y-11486000I101600J0D01*
G01*
X5943600Y-9474200D02*
X10566400Y-9474200D01*
X10566400Y-11709400D01*
X5943600Y-11709400D01*
X5943600Y-9474200D01*
X10414000Y-9715500D02*
G75*
G03*
X10210800Y-9715500I-101600J0D01*
G01*
X10210800Y-9715500D02*
G75*
G03*
X10414000Y-9715500I101600J0D01*
G01*
D11*
D10*
X6082890Y-10843760D02*
X6122890Y-10883760D01*
X6122890Y-10843760D02*
X6082890Y-10883760D01*
X6328020Y-10237340D02*
X6368020Y-10277340D01*
X6368020Y-10237340D02*
X6328020Y-10277340D01*
X6360770Y-10508170D02*
X6400770Y-10548170D01*
X6400770Y-10508170D02*
X6360770Y-10548170D01*
X6693140Y-10306800D02*
X6733140Y-10346800D01*
X6733140Y-10306800D02*
X6693140Y-10346800D01*
X6698720Y-10838190D02*
X6738720Y-10878190D01*
X6738720Y-10838190D02*
X6698720Y-10878190D01*
X6904610Y-10981190D02*
X6944610Y-11021190D01*
X6944610Y-10981190D02*
X6904610Y-11021190D01*
X6927760Y-10234450D02*
X6967760Y-10274450D01*
X6967760Y-10234450D02*
X6927760Y-10274450D01*
X7147480Y-10188350D02*
X7187480Y-10228350D01*
X7187480Y-10188350D02*
X7147480Y-10228350D01*
X7148420Y-11080680D02*
X7188420Y-11120680D01*
X7188420Y-11080680D02*
X7148420Y-11120680D01*
X7157780Y-10922070D02*
X7197780Y-10962070D01*
X7197780Y-10922070D02*
X7157780Y-10962070D01*
X7205760Y-11273740D02*
X7245760Y-11313740D01*
X7245760Y-11273740D02*
X7205760Y-11313740D01*
X7322260Y-9919120D02*
X7362260Y-9959120D01*
X7362260Y-9919120D02*
X7322260Y-9959120D01*
X7460490Y-10696910D02*
X7500490Y-10736910D01*
X7500490Y-10696910D02*
X7460490Y-10736910D01*
X7505520Y-10599450D02*
X7545520Y-10639450D01*
X7545520Y-10599450D02*
X7505520Y-10639450D01*
X7515280Y-10787240D02*
X7555280Y-10827240D01*
X7555280Y-10787240D02*
X7515280Y-10827240D01*
X7535670Y-10390210D02*
X7575670Y-10430210D01*
X7575670Y-10390210D02*
X7535670Y-10430210D01*
X7541890Y-10286490D02*
X7581890Y-10326490D01*
X7581890Y-10286490D02*
X7541890Y-10326490D01*
X7558950Y-11236050D02*
X7598950Y-11276050D01*
X7598950Y-11236050D02*
X7558950Y-11276050D01*
X7576670Y-10682110D02*
X7616670Y-10722110D01*
X7616670Y-10682110D02*
X7576670Y-10722110D01*
X7675900Y-10565530D02*
X7715900Y-10605530D01*
X7715900Y-10565530D02*
X7675900Y-10605530D01*
X7688030Y-10350230D02*
X7728030Y-10390230D01*
X7728030Y-10350230D02*
X7688030Y-10390230D01*
X7711120Y-10769450D02*
X7751120Y-10809450D01*
X7751120Y-10769450D02*
X7711120Y-10809450D01*
X7784790Y-10687240D02*
X7824790Y-10727240D01*
X7824790Y-10687240D02*
X7784790Y-10727240D01*
X7789580Y-10459860D02*
X7829580Y-10499860D01*
X7829580Y-10459860D02*
X7789580Y-10499860D01*
X7956550Y-11002810D02*
X7996550Y-11042810D01*
X7996550Y-11002810D02*
X7956550Y-11042810D01*
X8180490Y-10223130D02*
X8220490Y-10263130D01*
X8220490Y-10223130D02*
X8180490Y-10263130D01*
X8279990Y-10521120D02*
X8319990Y-10561120D01*
X8319990Y-10521120D02*
X8279990Y-10561120D01*
X8388280Y-10985930D02*
X8428280Y-11025930D01*
X8428280Y-10985930D02*
X8388280Y-11025930D01*
X8556710Y-10600560D02*
X8596710Y-10640560D01*
X8596710Y-10600560D02*
X8556710Y-10640560D01*
X8587070Y-10826700D02*
X8627070Y-10866700D01*
X8627070Y-10826700D02*
X8587070Y-10866700D01*
X8794660Y-10062330D02*
X8834660Y-10102330D01*
X8834660Y-10062330D02*
X8794660Y-10102330D01*
X8814750Y-10164140D02*
X8854750Y-10204140D01*
X8854750Y-10164140D02*
X8814750Y-10204140D01*
X9136470Y-10695030D02*
X9176470Y-10735030D01*
X9176470Y-10695030D02*
X9136470Y-10735030D01*
X9221920Y-10387150D02*
X9261920Y-10427150D01*
X9261920Y-10387150D02*
X9221920Y-10427150D01*
X9372690Y-10194440D02*
X9412690Y-10234440D01*
X9412690Y-10194440D02*
X9372690Y-10234440D01*
X9590240Y-10623670D02*
X9630240Y-10663670D01*
X9630240Y-10623670D02*
X9590240Y-10663670D01*
X9734460Y-10496950D02*
X9774460Y-10536950D01*
X9774460Y-10496950D02*
X9734460Y-10536950D01*
X9753060Y-10995440D02*
X9793060Y-11035440D01*
X9793060Y-10995440D02*
X9753060Y-11035440D01*
X9784400Y-9882680D02*
X9824400Y-9922680D01*
X9824400Y-9882680D02*
X9784400Y-9922680D01*
X9920640Y-10689960D02*
X9960640Y-10729960D01*
X9960640Y-10689960D02*
X9920640Y-10729960D01*
X8422000Y-10337800D02*
G75*
G03*
X8342000Y-10337800I-40000J0D01*
G01*
X8342000Y-10337800D02*
G75*
G03*
X8422000Y-10337800I40000J0D01*
G01*
X8422000Y-10825800D02*
G75*
G03*
X8342000Y-10825800I-40000J0D01*
G01*
X8342000Y-10825800D02*
G75*
G03*
X8422000Y-10825800I40000J0D01*
G01*
X6451600Y-9665500D02*
X6451600Y-9765500D01*
X6401600Y-9715500D02*
X6501600Y-9715500D01*
X6451600Y-11443500D02*
X6451600Y-11543500D01*
X6401600Y-11493500D02*
X6501600Y-11493500D01*
X6705600Y-9665500D02*
X6705600Y-9765500D01*
X6655600Y-9715500D02*
X6755600Y-9715500D01*
X6705600Y-11443500D02*
X6705600Y-11543500D01*
X6655600Y-11493500D02*
X6755600Y-11493500D01*
X6959600Y-9665500D02*
X6959600Y-9765500D01*
X6909600Y-9715500D02*
X7009600Y-9715500D01*
X6959600Y-11443500D02*
X6959600Y-11543500D01*
X6909600Y-11493500D02*
X7009600Y-11493500D01*
X7213600Y-9665500D02*
X7213600Y-9765500D01*
X7163600Y-9715500D02*
X7263600Y-9715500D01*
X7213600Y-11443500D02*
X7213600Y-11543500D01*
X7163600Y-11493500D02*
X7263600Y-11493500D01*
X7467600Y-9665500D02*
X7467600Y-9765500D01*
X7417600Y-9715500D02*
X7517600Y-9715500D01*
X7467600Y-11443500D02*
X7467600Y-11543500D01*
X7417600Y-11493500D02*
X7517600Y-11493500D01*
X7721600Y-9665500D02*
X7721600Y-9765500D01*
X7671600Y-9715500D02*
X7771600Y-9715500D01*
X7721600Y-11443500D02*
X7721600Y-11543500D01*
X7671600Y-11493500D02*
X7771600Y-11493500D01*
X7975600Y-9665500D02*
X7975600Y-9765500D01*
X7925600Y-9715500D02*
X8025600Y-9715500D01*
X7975600Y-11443500D02*
X7975600Y-11543500D01*
X7925600Y-11493500D02*
X8025600Y-11493500D01*
X8229600Y-9665500D02*
X8229600Y-9765500D01*
X8179600Y-9715500D02*
X8279600Y-9715500D01*
X8229600Y-11443500D02*
X8229600Y-11543500D01*
X8179600Y-11493500D02*
X8279600Y-11493500D01*
X8483600Y-9665500D02*
X8483600Y-9765500D01*
X8433600Y-9715500D02*
X8533600Y-9715500D01*
X8483600Y-11443500D02*
X8483600Y-11543500D01*
X8433600Y-11493500D02*
X8533600Y-11493500D01*
X8737600Y-9665500D02*
X8737600Y-9765500D01*
X8687600Y-9715500D02*
X8787600Y-9715500D01*
X8737600Y-11443500D02*
X8737600Y-11543500D01*
X8687600Y-11493500D02*
X8787600Y-11493500D01*
X8991600Y-9665500D02*
X8991600Y-9765500D01*
X8941600Y-9715500D02*
X9041600Y-9715500D01*
X8991600Y-11443500D02*
X8991600Y-11543500D01*
X8941600Y-11493500D02*
X9041600Y-11493500D01*
X9245600Y-9665500D02*
X9245600Y-9765500D01*
X9195600Y-9715500D02*
X9295600Y-9715500D01*
X9245600Y-11443500D02*
X9245600Y-11543500D01*
X9195600Y-11493500D02*
X9295600Y-11493500D01*
X9499600Y-9665500D02*
X9499600Y-9765500D01*
X9449600Y-9715500D02*
X9549600Y-9715500D01*
X9499600Y-11443500D02*
X9499600Y-11543500D01*
X9449600Y-11493500D02*
X9549600Y-11493500D01*
X9753600Y-9665500D02*
X9753600Y-9765500D01*
X9703600Y-9715500D02*
X9803600Y-9715500D01*
X9753600Y-11443500D02*
X9753600Y-11543500D01*
X9703600Y-11493500D02*
X9803600Y-11493500D01*
X10007600Y-9665500D02*
X10007600Y-9765500D01*
X9957600Y-9715500D02*
X10057600Y-9715500D01*
X10007600Y-11443500D02*
X10007600Y-11543500D01*
X9957600Y-11493500D02*
X10057600Y-11493500D01*
X10109200Y-10287800D02*
X10109200Y-10387800D01*
X10059200Y-10337800D02*
X10159200Y-10337800D01*
X10109200Y-10541800D02*
X10109200Y-10641800D01*
X10059200Y-10591800D02*
X10159200Y-10591800D01*
X10109200Y-10795800D02*
X10109200Y-10895800D01*
X10059200Y-10845800D02*
X10159200Y-10845800D01*
X10363200Y-10287800D02*
X10363200Y-10387800D01*
X10313200Y-10337800D02*
X10413200Y-10337800D01*
X10363200Y-10541800D02*
X10363200Y-10641800D01*
X10313200Y-10591800D02*
X10413200Y-10591800D01*
X10363200Y-10795800D02*
X10363200Y-10895800D01*
X10313200Y-10845800D02*
X10413200Y-10845800D01*
D11*
X6199377Y-12025884D02*
X6199377Y-11825884D01*
X6199377Y-11825884D02*
X6246996Y-11825884D01*
X6246996Y-11825884D02*
X6275567Y-11835408D01*
X6275567Y-11835408D02*
X6294615Y-11854455D01*
X6294615Y-11854455D02*
X6304139Y-11873503D01*
X6304139Y-11873503D02*
X6313662Y-11911598D01*
X6313662Y-11911598D02*
X6313662Y-11940169D01*
X6313662Y-11940169D02*
X6304139Y-11978265D01*
X6304139Y-11978265D02*
X6294615Y-11997312D01*
X6294615Y-11997312D02*
X6275567Y-12016360D01*
X6275567Y-12016360D02*
X6246996Y-12025884D01*
X6246996Y-12025884D02*
X6199377Y-12025884D01*
X6399377Y-12025884D02*
X6399377Y-11892550D01*
X6399377Y-11930646D02*
X6408901Y-11911598D01*
X6408901Y-11911598D02*
X6418424Y-11902074D01*
X6418424Y-11902074D02*
X6437472Y-11892550D01*
X6437472Y-11892550D02*
X6456520Y-11892550D01*
X6523186Y-12025884D02*
X6523186Y-11892550D01*
X6523186Y-11825884D02*
X6513662Y-11835408D01*
X6513662Y-11835408D02*
X6523186Y-11844931D01*
X6523186Y-11844931D02*
X6532710Y-11835408D01*
X6532710Y-11835408D02*
X6523186Y-11825884D01*
X6523186Y-11825884D02*
X6523186Y-11844931D01*
X6646996Y-12025884D02*
X6627948Y-12016360D01*
X6627948Y-12016360D02*
X6618424Y-11997312D01*
X6618424Y-11997312D02*
X6618424Y-11825884D01*
X6751758Y-12025884D02*
X6732710Y-12016360D01*
X6732710Y-12016360D02*
X6723186Y-11997312D01*
X6723186Y-11997312D02*
X6723186Y-11825884D01*
X6980329Y-12025884D02*
X6980329Y-11825884D01*
X6980329Y-11825884D02*
X7046996Y-11968741D01*
X7046996Y-11968741D02*
X7113662Y-11825884D01*
X7113662Y-11825884D02*
X7113662Y-12025884D01*
X7294615Y-12025884D02*
X7294615Y-11921122D01*
X7294615Y-11921122D02*
X7285091Y-11902074D01*
X7285091Y-11902074D02*
X7266043Y-11892550D01*
X7266043Y-11892550D02*
X7227948Y-11892550D01*
X7227948Y-11892550D02*
X7208901Y-11902074D01*
X7294615Y-12016360D02*
X7275567Y-12025884D01*
X7275567Y-12025884D02*
X7227948Y-12025884D01*
X7227948Y-12025884D02*
X7208901Y-12016360D01*
X7208901Y-12016360D02*
X7199377Y-11997312D01*
X7199377Y-11997312D02*
X7199377Y-11978265D01*
X7199377Y-11978265D02*
X7208901Y-11959217D01*
X7208901Y-11959217D02*
X7227948Y-11949693D01*
X7227948Y-11949693D02*
X7275567Y-11949693D01*
X7275567Y-11949693D02*
X7294615Y-11940169D01*
X7389853Y-11892550D02*
X7389853Y-12092550D01*
X7389853Y-11902074D02*
X7408901Y-11892550D01*
X7408901Y-11892550D02*
X7446996Y-11892550D01*
X7446996Y-11892550D02*
X7466043Y-11902074D01*
X7466043Y-11902074D02*
X7475567Y-11911598D01*
X7475567Y-11911598D02*
X7485091Y-11930646D01*
X7485091Y-11930646D02*
X7485091Y-11987788D01*
X7485091Y-11987788D02*
X7475567Y-12006836D01*
X7475567Y-12006836D02*
X7466043Y-12016360D01*
X7466043Y-12016360D02*
X7446996Y-12025884D01*
X7446996Y-12025884D02*
X7408901Y-12025884D01*
X7408901Y-12025884D02*
X7389853Y-12016360D01*
X7570805Y-12006836D02*
X7580329Y-12016360D01*
X7580329Y-12016360D02*
X7570805Y-12025884D01*
X7570805Y-12025884D02*
X7561282Y-12016360D01*
X7561282Y-12016360D02*
X7570805Y-12006836D01*
X7570805Y-12006836D02*
X7570805Y-12025884D01*
X7570805Y-11902074D02*
X7580329Y-11911598D01*
X7580329Y-11911598D02*
X7570805Y-11921122D01*
X7570805Y-11921122D02*
X7561282Y-11911598D01*
X7561282Y-11911598D02*
X7570805Y-11902074D01*
X7570805Y-11902074D02*
X7570805Y-11921122D01*
D10*
X5898600Y-12334400D02*
X5938600Y-12374400D01*
X5938600Y-12334400D02*
X5898600Y-12374400D01*
D11*
X6237472Y-12245884D02*
X6256520Y-12245884D01*
X6256520Y-12245884D02*
X6275567Y-12255408D01*
X6275567Y-12255408D02*
X6285091Y-12264931D01*
X6285091Y-12264931D02*
X6294615Y-12283979D01*
X6294615Y-12283979D02*
X6304139Y-12322074D01*
X6304139Y-12322074D02*
X6304139Y-12369693D01*
X6304139Y-12369693D02*
X6294615Y-12407788D01*
X6294615Y-12407788D02*
X6285091Y-12426836D01*
X6285091Y-12426836D02*
X6275567Y-12436360D01*
X6275567Y-12436360D02*
X6256520Y-12445884D01*
X6256520Y-12445884D02*
X6237472Y-12445884D01*
X6237472Y-12445884D02*
X6218424Y-12436360D01*
X6218424Y-12436360D02*
X6208901Y-12426836D01*
X6208901Y-12426836D02*
X6199377Y-12407788D01*
X6199377Y-12407788D02*
X6189853Y-12369693D01*
X6189853Y-12369693D02*
X6189853Y-12322074D01*
X6189853Y-12322074D02*
X6199377Y-12283979D01*
X6199377Y-12283979D02*
X6208901Y-12264931D01*
X6208901Y-12264931D02*
X6218424Y-12255408D01*
X6218424Y-12255408D02*
X6237472Y-12245884D01*
X6389853Y-12426836D02*
X6399377Y-12436360D01*
X6399377Y-12436360D02*
X6389853Y-12445884D01*
X6389853Y-12445884D02*
X6380329Y-12436360D01*
X6380329Y-12436360D02*
X6389853Y-12426836D01*
X6389853Y-12426836D02*
X6389853Y-12445884D01*
X6570805Y-12312550D02*
X6570805Y-12445884D01*
X6523186Y-12236360D02*
X6475567Y-12379217D01*
X6475567Y-12379217D02*
X6599377Y-12379217D01*
X6713662Y-12245884D02*
X6732710Y-12245884D01*
X6732710Y-12245884D02*
X6751758Y-12255408D01*
X6751758Y-12255408D02*
X6761282Y-12264931D01*
X6761282Y-12264931D02*
X6770805Y-12283979D01*
X6770805Y-12283979D02*
X6780329Y-12322074D01*
X6780329Y-12322074D02*
X6780329Y-12369693D01*
X6780329Y-12369693D02*
X6770805Y-12407788D01*
X6770805Y-12407788D02*
X6761282Y-12426836D01*
X6761282Y-12426836D02*
X6751758Y-12436360D01*
X6751758Y-12436360D02*
X6732710Y-12445884D01*
X6732710Y-12445884D02*
X6713662Y-12445884D01*
X6713662Y-12445884D02*
X6694615Y-12436360D01*
X6694615Y-12436360D02*
X6685091Y-12426836D01*
X6685091Y-12426836D02*
X6675567Y-12407788D01*
X6675567Y-12407788D02*
X6666043Y-12369693D01*
X6666043Y-12369693D02*
X6666043Y-12322074D01*
X6666043Y-12322074D02*
X6675567Y-12283979D01*
X6675567Y-12283979D02*
X6685091Y-12264931D01*
X6685091Y-12264931D02*
X6694615Y-12255408D01*
X6694615Y-12255408D02*
X6713662Y-12245884D01*
X6904139Y-12245884D02*
X6923186Y-12245884D01*
X6923186Y-12245884D02*
X6942234Y-12255408D01*
X6942234Y-12255408D02*
X6951758Y-12264931D01*
X6951758Y-12264931D02*
X6961282Y-12283979D01*
X6961282Y-12283979D02*
X6970805Y-12322074D01*
X6970805Y-12322074D02*
X6970805Y-12369693D01*
X6970805Y-12369693D02*
X6961282Y-12407788D01*
X6961282Y-12407788D02*
X6951758Y-12426836D01*
X6951758Y-12426836D02*
X6942234Y-12436360D01*
X6942234Y-12436360D02*
X6923186Y-12445884D01*
X6923186Y-12445884D02*
X6904139Y-12445884D01*
X6904139Y-12445884D02*
X6885091Y-12436360D01*
X6885091Y-12436360D02*
X6875567Y-12426836D01*
X6875567Y-12426836D02*
X6866043Y-12407788D01*
X6866043Y-12407788D02*
X6856520Y-12369693D01*
X6856520Y-12369693D02*
X6856520Y-12322074D01*
X6856520Y-12322074D02*
X6866043Y-12283979D01*
X6866043Y-12283979D02*
X6875567Y-12264931D01*
X6875567Y-12264931D02*
X6885091Y-12255408D01*
X6885091Y-12255408D02*
X6904139Y-12245884D01*
X7056520Y-12445884D02*
X7056520Y-12312550D01*
X7056520Y-12331598D02*
X7066043Y-12322074D01*
X7066043Y-12322074D02*
X7085091Y-12312550D01*
X7085091Y-12312550D02*
X7113663Y-12312550D01*
X7113663Y-12312550D02*
X7132710Y-12322074D01*
X7132710Y-12322074D02*
X7142234Y-12341122D01*
X7142234Y-12341122D02*
X7142234Y-12445884D01*
X7142234Y-12341122D02*
X7151758Y-12322074D01*
X7151758Y-12322074D02*
X7170805Y-12312550D01*
X7170805Y-12312550D02*
X7199377Y-12312550D01*
X7199377Y-12312550D02*
X7218424Y-12322074D01*
X7218424Y-12322074D02*
X7227948Y-12341122D01*
X7227948Y-12341122D02*
X7227948Y-12445884D01*
X7323186Y-12445884D02*
X7323186Y-12312550D01*
X7323186Y-12331598D02*
X7332710Y-12322074D01*
X7332710Y-12322074D02*
X7351758Y-12312550D01*
X7351758Y-12312550D02*
X7380329Y-12312550D01*
X7380329Y-12312550D02*
X7399377Y-12322074D01*
X7399377Y-12322074D02*
X7408901Y-12341122D01*
X7408901Y-12341122D02*
X7408901Y-12445884D01*
X7408901Y-12341122D02*
X7418424Y-12322074D01*
X7418424Y-12322074D02*
X7437472Y-12312550D01*
X7437472Y-12312550D02*
X7466043Y-12312550D01*
X7466043Y-12312550D02*
X7485091Y-12322074D01*
X7485091Y-12322074D02*
X7494615Y-12341122D01*
X7494615Y-12341122D02*
X7494615Y-12445884D01*
X7885091Y-12236360D02*
X7713663Y-12493503D01*
X8142234Y-12245884D02*
X8161282Y-12245884D01*
X8161282Y-12245884D02*
X8180329Y-12255408D01*
X8180329Y-12255408D02*
X8189853Y-12264931D01*
X8189853Y-12264931D02*
X8199377Y-12283979D01*
X8199377Y-12283979D02*
X8208901Y-12322074D01*
X8208901Y-12322074D02*
X8208901Y-12369693D01*
X8208901Y-12369693D02*
X8199377Y-12407788D01*
X8199377Y-12407788D02*
X8189853Y-12426836D01*
X8189853Y-12426836D02*
X8180329Y-12436360D01*
X8180329Y-12436360D02*
X8161282Y-12445884D01*
X8161282Y-12445884D02*
X8142234Y-12445884D01*
X8142234Y-12445884D02*
X8123186Y-12436360D01*
X8123186Y-12436360D02*
X8113663Y-12426836D01*
X8113663Y-12426836D02*
X8104139Y-12407788D01*
X8104139Y-12407788D02*
X8094615Y-12369693D01*
X8094615Y-12369693D02*
X8094615Y-12322074D01*
X8094615Y-12322074D02*
X8104139Y-12283979D01*
X8104139Y-12283979D02*
X8113663Y-12264931D01*
X8113663Y-12264931D02*
X8123186Y-12255408D01*
X8123186Y-12255408D02*
X8142234Y-12245884D01*
X8294615Y-12426836D02*
X8304139Y-12436360D01*
X8304139Y-12436360D02*
X8294615Y-12445884D01*
X8294615Y-12445884D02*
X8285091Y-12436360D01*
X8285091Y-12436360D02*
X8294615Y-12426836D01*
X8294615Y-12426836D02*
X8294615Y-12445884D01*
X8427948Y-12245884D02*
X8446996Y-12245884D01*
X8446996Y-12245884D02*
X8466044Y-12255408D01*
X8466044Y-12255408D02*
X8475568Y-12264931D01*
X8475568Y-12264931D02*
X8485091Y-12283979D01*
X8485091Y-12283979D02*
X8494615Y-12322074D01*
X8494615Y-12322074D02*
X8494615Y-12369693D01*
X8494615Y-12369693D02*
X8485091Y-12407788D01*
X8485091Y-12407788D02*
X8475568Y-12426836D01*
X8475568Y-12426836D02*
X8466044Y-12436360D01*
X8466044Y-12436360D02*
X8446996Y-12445884D01*
X8446996Y-12445884D02*
X8427948Y-12445884D01*
X8427948Y-12445884D02*
X8408901Y-12436360D01*
X8408901Y-12436360D02*
X8399377Y-12426836D01*
X8399377Y-12426836D02*
X8389853Y-12407788D01*
X8389853Y-12407788D02*
X8380329Y-12369693D01*
X8380329Y-12369693D02*
X8380329Y-12322074D01*
X8380329Y-12322074D02*
X8389853Y-12283979D01*
X8389853Y-12283979D02*
X8399377Y-12264931D01*
X8399377Y-12264931D02*
X8408901Y-12255408D01*
X8408901Y-12255408D02*
X8427948Y-12245884D01*
X8685091Y-12445884D02*
X8570806Y-12445884D01*
X8627948Y-12445884D02*
X8627948Y-12245884D01*
X8627948Y-12245884D02*
X8608901Y-12274455D01*
X8608901Y-12274455D02*
X8589853Y-12293503D01*
X8589853Y-12293503D02*
X8570806Y-12303027D01*
X8866044Y-12245884D02*
X8770806Y-12245884D01*
X8770806Y-12245884D02*
X8761282Y-12341122D01*
X8761282Y-12341122D02*
X8770806Y-12331598D01*
X8770806Y-12331598D02*
X8789853Y-12322074D01*
X8789853Y-12322074D02*
X8837472Y-12322074D01*
X8837472Y-12322074D02*
X8856520Y-12331598D01*
X8856520Y-12331598D02*
X8866044Y-12341122D01*
X8866044Y-12341122D02*
X8875568Y-12360169D01*
X8875568Y-12360169D02*
X8875568Y-12407788D01*
X8875568Y-12407788D02*
X8866044Y-12426836D01*
X8866044Y-12426836D02*
X8856520Y-12436360D01*
X8856520Y-12436360D02*
X8837472Y-12445884D01*
X8837472Y-12445884D02*
X8789853Y-12445884D01*
X8789853Y-12445884D02*
X8770806Y-12436360D01*
X8770806Y-12436360D02*
X8761282Y-12426836D01*
X8942234Y-12245884D02*
X9075568Y-12245884D01*
X9075568Y-12245884D02*
X8989853Y-12445884D01*
X9142234Y-12245884D02*
X9142234Y-12283979D01*
X9218425Y-12245884D02*
X9218425Y-12283979D01*
X9513663Y-12522074D02*
X9504139Y-12512550D01*
X9504139Y-12512550D02*
X9485091Y-12483979D01*
X9485091Y-12483979D02*
X9475568Y-12464931D01*
X9475568Y-12464931D02*
X9466044Y-12436360D01*
X9466044Y-12436360D02*
X9456520Y-12388741D01*
X9456520Y-12388741D02*
X9456520Y-12350646D01*
X9456520Y-12350646D02*
X9466044Y-12303027D01*
X9466044Y-12303027D02*
X9475568Y-12274455D01*
X9475568Y-12274455D02*
X9485091Y-12255408D01*
X9485091Y-12255408D02*
X9504139Y-12226836D01*
X9504139Y-12226836D02*
X9513663Y-12217312D01*
X9675568Y-12312550D02*
X9675568Y-12445884D01*
X9627949Y-12236360D02*
X9580330Y-12379217D01*
X9580330Y-12379217D02*
X9704139Y-12379217D01*
X9818425Y-12245884D02*
X9837472Y-12245884D01*
X9837472Y-12245884D02*
X9856520Y-12255408D01*
X9856520Y-12255408D02*
X9866044Y-12264931D01*
X9866044Y-12264931D02*
X9875568Y-12283979D01*
X9875568Y-12283979D02*
X9885091Y-12322074D01*
X9885091Y-12322074D02*
X9885091Y-12369693D01*
X9885091Y-12369693D02*
X9875568Y-12407788D01*
X9875568Y-12407788D02*
X9866044Y-12426836D01*
X9866044Y-12426836D02*
X9856520Y-12436360D01*
X9856520Y-12436360D02*
X9837472Y-12445884D01*
X9837472Y-12445884D02*
X9818425Y-12445884D01*
X9818425Y-12445884D02*
X9799377Y-12436360D01*
X9799377Y-12436360D02*
X9789853Y-12426836D01*
X9789853Y-12426836D02*
X9780330Y-12407788D01*
X9780330Y-12407788D02*
X9770806Y-12369693D01*
X9770806Y-12369693D02*
X9770806Y-12322074D01*
X9770806Y-12322074D02*
X9780330Y-12283979D01*
X9780330Y-12283979D02*
X9789853Y-12264931D01*
X9789853Y-12264931D02*
X9799377Y-12255408D01*
X9799377Y-12255408D02*
X9818425Y-12245884D01*
X10123187Y-12445884D02*
X10123187Y-12245884D01*
X10208901Y-12445884D02*
X10208901Y-12341122D01*
X10208901Y-12341122D02*
X10199377Y-12322074D01*
X10199377Y-12322074D02*
X10180330Y-12312550D01*
X10180330Y-12312550D02*
X10151758Y-12312550D01*
X10151758Y-12312550D02*
X10132711Y-12322074D01*
X10132711Y-12322074D02*
X10123187Y-12331598D01*
X10332711Y-12445884D02*
X10313663Y-12436360D01*
X10313663Y-12436360D02*
X10304139Y-12426836D01*
X10304139Y-12426836D02*
X10294615Y-12407788D01*
X10294615Y-12407788D02*
X10294615Y-12350646D01*
X10294615Y-12350646D02*
X10304139Y-12331598D01*
X10304139Y-12331598D02*
X10313663Y-12322074D01*
X10313663Y-12322074D02*
X10332711Y-12312550D01*
X10332711Y-12312550D02*
X10361282Y-12312550D01*
X10361282Y-12312550D02*
X10380330Y-12322074D01*
X10380330Y-12322074D02*
X10389853Y-12331598D01*
X10389853Y-12331598D02*
X10399377Y-12350646D01*
X10399377Y-12350646D02*
X10399377Y-12407788D01*
X10399377Y-12407788D02*
X10389853Y-12426836D01*
X10389853Y-12426836D02*
X10380330Y-12436360D01*
X10380330Y-12436360D02*
X10361282Y-12445884D01*
X10361282Y-12445884D02*
X10332711Y-12445884D01*
X10513663Y-12445884D02*
X10494615Y-12436360D01*
X10494615Y-12436360D02*
X10485092Y-12417312D01*
X10485092Y-12417312D02*
X10485092Y-12245884D01*
X10666044Y-12436360D02*
X10646996Y-12445884D01*
X10646996Y-12445884D02*
X10608901Y-12445884D01*
X10608901Y-12445884D02*
X10589853Y-12436360D01*
X10589853Y-12436360D02*
X10580330Y-12417312D01*
X10580330Y-12417312D02*
X10580330Y-12341122D01*
X10580330Y-12341122D02*
X10589853Y-12322074D01*
X10589853Y-12322074D02*
X10608901Y-12312550D01*
X10608901Y-12312550D02*
X10646996Y-12312550D01*
X10646996Y-12312550D02*
X10666044Y-12322074D01*
X10666044Y-12322074D02*
X10675568Y-12341122D01*
X10675568Y-12341122D02*
X10675568Y-12360169D01*
X10675568Y-12360169D02*
X10580330Y-12379217D01*
X10751758Y-12436360D02*
X10770806Y-12445884D01*
X10770806Y-12445884D02*
X10808901Y-12445884D01*
X10808901Y-12445884D02*
X10827949Y-12436360D01*
X10827949Y-12436360D02*
X10837473Y-12417312D01*
X10837473Y-12417312D02*
X10837473Y-12407788D01*
X10837473Y-12407788D02*
X10827949Y-12388741D01*
X10827949Y-12388741D02*
X10808901Y-12379217D01*
X10808901Y-12379217D02*
X10780330Y-12379217D01*
X10780330Y-12379217D02*
X10761282Y-12369693D01*
X10761282Y-12369693D02*
X10751758Y-12350646D01*
X10751758Y-12350646D02*
X10751758Y-12341122D01*
X10751758Y-12341122D02*
X10761282Y-12322074D01*
X10761282Y-12322074D02*
X10780330Y-12312550D01*
X10780330Y-12312550D02*
X10808901Y-12312550D01*
X10808901Y-12312550D02*
X10827949Y-12322074D01*
X10904139Y-12522074D02*
X10913663Y-12512550D01*
X10913663Y-12512550D02*
X10932711Y-12483979D01*
X10932711Y-12483979D02*
X10942234Y-12464931D01*
X10942234Y-12464931D02*
X10951758Y-12436360D01*
X10951758Y-12436360D02*
X10961282Y-12388741D01*
X10961282Y-12388741D02*
X10961282Y-12350646D01*
X10961282Y-12350646D02*
X10951758Y-12303027D01*
X10951758Y-12303027D02*
X10942234Y-12274455D01*
X10942234Y-12274455D02*
X10932711Y-12255408D01*
X10932711Y-12255408D02*
X10913663Y-12226836D01*
X10913663Y-12226836D02*
X10904139Y-12217312D01*
D10*
X5938600Y-12618400D02*
G75*
G03*
X5858600Y-12618400I-40000J0D01*
G01*
X5858600Y-12618400D02*
G75*
G03*
X5938600Y-12618400I40000J0D01*
G01*
D11*
X6237472Y-12509884D02*
X6256520Y-12509884D01*
X6256520Y-12509884D02*
X6275567Y-12519408D01*
X6275567Y-12519408D02*
X6285091Y-12528931D01*
X6285091Y-12528931D02*
X6294615Y-12547979D01*
X6294615Y-12547979D02*
X6304139Y-12586074D01*
X6304139Y-12586074D02*
X6304139Y-12633693D01*
X6304139Y-12633693D02*
X6294615Y-12671788D01*
X6294615Y-12671788D02*
X6285091Y-12690836D01*
X6285091Y-12690836D02*
X6275567Y-12700360D01*
X6275567Y-12700360D02*
X6256520Y-12709884D01*
X6256520Y-12709884D02*
X6237472Y-12709884D01*
X6237472Y-12709884D02*
X6218424Y-12700360D01*
X6218424Y-12700360D02*
X6208901Y-12690836D01*
X6208901Y-12690836D02*
X6199377Y-12671788D01*
X6199377Y-12671788D02*
X6189853Y-12633693D01*
X6189853Y-12633693D02*
X6189853Y-12586074D01*
X6189853Y-12586074D02*
X6199377Y-12547979D01*
X6199377Y-12547979D02*
X6208901Y-12528931D01*
X6208901Y-12528931D02*
X6218424Y-12519408D01*
X6218424Y-12519408D02*
X6237472Y-12509884D01*
X6389853Y-12690836D02*
X6399377Y-12700360D01*
X6399377Y-12700360D02*
X6389853Y-12709884D01*
X6389853Y-12709884D02*
X6380329Y-12700360D01*
X6380329Y-12700360D02*
X6389853Y-12690836D01*
X6389853Y-12690836D02*
X6389853Y-12709884D01*
X6513662Y-12595598D02*
X6494615Y-12586074D01*
X6494615Y-12586074D02*
X6485091Y-12576550D01*
X6485091Y-12576550D02*
X6475567Y-12557503D01*
X6475567Y-12557503D02*
X6475567Y-12547979D01*
X6475567Y-12547979D02*
X6485091Y-12528931D01*
X6485091Y-12528931D02*
X6494615Y-12519408D01*
X6494615Y-12519408D02*
X6513662Y-12509884D01*
X6513662Y-12509884D02*
X6551758Y-12509884D01*
X6551758Y-12509884D02*
X6570805Y-12519408D01*
X6570805Y-12519408D02*
X6580329Y-12528931D01*
X6580329Y-12528931D02*
X6589853Y-12547979D01*
X6589853Y-12547979D02*
X6589853Y-12557503D01*
X6589853Y-12557503D02*
X6580329Y-12576550D01*
X6580329Y-12576550D02*
X6570805Y-12586074D01*
X6570805Y-12586074D02*
X6551758Y-12595598D01*
X6551758Y-12595598D02*
X6513662Y-12595598D01*
X6513662Y-12595598D02*
X6494615Y-12605122D01*
X6494615Y-12605122D02*
X6485091Y-12614646D01*
X6485091Y-12614646D02*
X6475567Y-12633693D01*
X6475567Y-12633693D02*
X6475567Y-12671788D01*
X6475567Y-12671788D02*
X6485091Y-12690836D01*
X6485091Y-12690836D02*
X6494615Y-12700360D01*
X6494615Y-12700360D02*
X6513662Y-12709884D01*
X6513662Y-12709884D02*
X6551758Y-12709884D01*
X6551758Y-12709884D02*
X6570805Y-12700360D01*
X6570805Y-12700360D02*
X6580329Y-12690836D01*
X6580329Y-12690836D02*
X6589853Y-12671788D01*
X6589853Y-12671788D02*
X6589853Y-12633693D01*
X6589853Y-12633693D02*
X6580329Y-12614646D01*
X6580329Y-12614646D02*
X6570805Y-12605122D01*
X6570805Y-12605122D02*
X6551758Y-12595598D01*
X6713662Y-12509884D02*
X6732710Y-12509884D01*
X6732710Y-12509884D02*
X6751758Y-12519408D01*
X6751758Y-12519408D02*
X6761282Y-12528931D01*
X6761282Y-12528931D02*
X6770805Y-12547979D01*
X6770805Y-12547979D02*
X6780329Y-12586074D01*
X6780329Y-12586074D02*
X6780329Y-12633693D01*
X6780329Y-12633693D02*
X6770805Y-12671788D01*
X6770805Y-12671788D02*
X6761282Y-12690836D01*
X6761282Y-12690836D02*
X6751758Y-12700360D01*
X6751758Y-12700360D02*
X6732710Y-12709884D01*
X6732710Y-12709884D02*
X6713662Y-12709884D01*
X6713662Y-12709884D02*
X6694615Y-12700360D01*
X6694615Y-12700360D02*
X6685091Y-12690836D01*
X6685091Y-12690836D02*
X6675567Y-12671788D01*
X6675567Y-12671788D02*
X6666043Y-12633693D01*
X6666043Y-12633693D02*
X6666043Y-12586074D01*
X6666043Y-12586074D02*
X6675567Y-12547979D01*
X6675567Y-12547979D02*
X6685091Y-12528931D01*
X6685091Y-12528931D02*
X6694615Y-12519408D01*
X6694615Y-12519408D02*
X6713662Y-12509884D01*
X6904139Y-12509884D02*
X6923186Y-12509884D01*
X6923186Y-12509884D02*
X6942234Y-12519408D01*
X6942234Y-12519408D02*
X6951758Y-12528931D01*
X6951758Y-12528931D02*
X6961282Y-12547979D01*
X6961282Y-12547979D02*
X6970805Y-12586074D01*
X6970805Y-12586074D02*
X6970805Y-12633693D01*
X6970805Y-12633693D02*
X6961282Y-12671788D01*
X6961282Y-12671788D02*
X6951758Y-12690836D01*
X6951758Y-12690836D02*
X6942234Y-12700360D01*
X6942234Y-12700360D02*
X6923186Y-12709884D01*
X6923186Y-12709884D02*
X6904139Y-12709884D01*
X6904139Y-12709884D02*
X6885091Y-12700360D01*
X6885091Y-12700360D02*
X6875567Y-12690836D01*
X6875567Y-12690836D02*
X6866043Y-12671788D01*
X6866043Y-12671788D02*
X6856520Y-12633693D01*
X6856520Y-12633693D02*
X6856520Y-12586074D01*
X6856520Y-12586074D02*
X6866043Y-12547979D01*
X6866043Y-12547979D02*
X6875567Y-12528931D01*
X6875567Y-12528931D02*
X6885091Y-12519408D01*
X6885091Y-12519408D02*
X6904139Y-12509884D01*
X7056520Y-12709884D02*
X7056520Y-12576550D01*
X7056520Y-12595598D02*
X7066043Y-12586074D01*
X7066043Y-12586074D02*
X7085091Y-12576550D01*
X7085091Y-12576550D02*
X7113663Y-12576550D01*
X7113663Y-12576550D02*
X7132710Y-12586074D01*
X7132710Y-12586074D02*
X7142234Y-12605122D01*
X7142234Y-12605122D02*
X7142234Y-12709884D01*
X7142234Y-12605122D02*
X7151758Y-12586074D01*
X7151758Y-12586074D02*
X7170805Y-12576550D01*
X7170805Y-12576550D02*
X7199377Y-12576550D01*
X7199377Y-12576550D02*
X7218424Y-12586074D01*
X7218424Y-12586074D02*
X7227948Y-12605122D01*
X7227948Y-12605122D02*
X7227948Y-12709884D01*
X7323186Y-12709884D02*
X7323186Y-12576550D01*
X7323186Y-12595598D02*
X7332710Y-12586074D01*
X7332710Y-12586074D02*
X7351758Y-12576550D01*
X7351758Y-12576550D02*
X7380329Y-12576550D01*
X7380329Y-12576550D02*
X7399377Y-12586074D01*
X7399377Y-12586074D02*
X7408901Y-12605122D01*
X7408901Y-12605122D02*
X7408901Y-12709884D01*
X7408901Y-12605122D02*
X7418424Y-12586074D01*
X7418424Y-12586074D02*
X7437472Y-12576550D01*
X7437472Y-12576550D02*
X7466043Y-12576550D01*
X7466043Y-12576550D02*
X7485091Y-12586074D01*
X7485091Y-12586074D02*
X7494615Y-12605122D01*
X7494615Y-12605122D02*
X7494615Y-12709884D01*
X7885091Y-12500360D02*
X7713663Y-12757503D01*
X8142234Y-12509884D02*
X8161282Y-12509884D01*
X8161282Y-12509884D02*
X8180329Y-12519408D01*
X8180329Y-12519408D02*
X8189853Y-12528931D01*
X8189853Y-12528931D02*
X8199377Y-12547979D01*
X8199377Y-12547979D02*
X8208901Y-12586074D01*
X8208901Y-12586074D02*
X8208901Y-12633693D01*
X8208901Y-12633693D02*
X8199377Y-12671788D01*
X8199377Y-12671788D02*
X8189853Y-12690836D01*
X8189853Y-12690836D02*
X8180329Y-12700360D01*
X8180329Y-12700360D02*
X8161282Y-12709884D01*
X8161282Y-12709884D02*
X8142234Y-12709884D01*
X8142234Y-12709884D02*
X8123186Y-12700360D01*
X8123186Y-12700360D02*
X8113663Y-12690836D01*
X8113663Y-12690836D02*
X8104139Y-12671788D01*
X8104139Y-12671788D02*
X8094615Y-12633693D01*
X8094615Y-12633693D02*
X8094615Y-12586074D01*
X8094615Y-12586074D02*
X8104139Y-12547979D01*
X8104139Y-12547979D02*
X8113663Y-12528931D01*
X8113663Y-12528931D02*
X8123186Y-12519408D01*
X8123186Y-12519408D02*
X8142234Y-12509884D01*
X8294615Y-12690836D02*
X8304139Y-12700360D01*
X8304139Y-12700360D02*
X8294615Y-12709884D01*
X8294615Y-12709884D02*
X8285091Y-12700360D01*
X8285091Y-12700360D02*
X8294615Y-12690836D01*
X8294615Y-12690836D02*
X8294615Y-12709884D01*
X8427948Y-12509884D02*
X8446996Y-12509884D01*
X8446996Y-12509884D02*
X8466044Y-12519408D01*
X8466044Y-12519408D02*
X8475568Y-12528931D01*
X8475568Y-12528931D02*
X8485091Y-12547979D01*
X8485091Y-12547979D02*
X8494615Y-12586074D01*
X8494615Y-12586074D02*
X8494615Y-12633693D01*
X8494615Y-12633693D02*
X8485091Y-12671788D01*
X8485091Y-12671788D02*
X8475568Y-12690836D01*
X8475568Y-12690836D02*
X8466044Y-12700360D01*
X8466044Y-12700360D02*
X8446996Y-12709884D01*
X8446996Y-12709884D02*
X8427948Y-12709884D01*
X8427948Y-12709884D02*
X8408901Y-12700360D01*
X8408901Y-12700360D02*
X8399377Y-12690836D01*
X8399377Y-12690836D02*
X8389853Y-12671788D01*
X8389853Y-12671788D02*
X8380329Y-12633693D01*
X8380329Y-12633693D02*
X8380329Y-12586074D01*
X8380329Y-12586074D02*
X8389853Y-12547979D01*
X8389853Y-12547979D02*
X8399377Y-12528931D01*
X8399377Y-12528931D02*
X8408901Y-12519408D01*
X8408901Y-12519408D02*
X8427948Y-12509884D01*
X8561282Y-12509884D02*
X8685091Y-12509884D01*
X8685091Y-12509884D02*
X8618425Y-12586074D01*
X8618425Y-12586074D02*
X8646996Y-12586074D01*
X8646996Y-12586074D02*
X8666044Y-12595598D01*
X8666044Y-12595598D02*
X8675568Y-12605122D01*
X8675568Y-12605122D02*
X8685091Y-12624169D01*
X8685091Y-12624169D02*
X8685091Y-12671788D01*
X8685091Y-12671788D02*
X8675568Y-12690836D01*
X8675568Y-12690836D02*
X8666044Y-12700360D01*
X8666044Y-12700360D02*
X8646996Y-12709884D01*
X8646996Y-12709884D02*
X8589853Y-12709884D01*
X8589853Y-12709884D02*
X8570806Y-12700360D01*
X8570806Y-12700360D02*
X8561282Y-12690836D01*
X8875568Y-12709884D02*
X8761282Y-12709884D01*
X8818425Y-12709884D02*
X8818425Y-12509884D01*
X8818425Y-12509884D02*
X8799377Y-12538455D01*
X8799377Y-12538455D02*
X8780329Y-12557503D01*
X8780329Y-12557503D02*
X8761282Y-12567027D01*
X9056520Y-12509884D02*
X8961282Y-12509884D01*
X8961282Y-12509884D02*
X8951758Y-12605122D01*
X8951758Y-12605122D02*
X8961282Y-12595598D01*
X8961282Y-12595598D02*
X8980329Y-12586074D01*
X8980329Y-12586074D02*
X9027949Y-12586074D01*
X9027949Y-12586074D02*
X9046996Y-12595598D01*
X9046996Y-12595598D02*
X9056520Y-12605122D01*
X9056520Y-12605122D02*
X9066044Y-12624169D01*
X9066044Y-12624169D02*
X9066044Y-12671788D01*
X9066044Y-12671788D02*
X9056520Y-12690836D01*
X9056520Y-12690836D02*
X9046996Y-12700360D01*
X9046996Y-12700360D02*
X9027949Y-12709884D01*
X9027949Y-12709884D02*
X8980329Y-12709884D01*
X8980329Y-12709884D02*
X8961282Y-12700360D01*
X8961282Y-12700360D02*
X8951758Y-12690836D01*
X9142234Y-12509884D02*
X9142234Y-12547979D01*
X9218425Y-12509884D02*
X9218425Y-12547979D01*
X9513663Y-12786074D02*
X9504139Y-12776550D01*
X9504139Y-12776550D02*
X9485091Y-12747979D01*
X9485091Y-12747979D02*
X9475568Y-12728931D01*
X9475568Y-12728931D02*
X9466044Y-12700360D01*
X9466044Y-12700360D02*
X9456520Y-12652741D01*
X9456520Y-12652741D02*
X9456520Y-12614646D01*
X9456520Y-12614646D02*
X9466044Y-12567027D01*
X9466044Y-12567027D02*
X9475568Y-12538455D01*
X9475568Y-12538455D02*
X9485091Y-12519408D01*
X9485091Y-12519408D02*
X9504139Y-12490836D01*
X9504139Y-12490836D02*
X9513663Y-12481312D01*
X9580330Y-12528931D02*
X9589853Y-12519408D01*
X9589853Y-12519408D02*
X9608901Y-12509884D01*
X9608901Y-12509884D02*
X9656520Y-12509884D01*
X9656520Y-12509884D02*
X9675568Y-12519408D01*
X9675568Y-12519408D02*
X9685091Y-12528931D01*
X9685091Y-12528931D02*
X9694615Y-12547979D01*
X9694615Y-12547979D02*
X9694615Y-12567027D01*
X9694615Y-12567027D02*
X9685091Y-12595598D01*
X9685091Y-12595598D02*
X9570806Y-12709884D01*
X9570806Y-12709884D02*
X9694615Y-12709884D01*
X9932711Y-12709884D02*
X9932711Y-12509884D01*
X10018425Y-12709884D02*
X10018425Y-12605122D01*
X10018425Y-12605122D02*
X10008901Y-12586074D01*
X10008901Y-12586074D02*
X9989853Y-12576550D01*
X9989853Y-12576550D02*
X9961282Y-12576550D01*
X9961282Y-12576550D02*
X9942234Y-12586074D01*
X9942234Y-12586074D02*
X9932711Y-12595598D01*
X10142234Y-12709884D02*
X10123187Y-12700360D01*
X10123187Y-12700360D02*
X10113663Y-12690836D01*
X10113663Y-12690836D02*
X10104139Y-12671788D01*
X10104139Y-12671788D02*
X10104139Y-12614646D01*
X10104139Y-12614646D02*
X10113663Y-12595598D01*
X10113663Y-12595598D02*
X10123187Y-12586074D01*
X10123187Y-12586074D02*
X10142234Y-12576550D01*
X10142234Y-12576550D02*
X10170806Y-12576550D01*
X10170806Y-12576550D02*
X10189853Y-12586074D01*
X10189853Y-12586074D02*
X10199377Y-12595598D01*
X10199377Y-12595598D02*
X10208901Y-12614646D01*
X10208901Y-12614646D02*
X10208901Y-12671788D01*
X10208901Y-12671788D02*
X10199377Y-12690836D01*
X10199377Y-12690836D02*
X10189853Y-12700360D01*
X10189853Y-12700360D02*
X10170806Y-12709884D01*
X10170806Y-12709884D02*
X10142234Y-12709884D01*
X10323187Y-12709884D02*
X10304139Y-12700360D01*
X10304139Y-12700360D02*
X10294615Y-12681312D01*
X10294615Y-12681312D02*
X10294615Y-12509884D01*
X10475568Y-12700360D02*
X10456520Y-12709884D01*
X10456520Y-12709884D02*
X10418425Y-12709884D01*
X10418425Y-12709884D02*
X10399377Y-12700360D01*
X10399377Y-12700360D02*
X10389853Y-12681312D01*
X10389853Y-12681312D02*
X10389853Y-12605122D01*
X10389853Y-12605122D02*
X10399377Y-12586074D01*
X10399377Y-12586074D02*
X10418425Y-12576550D01*
X10418425Y-12576550D02*
X10456520Y-12576550D01*
X10456520Y-12576550D02*
X10475568Y-12586074D01*
X10475568Y-12586074D02*
X10485092Y-12605122D01*
X10485092Y-12605122D02*
X10485092Y-12624169D01*
X10485092Y-12624169D02*
X10389853Y-12643217D01*
X10561282Y-12700360D02*
X10580330Y-12709884D01*
X10580330Y-12709884D02*
X10618425Y-12709884D01*
X10618425Y-12709884D02*
X10637473Y-12700360D01*
X10637473Y-12700360D02*
X10646996Y-12681312D01*
X10646996Y-12681312D02*
X10646996Y-12671788D01*
X10646996Y-12671788D02*
X10637473Y-12652741D01*
X10637473Y-12652741D02*
X10618425Y-12643217D01*
X10618425Y-12643217D02*
X10589853Y-12643217D01*
X10589853Y-12643217D02*
X10570806Y-12633693D01*
X10570806Y-12633693D02*
X10561282Y-12614646D01*
X10561282Y-12614646D02*
X10561282Y-12605122D01*
X10561282Y-12605122D02*
X10570806Y-12586074D01*
X10570806Y-12586074D02*
X10589853Y-12576550D01*
X10589853Y-12576550D02*
X10618425Y-12576550D01*
X10618425Y-12576550D02*
X10637473Y-12586074D01*
X10713663Y-12786074D02*
X10723187Y-12776550D01*
X10723187Y-12776550D02*
X10742234Y-12747979D01*
X10742234Y-12747979D02*
X10751758Y-12728931D01*
X10751758Y-12728931D02*
X10761282Y-12700360D01*
X10761282Y-12700360D02*
X10770806Y-12652741D01*
X10770806Y-12652741D02*
X10770806Y-12614646D01*
X10770806Y-12614646D02*
X10761282Y-12567027D01*
X10761282Y-12567027D02*
X10751758Y-12538455D01*
X10751758Y-12538455D02*
X10742234Y-12519408D01*
X10742234Y-12519408D02*
X10723187Y-12490836D01*
X10723187Y-12490836D02*
X10713663Y-12481312D01*
D10*
X5888600Y-12832400D02*
X5888600Y-12932400D01*
X5838600Y-12882400D02*
X5938600Y-12882400D01*
D11*
X6304139Y-12973884D02*
X6189853Y-12973884D01*
X6246996Y-12973884D02*
X6246996Y-12773884D01*
X6246996Y-12773884D02*
X6227948Y-12802455D01*
X6227948Y-12802455D02*
X6208901Y-12821503D01*
X6208901Y-12821503D02*
X6189853Y-12831027D01*
X6389853Y-12954836D02*
X6399377Y-12964360D01*
X6399377Y-12964360D02*
X6389853Y-12973884D01*
X6389853Y-12973884D02*
X6380329Y-12964360D01*
X6380329Y-12964360D02*
X6389853Y-12954836D01*
X6389853Y-12954836D02*
X6389853Y-12973884D01*
X6523186Y-12773884D02*
X6542234Y-12773884D01*
X6542234Y-12773884D02*
X6561282Y-12783408D01*
X6561282Y-12783408D02*
X6570805Y-12792931D01*
X6570805Y-12792931D02*
X6580329Y-12811979D01*
X6580329Y-12811979D02*
X6589853Y-12850074D01*
X6589853Y-12850074D02*
X6589853Y-12897693D01*
X6589853Y-12897693D02*
X6580329Y-12935788D01*
X6580329Y-12935788D02*
X6570805Y-12954836D01*
X6570805Y-12954836D02*
X6561282Y-12964360D01*
X6561282Y-12964360D02*
X6542234Y-12973884D01*
X6542234Y-12973884D02*
X6523186Y-12973884D01*
X6523186Y-12973884D02*
X6504139Y-12964360D01*
X6504139Y-12964360D02*
X6494615Y-12954836D01*
X6494615Y-12954836D02*
X6485091Y-12935788D01*
X6485091Y-12935788D02*
X6475567Y-12897693D01*
X6475567Y-12897693D02*
X6475567Y-12850074D01*
X6475567Y-12850074D02*
X6485091Y-12811979D01*
X6485091Y-12811979D02*
X6494615Y-12792931D01*
X6494615Y-12792931D02*
X6504139Y-12783408D01*
X6504139Y-12783408D02*
X6523186Y-12773884D01*
X6713662Y-12773884D02*
X6732710Y-12773884D01*
X6732710Y-12773884D02*
X6751758Y-12783408D01*
X6751758Y-12783408D02*
X6761282Y-12792931D01*
X6761282Y-12792931D02*
X6770805Y-12811979D01*
X6770805Y-12811979D02*
X6780329Y-12850074D01*
X6780329Y-12850074D02*
X6780329Y-12897693D01*
X6780329Y-12897693D02*
X6770805Y-12935788D01*
X6770805Y-12935788D02*
X6761282Y-12954836D01*
X6761282Y-12954836D02*
X6751758Y-12964360D01*
X6751758Y-12964360D02*
X6732710Y-12973884D01*
X6732710Y-12973884D02*
X6713662Y-12973884D01*
X6713662Y-12973884D02*
X6694615Y-12964360D01*
X6694615Y-12964360D02*
X6685091Y-12954836D01*
X6685091Y-12954836D02*
X6675567Y-12935788D01*
X6675567Y-12935788D02*
X6666043Y-12897693D01*
X6666043Y-12897693D02*
X6666043Y-12850074D01*
X6666043Y-12850074D02*
X6675567Y-12811979D01*
X6675567Y-12811979D02*
X6685091Y-12792931D01*
X6685091Y-12792931D02*
X6694615Y-12783408D01*
X6694615Y-12783408D02*
X6713662Y-12773884D01*
X6904139Y-12773884D02*
X6923186Y-12773884D01*
X6923186Y-12773884D02*
X6942234Y-12783408D01*
X6942234Y-12783408D02*
X6951758Y-12792931D01*
X6951758Y-12792931D02*
X6961282Y-12811979D01*
X6961282Y-12811979D02*
X6970805Y-12850074D01*
X6970805Y-12850074D02*
X6970805Y-12897693D01*
X6970805Y-12897693D02*
X6961282Y-12935788D01*
X6961282Y-12935788D02*
X6951758Y-12954836D01*
X6951758Y-12954836D02*
X6942234Y-12964360D01*
X6942234Y-12964360D02*
X6923186Y-12973884D01*
X6923186Y-12973884D02*
X6904139Y-12973884D01*
X6904139Y-12973884D02*
X6885091Y-12964360D01*
X6885091Y-12964360D02*
X6875567Y-12954836D01*
X6875567Y-12954836D02*
X6866043Y-12935788D01*
X6866043Y-12935788D02*
X6856520Y-12897693D01*
X6856520Y-12897693D02*
X6856520Y-12850074D01*
X6856520Y-12850074D02*
X6866043Y-12811979D01*
X6866043Y-12811979D02*
X6875567Y-12792931D01*
X6875567Y-12792931D02*
X6885091Y-12783408D01*
X6885091Y-12783408D02*
X6904139Y-12773884D01*
X7056520Y-12973884D02*
X7056520Y-12840550D01*
X7056520Y-12859598D02*
X7066043Y-12850074D01*
X7066043Y-12850074D02*
X7085091Y-12840550D01*
X7085091Y-12840550D02*
X7113663Y-12840550D01*
X7113663Y-12840550D02*
X7132710Y-12850074D01*
X7132710Y-12850074D02*
X7142234Y-12869122D01*
X7142234Y-12869122D02*
X7142234Y-12973884D01*
X7142234Y-12869122D02*
X7151758Y-12850074D01*
X7151758Y-12850074D02*
X7170805Y-12840550D01*
X7170805Y-12840550D02*
X7199377Y-12840550D01*
X7199377Y-12840550D02*
X7218424Y-12850074D01*
X7218424Y-12850074D02*
X7227948Y-12869122D01*
X7227948Y-12869122D02*
X7227948Y-12973884D01*
X7323186Y-12973884D02*
X7323186Y-12840550D01*
X7323186Y-12859598D02*
X7332710Y-12850074D01*
X7332710Y-12850074D02*
X7351758Y-12840550D01*
X7351758Y-12840550D02*
X7380329Y-12840550D01*
X7380329Y-12840550D02*
X7399377Y-12850074D01*
X7399377Y-12850074D02*
X7408901Y-12869122D01*
X7408901Y-12869122D02*
X7408901Y-12973884D01*
X7408901Y-12869122D02*
X7418424Y-12850074D01*
X7418424Y-12850074D02*
X7437472Y-12840550D01*
X7437472Y-12840550D02*
X7466043Y-12840550D01*
X7466043Y-12840550D02*
X7485091Y-12850074D01*
X7485091Y-12850074D02*
X7494615Y-12869122D01*
X7494615Y-12869122D02*
X7494615Y-12973884D01*
X7885091Y-12764360D02*
X7713663Y-13021503D01*
X8142234Y-12773884D02*
X8161282Y-12773884D01*
X8161282Y-12773884D02*
X8180329Y-12783408D01*
X8180329Y-12783408D02*
X8189853Y-12792931D01*
X8189853Y-12792931D02*
X8199377Y-12811979D01*
X8199377Y-12811979D02*
X8208901Y-12850074D01*
X8208901Y-12850074D02*
X8208901Y-12897693D01*
X8208901Y-12897693D02*
X8199377Y-12935788D01*
X8199377Y-12935788D02*
X8189853Y-12954836D01*
X8189853Y-12954836D02*
X8180329Y-12964360D01*
X8180329Y-12964360D02*
X8161282Y-12973884D01*
X8161282Y-12973884D02*
X8142234Y-12973884D01*
X8142234Y-12973884D02*
X8123186Y-12964360D01*
X8123186Y-12964360D02*
X8113663Y-12954836D01*
X8113663Y-12954836D02*
X8104139Y-12935788D01*
X8104139Y-12935788D02*
X8094615Y-12897693D01*
X8094615Y-12897693D02*
X8094615Y-12850074D01*
X8094615Y-12850074D02*
X8104139Y-12811979D01*
X8104139Y-12811979D02*
X8113663Y-12792931D01*
X8113663Y-12792931D02*
X8123186Y-12783408D01*
X8123186Y-12783408D02*
X8142234Y-12773884D01*
X8294615Y-12954836D02*
X8304139Y-12964360D01*
X8304139Y-12964360D02*
X8294615Y-12973884D01*
X8294615Y-12973884D02*
X8285091Y-12964360D01*
X8285091Y-12964360D02*
X8294615Y-12954836D01*
X8294615Y-12954836D02*
X8294615Y-12973884D01*
X8427948Y-12773884D02*
X8446996Y-12773884D01*
X8446996Y-12773884D02*
X8466044Y-12783408D01*
X8466044Y-12783408D02*
X8475568Y-12792931D01*
X8475568Y-12792931D02*
X8485091Y-12811979D01*
X8485091Y-12811979D02*
X8494615Y-12850074D01*
X8494615Y-12850074D02*
X8494615Y-12897693D01*
X8494615Y-12897693D02*
X8485091Y-12935788D01*
X8485091Y-12935788D02*
X8475568Y-12954836D01*
X8475568Y-12954836D02*
X8466044Y-12964360D01*
X8466044Y-12964360D02*
X8446996Y-12973884D01*
X8446996Y-12973884D02*
X8427948Y-12973884D01*
X8427948Y-12973884D02*
X8408901Y-12964360D01*
X8408901Y-12964360D02*
X8399377Y-12954836D01*
X8399377Y-12954836D02*
X8389853Y-12935788D01*
X8389853Y-12935788D02*
X8380329Y-12897693D01*
X8380329Y-12897693D02*
X8380329Y-12850074D01*
X8380329Y-12850074D02*
X8389853Y-12811979D01*
X8389853Y-12811979D02*
X8399377Y-12792931D01*
X8399377Y-12792931D02*
X8408901Y-12783408D01*
X8408901Y-12783408D02*
X8427948Y-12773884D01*
X8561282Y-12773884D02*
X8685091Y-12773884D01*
X8685091Y-12773884D02*
X8618425Y-12850074D01*
X8618425Y-12850074D02*
X8646996Y-12850074D01*
X8646996Y-12850074D02*
X8666044Y-12859598D01*
X8666044Y-12859598D02*
X8675568Y-12869122D01*
X8675568Y-12869122D02*
X8685091Y-12888169D01*
X8685091Y-12888169D02*
X8685091Y-12935788D01*
X8685091Y-12935788D02*
X8675568Y-12954836D01*
X8675568Y-12954836D02*
X8666044Y-12964360D01*
X8666044Y-12964360D02*
X8646996Y-12973884D01*
X8646996Y-12973884D02*
X8589853Y-12973884D01*
X8589853Y-12973884D02*
X8570806Y-12964360D01*
X8570806Y-12964360D02*
X8561282Y-12954836D01*
X8780329Y-12973884D02*
X8818425Y-12973884D01*
X8818425Y-12973884D02*
X8837472Y-12964360D01*
X8837472Y-12964360D02*
X8846996Y-12954836D01*
X8846996Y-12954836D02*
X8866044Y-12926265D01*
X8866044Y-12926265D02*
X8875568Y-12888169D01*
X8875568Y-12888169D02*
X8875568Y-12811979D01*
X8875568Y-12811979D02*
X8866044Y-12792931D01*
X8866044Y-12792931D02*
X8856520Y-12783408D01*
X8856520Y-12783408D02*
X8837472Y-12773884D01*
X8837472Y-12773884D02*
X8799377Y-12773884D01*
X8799377Y-12773884D02*
X8780329Y-12783408D01*
X8780329Y-12783408D02*
X8770806Y-12792931D01*
X8770806Y-12792931D02*
X8761282Y-12811979D01*
X8761282Y-12811979D02*
X8761282Y-12859598D01*
X8761282Y-12859598D02*
X8770806Y-12878646D01*
X8770806Y-12878646D02*
X8780329Y-12888169D01*
X8780329Y-12888169D02*
X8799377Y-12897693D01*
X8799377Y-12897693D02*
X8837472Y-12897693D01*
X8837472Y-12897693D02*
X8856520Y-12888169D01*
X8856520Y-12888169D02*
X8866044Y-12878646D01*
X8866044Y-12878646D02*
X8875568Y-12859598D01*
X9046996Y-12840550D02*
X9046996Y-12973884D01*
X8999377Y-12764360D02*
X8951758Y-12907217D01*
X8951758Y-12907217D02*
X9075568Y-12907217D01*
X9142234Y-12773884D02*
X9142234Y-12811979D01*
X9218425Y-12773884D02*
X9218425Y-12811979D01*
X9513663Y-13050074D02*
X9504139Y-13040550D01*
X9504139Y-13040550D02*
X9485091Y-13011979D01*
X9485091Y-13011979D02*
X9475568Y-12992931D01*
X9475568Y-12992931D02*
X9466044Y-12964360D01*
X9466044Y-12964360D02*
X9456520Y-12916741D01*
X9456520Y-12916741D02*
X9456520Y-12878646D01*
X9456520Y-12878646D02*
X9466044Y-12831027D01*
X9466044Y-12831027D02*
X9475568Y-12802455D01*
X9475568Y-12802455D02*
X9485091Y-12783408D01*
X9485091Y-12783408D02*
X9504139Y-12754836D01*
X9504139Y-12754836D02*
X9513663Y-12745312D01*
X9570806Y-12773884D02*
X9694615Y-12773884D01*
X9694615Y-12773884D02*
X9627949Y-12850074D01*
X9627949Y-12850074D02*
X9656520Y-12850074D01*
X9656520Y-12850074D02*
X9675568Y-12859598D01*
X9675568Y-12859598D02*
X9685091Y-12869122D01*
X9685091Y-12869122D02*
X9694615Y-12888169D01*
X9694615Y-12888169D02*
X9694615Y-12935788D01*
X9694615Y-12935788D02*
X9685091Y-12954836D01*
X9685091Y-12954836D02*
X9675568Y-12964360D01*
X9675568Y-12964360D02*
X9656520Y-12973884D01*
X9656520Y-12973884D02*
X9599377Y-12973884D01*
X9599377Y-12973884D02*
X9580330Y-12964360D01*
X9580330Y-12964360D02*
X9570806Y-12954836D01*
X9866044Y-12773884D02*
X9827949Y-12773884D01*
X9827949Y-12773884D02*
X9808901Y-12783408D01*
X9808901Y-12783408D02*
X9799377Y-12792931D01*
X9799377Y-12792931D02*
X9780330Y-12821503D01*
X9780330Y-12821503D02*
X9770806Y-12859598D01*
X9770806Y-12859598D02*
X9770806Y-12935788D01*
X9770806Y-12935788D02*
X9780330Y-12954836D01*
X9780330Y-12954836D02*
X9789853Y-12964360D01*
X9789853Y-12964360D02*
X9808901Y-12973884D01*
X9808901Y-12973884D02*
X9846996Y-12973884D01*
X9846996Y-12973884D02*
X9866044Y-12964360D01*
X9866044Y-12964360D02*
X9875568Y-12954836D01*
X9875568Y-12954836D02*
X9885091Y-12935788D01*
X9885091Y-12935788D02*
X9885091Y-12888169D01*
X9885091Y-12888169D02*
X9875568Y-12869122D01*
X9875568Y-12869122D02*
X9866044Y-12859598D01*
X9866044Y-12859598D02*
X9846996Y-12850074D01*
X9846996Y-12850074D02*
X9808901Y-12850074D01*
X9808901Y-12850074D02*
X9789853Y-12859598D01*
X9789853Y-12859598D02*
X9780330Y-12869122D01*
X9780330Y-12869122D02*
X9770806Y-12888169D01*
X10123187Y-12973884D02*
X10123187Y-12773884D01*
X10208901Y-12973884D02*
X10208901Y-12869122D01*
X10208901Y-12869122D02*
X10199377Y-12850074D01*
X10199377Y-12850074D02*
X10180330Y-12840550D01*
X10180330Y-12840550D02*
X10151758Y-12840550D01*
X10151758Y-12840550D02*
X10132711Y-12850074D01*
X10132711Y-12850074D02*
X10123187Y-12859598D01*
X10332711Y-12973884D02*
X10313663Y-12964360D01*
X10313663Y-12964360D02*
X10304139Y-12954836D01*
X10304139Y-12954836D02*
X10294615Y-12935788D01*
X10294615Y-12935788D02*
X10294615Y-12878646D01*
X10294615Y-12878646D02*
X10304139Y-12859598D01*
X10304139Y-12859598D02*
X10313663Y-12850074D01*
X10313663Y-12850074D02*
X10332711Y-12840550D01*
X10332711Y-12840550D02*
X10361282Y-12840550D01*
X10361282Y-12840550D02*
X10380330Y-12850074D01*
X10380330Y-12850074D02*
X10389853Y-12859598D01*
X10389853Y-12859598D02*
X10399377Y-12878646D01*
X10399377Y-12878646D02*
X10399377Y-12935788D01*
X10399377Y-12935788D02*
X10389853Y-12954836D01*
X10389853Y-12954836D02*
X10380330Y-12964360D01*
X10380330Y-12964360D02*
X10361282Y-12973884D01*
X10361282Y-12973884D02*
X10332711Y-12973884D01*
X10513663Y-12973884D02*
X10494615Y-12964360D01*
X10494615Y-12964360D02*
X10485092Y-12945312D01*
X10485092Y-12945312D02*
X10485092Y-12773884D01*
X10666044Y-12964360D02*
X10646996Y-12973884D01*
X10646996Y-12973884D02*
X10608901Y-12973884D01*
X10608901Y-12973884D02*
X10589853Y-12964360D01*
X10589853Y-12964360D02*
X10580330Y-12945312D01*
X10580330Y-12945312D02*
X10580330Y-12869122D01*
X10580330Y-12869122D02*
X10589853Y-12850074D01*
X10589853Y-12850074D02*
X10608901Y-12840550D01*
X10608901Y-12840550D02*
X10646996Y-12840550D01*
X10646996Y-12840550D02*
X10666044Y-12850074D01*
X10666044Y-12850074D02*
X10675568Y-12869122D01*
X10675568Y-12869122D02*
X10675568Y-12888169D01*
X10675568Y-12888169D02*
X10580330Y-12907217D01*
X10751758Y-12964360D02*
X10770806Y-12973884D01*
X10770806Y-12973884D02*
X10808901Y-12973884D01*
X10808901Y-12973884D02*
X10827949Y-12964360D01*
X10827949Y-12964360D02*
X10837473Y-12945312D01*
X10837473Y-12945312D02*
X10837473Y-12935788D01*
X10837473Y-12935788D02*
X10827949Y-12916741D01*
X10827949Y-12916741D02*
X10808901Y-12907217D01*
X10808901Y-12907217D02*
X10780330Y-12907217D01*
X10780330Y-12907217D02*
X10761282Y-12897693D01*
X10761282Y-12897693D02*
X10751758Y-12878646D01*
X10751758Y-12878646D02*
X10751758Y-12869122D01*
X10751758Y-12869122D02*
X10761282Y-12850074D01*
X10761282Y-12850074D02*
X10780330Y-12840550D01*
X10780330Y-12840550D02*
X10808901Y-12840550D01*
X10808901Y-12840550D02*
X10827949Y-12850074D01*
X10904139Y-13050074D02*
X10913663Y-13040550D01*
X10913663Y-13040550D02*
X10932711Y-13011979D01*
X10932711Y-13011979D02*
X10942234Y-12992931D01*
X10942234Y-12992931D02*
X10951758Y-12964360D01*
X10951758Y-12964360D02*
X10961282Y-12916741D01*
X10961282Y-12916741D02*
X10961282Y-12878646D01*
X10961282Y-12878646D02*
X10951758Y-12831027D01*
X10951758Y-12831027D02*
X10942234Y-12802455D01*
X10942234Y-12802455D02*
X10932711Y-12783408D01*
X10932711Y-12783408D02*
X10913663Y-12754836D01*
X10913663Y-12754836D02*
X10904139Y-12745312D01*
M02*
