%TF.GenerationSoftware,KiCad,Pcbnew,7.0.10*%
%TF.CreationDate,2024-02-19T12:28:25+05:30*%
%TF.ProjectId,ArduinoNano _Rudra_2021eeb1208,41726475-696e-46f4-9e61-6e6f205f5275,rev?*%
%TF.SameCoordinates,Original*%
%TF.FileFunction,Paste,Top*%
%TF.FilePolarity,Positive*%
%FSLAX46Y46*%
G04 Gerber Fmt 4.6, Leading zero omitted, Abs format (unit mm)*
G04 Created by KiCad (PCBNEW 7.0.10) date 2024-02-19 12:28:25*
%MOMM*%
%LPD*%
G01*
G04 APERTURE LIST*
G04 Aperture macros list*
%AMRoundRect*
0 Rectangle with rounded corners*
0 $1 Rounding radius*
0 $2 $3 $4 $5 $6 $7 $8 $9 X,Y pos of 4 corners*
0 Add a 4 corners polygon primitive as box body*
4,1,4,$2,$3,$4,$5,$6,$7,$8,$9,$2,$3,0*
0 Add four circle primitives for the rounded corners*
1,1,$1+$1,$2,$3*
1,1,$1+$1,$4,$5*
1,1,$1+$1,$6,$7*
1,1,$1+$1,$8,$9*
0 Add four rect primitives between the rounded corners*
20,1,$1+$1,$2,$3,$4,$5,0*
20,1,$1+$1,$4,$5,$6,$7,0*
20,1,$1+$1,$6,$7,$8,$9,0*
20,1,$1+$1,$8,$9,$2,$3,0*%
G04 Aperture macros list end*
%ADD10R,0.900000X1.700000*%
%ADD11RoundRect,0.243750X-0.243750X-0.456250X0.243750X-0.456250X0.243750X0.456250X-0.243750X0.456250X0*%
%ADD12R,2.250000X0.500000*%
%ADD13R,2.500000X2.000000*%
%ADD14R,1.473200X0.508000*%
%ADD15R,0.508000X1.473200*%
G04 APERTURE END LIST*
D10*
%TO.C,RST1*%
X93120500Y-107950000D03*
X96520500Y-107950000D03*
%TD*%
D11*
%TO.C,L1*%
X93707500Y-111760000D03*
X95582500Y-111760000D03*
%TD*%
%TO.C,RX1*%
X93804500Y-104140000D03*
X95679500Y-104140000D03*
%TD*%
D12*
%TO.C,J7*%
X67043000Y-104318000D03*
X67043000Y-105118000D03*
X67043000Y-105918000D03*
X67043000Y-106718000D03*
X67043000Y-107518000D03*
D13*
X66918000Y-101468000D03*
X66918000Y-110368000D03*
X61468000Y-101468000D03*
X61468000Y-110368000D03*
%TD*%
D11*
%TO.C,TX1*%
X93804500Y-100838000D03*
X95679500Y-100838000D03*
%TD*%
D14*
%TO.C,U1*%
X71323200Y-102971600D03*
X71323200Y-103759000D03*
X71323200Y-104571800D03*
X71323200Y-105359200D03*
X71323200Y-106172000D03*
X71323200Y-106959400D03*
X71323200Y-107772200D03*
X71323200Y-108559600D03*
D15*
X72644000Y-109880400D03*
X73431400Y-109880400D03*
X74244200Y-109880400D03*
X75031600Y-109880400D03*
X75844400Y-109880400D03*
X76631800Y-109880400D03*
X77444600Y-109880400D03*
X78232000Y-109880400D03*
D14*
X79552800Y-108559600D03*
X79552800Y-107772200D03*
X79552800Y-106959400D03*
X79552800Y-106172000D03*
X79552800Y-105359200D03*
X79552800Y-104571800D03*
X79552800Y-103759000D03*
X79552800Y-102971600D03*
D15*
X78232000Y-101650800D03*
X77444600Y-101650800D03*
X76631800Y-101650800D03*
X75844400Y-101650800D03*
X75031600Y-101650800D03*
X74244200Y-101650800D03*
X73431400Y-101650800D03*
X72644000Y-101650800D03*
%TD*%
M02*
