M48
; DRILL file {KiCad 7.0.10} date 
; FORMAT={-:-/ absolute / inch / decimal}
; #@! TF.CreationDate,2024-02-19T12:28:34+05:30
; #@! TF.GenerationSoftware,Kicad,Pcbnew,7.0.10
; #@! TF.FileFunction,Plated,1,4,PTH
FMAT,2
INCH
; #@! TA.AperFunction,Plated,PTH,ViaDrill
T1C0.0157
; #@! TA.AperFunction,Plated,PTH,ComponentDrill
T2C0.0315
; #@! TA.AperFunction,Plated,PTH,ComponentDrill
T3C0.0394
%
G90
G05
T1
X2.4027Y-4.2771
X2.4992Y-4.0383
X2.5121Y-4.1449
X2.643Y-4.0657
X2.6452Y-4.2749
X2.7262Y-4.3312
X2.7353Y-4.0372
X2.8218Y-4.019
X2.8222Y-4.3703
X2.8259Y-4.3079
X2.8448Y-4.4464
X2.8907Y-3.913
X2.9451Y-4.2193
X2.9628Y-4.1809
X2.9666Y-4.2548
X2.9747Y-4.0985
X2.9771Y-4.0577
X2.9838Y-4.4315
X2.9908Y-4.2134
X3.0299Y-4.1675
X3.0347Y-4.0828
X3.0437Y-4.2478
X3.0728Y-4.2154
X3.0746Y-4.1259
X3.1404Y-4.3397
X3.2285Y-4.0327
X3.2677Y-4.15
X3.3103Y-4.333
X3.3767Y-4.1813
X3.3886Y-4.2704
X3.4703Y-3.9694
X3.4782Y-4.0095
X3.6049Y-4.2185
X3.6386Y-4.0973
X3.6979Y-4.0214
X3.7836Y-4.1904
X3.8403Y-4.1405
X3.8477Y-4.3368
X3.86Y-3.8987
X3.9136Y-4.2165
T2
X3.3Y-4.07
X3.3Y-4.2621
T3
X2.54Y-3.825
X2.54Y-4.525
X2.64Y-3.825
X2.64Y-4.525
X2.74Y-3.825
X2.74Y-4.525
X2.84Y-3.825
X2.84Y-4.525
X2.94Y-3.825
X2.94Y-4.525
X3.04Y-3.825
X3.04Y-4.525
X3.14Y-3.825
X3.14Y-4.525
X3.24Y-3.825
X3.24Y-4.525
X3.34Y-3.825
X3.34Y-4.525
X3.44Y-3.825
X3.44Y-4.525
X3.54Y-3.825
X3.54Y-4.525
X3.64Y-3.825
X3.64Y-4.525
X3.74Y-3.825
X3.74Y-4.525
X3.84Y-3.825
X3.84Y-4.525
X3.94Y-3.825
X3.94Y-4.525
X3.98Y-4.07
X3.98Y-4.17
X3.98Y-4.27
X4.08Y-4.07
X4.08Y-4.17
X4.08Y-4.27
M30
